<?xml version="1.0" encoding="utf-8"?>
<!-- Generator: Adobe Illustrator 26.3.1, SVG Export Plug-In . SVG Version: 6.00 Build 0)  -->
<svg version="1.2" baseProfile="tiny" id="Layer_1" xmlns="http://www.w3.org/2000/svg" xmlns:xlink="http://www.w3.org/1999/xlink"
	 x="0px" y="0px" viewBox="0 0 50 50" overflow="visible" xml:space="preserve">
<g>
	<path d="M42.274414,49c-2.756836,0-5-2.243164-5-5V22.471191c0-1.32959-1.082031-2.411133-2.411133-2.411133H15.274414v-10
		h20.706055c6.227539,0,11.293945,5.066895,11.293945,11.294434V44C47.274414,46.756836,45.03125,49,42.274414,49z"/>
	<path fill="#FFFFFF" d="M35.980259,11.059999c5.68536,0,10.294258,4.6089,10.294258,10.294261v22.645748
		c0,2.209129-1.790859,3.999992-4,3.999992s-4-1.790863-4-3.999992v-21.52895c0-1.883879-1.52718-3.411058-3.41106-3.411058
		h-18.58894v-8.000001H35.980259 M35.980259,9.059999H16.274517h-2v2v8.000001v2h2h18.58894
		c0.778061,0,1.41106,0.632999,1.41106,1.411058v21.52895c0,3.308411,2.691589,5.999992,6,5.999992s6-2.691582,6-5.999992V21.354259
		C48.274517,14.575179,42.759338,9.059999,35.980259,9.059999L35.980259,9.059999z"/>
</g>
<g>
	<path d="M18.025879,29c-0.652344,0-1.26123-0.238281-1.760254-0.689453L3.549316,16.80957
		C3.034668,16.374023,2.725586,15.706543,2.725586,15s0.309082-1.374023,0.848145-1.830566L16.265625,1.689941
		C16.764648,1.23877,17.373535,1,18.025879,1c0.813965,0,1.602539,0.385742,2.108887,1.032227
		c0.496094,0.632812,0.667969,1.453125,0.47168,2.250977L17.96875,15l2.637695,10.717285
		c0.196289,0.797363,0.024414,1.617676-0.47168,2.250488C19.628418,28.614258,18.840332,29,18.026367,29
		C18.025879,29,18.025879,29,18.025879,29z"/>
	<path fill="#FFFFFF" d="M18.026081,2c0.979891,0,1.88974,0.904374,1.609303,2.043931L16.939144,15l2.696239,10.95607
		C19.915846,27.095722,19.006065,28,18.026081,28c-0.373701,0-0.757751-0.131601-1.089697-0.431801L4.220094,16.068041
		c-0.65948-0.55932-0.65948-1.576761,0-2.136081L16.936384,2.4318C17.268402,2.131536,17.652302,2,18.026081,2 M18.026085,0
		c-0.891481,0-1.7549,0.33682-2.43119,0.94842L2.897188,12.431785C2.152071,13.078302,1.725484,14.012109,1.725484,15
		s0.426588,1.921698,1.171704,2.568216l12.697696,11.483343C16.271173,29.663179,17.134594,30,18.026085,30
		c1.11882,0,2.20134-0.528971,2.89576-1.415001c0.686871-0.876389,0.925819-2.008799,0.6556-3.106859L18.998821,15
		l2.578623-10.47814c0.27021-1.09802,0.03125-2.23041-0.65563-3.10682C20.227375,0.52899,19.144865,0,18.026085,0L18.026085,0z"/>
</g>
</svg>
