<?xml version="1.0" encoding="utf-8"?>
<!-- Generator: Adobe Illustrator 26.3.1, SVG Export Plug-In . SVG Version: 6.00 Build 0)  -->
<svg version="1.2" baseProfile="tiny" id="Layer_1" xmlns="http://www.w3.org/2000/svg" xmlns:xlink="http://www.w3.org/1999/xlink"
	 x="0px" y="0px" viewBox="0 0 50 50" overflow="visible" xml:space="preserve">
<path display="none" fill="#999999" d="M0,24.999996v0.000008C0,26.932999,1.567002,28.5,3.499996,28.5H28.5v-7H3.499996
	C1.567002,21.5,0,23.067001,0,24.999996z"/>
<path fill="#999999" d="M21.500013,26h7V3.499996C28.500013,1.567002,26.93301,0,25.000015,0H25.00001
	c-1.932995,0-3.499996,1.567002-3.499996,3.499996V26z"/>
<path display="none" fill="#999999" d="M50,24.999996v0.000008C50,26.932999,48.432999,28.5,46.500004,28.5H21.5v-7h25.000004
	C48.432999,21.5,50,23.067001,50,24.999996z"/>
<g display="none">
	<path display="inline" d="M25.000488,49C22.519043,49,20.5,46.981445,20.5,44.5V30.499023
		C20.5,29.948242,20.051758,29.5,19.500488,29.5h-6.192383l0.702637,2.839844
		c0.159668,0.645508,0.020508,1.310547-0.381836,1.825195c-0.40918,0.521484-1.045898,0.833984-1.704102,0.833984
		c-0.522461,0-1.028809-0.198242-1.426758-0.558594l-8.798828-7.958984C1.279785,26.126953,1.025391,25.578613,1.025391,25
		s0.254395-1.126465,0.697754-1.50293l8.775879-7.938965c0.397949-0.359375,0.904297-0.557617,1.42627-0.557617
		c0.658203,0,1.29541,0.312012,1.704102,0.833984c0.402344,0.51416,0.541504,1.179199,0.381836,1.824707L13.308105,20.5h8.188965
		c4.412598,0,8.00293,3.590332,8.00293,8.00293v15.897461c0,2.1875-1.499023,4.081055-3.564453,4.503906
		C25.625488,48.967773,25.311035,49,25.000488,49z"/>
	<path display="inline" fill="#FFFFFF" d="M11.92529,16.00062c0.679688,0,1.310631,0.627779,1.114998,1.418114l-1.010261,4.08127
		h9.46694c3.86767,0,7.003031,3.135359,7.003031,7.003029v15.89711c0,1.6702-1.129051,3.189869-2.76536,3.524632
		c-0.248812,0.050903-0.494658,0.075218-0.734661,0.075218c-1.930111,0-3.499979-1.569912-3.499979-3.499989v-14.00066
		c0-1.104212-0.89513-1.99934-1.99934-1.99934h-7.470631l1.00995,4.079948c0.19569,0.790558-0.435534,1.418636-1.115407,1.418636
		c-0.25918,0-0.525334-0.091206-0.755583-0.299477l-8.79899-7.95912c-0.46002-0.390018-0.46002-1.090029,0-1.479979
		l8.79999-7.960032C11.4001,16.091837,11.66626,16.00062,11.92529,16.00062 M11.925287,14.000623
		c-0.77043,0-1.51514,0.28985-2.09697,0.81614L1.045762,22.76103c-0.64922,0.565643-1.020745,1.379242-1.020774,2.238813
		c-0.000039,0.859758,0.371539,1.673555,1.020971,2.239309l8.781379,7.94319c0.58191,0.52636,1.32672,0.816242,2.09723,0.816242
		c0.96346,0,1.89496-0.455261,2.491771-1.217823c0.593269-0.758018,0.799219-1.735348,0.565049-2.68137l-0.395915-1.599388h4.915186
		l-0.00066,14c0,3.0327,2.467279,5.499989,5.499979,5.499989c0.377861,0,0.759901-0.03896,1.135509-0.115799
		c2.528971-0.51738,4.364511-2.823761,4.364511-5.484051v-15.89711c0-4.964291-4.03874-9.003029-9.003031-9.003029h-6.9115
		l0.39623-1.6007c0.23414-0.94594,0.028231-1.92315-0.56495-2.681061C13.820027,14.455813,12.888638,14.000623,11.925287,14.000623
		L11.925287,14.000623z"/>
</g>
<g display="none">
	<path display="inline" d="M25,49c-2.481445,0-4.5-2.018555-4.5-4.5V13.307617l-2.839844,0.703125
		c-0.174805,0.043457-0.352539,0.06543-0.528809,0.06543c-0.833984,0-1.596191-0.50293-1.941895-1.280762
		c-0.34668-0.780762-0.205566-1.660645,0.368164-2.295898l7.960449-8.800293C23.873535,1.279785,24.421387,1.025391,25,1.025391
		s1.126953,0.254395,1.50293,0.697754l7.938477,8.775879c0.575195,0.635742,0.71582,1.515625,0.369141,2.296387
		c-0.345703,0.777832-1.108398,1.280762-1.942383,1.280762c-0.175781,0-0.353516-0.021973-0.52832-0.06543L29.5,13.307617V44.5
		C29.5,46.981445,27.481445,49,25,49z"/>
	<path display="inline" fill="#FFFFFF" d="M25,2.024981c0.272491,0,0.544983,0.115005,0.739988,0.345017l7.960024,8.799989
		c0.681839,0.754579,0.098942,1.906005-0.831585,1.906005c-0.093021,0-0.18935-0.011477-0.288406-0.036016L28.5,12.029964v32.470032
		c0,1.93-1.570011,3.5-3.5,3.5s-3.5-1.57-3.5-3.5V12.029964l-4.080023,1.010011
		c-0.098989,0.024524-0.195442,0.036016-0.288406,0.036016c-0.930634,0-1.513467-1.151376-0.831581-1.906005l7.960022-8.799989
		C24.455017,2.139987,24.727509,2.024981,25,2.024981 M25,0.024975c-0.859587,0-1.673191,0.371461-2.238909,1.02071
		l-7.944336,8.782646c-0.843544,0.933544-1.050589,2.225644-0.541033,3.372855
		c0.505866,1.138901,1.626855,1.874801,2.855844,1.874801c0.256844,0,0.515688-0.031856,0.769333-0.094689l1.5991-0.39586v29.914558
		c0,3.032711,2.467289,5.5,5.5,5.5s5.5-2.467289,5.5-5.5V14.585435l1.599434,0.395941
		c0.253212,0.062744,0.512089,0.094611,0.769001,0.094611c1.228954,0,2.349911-0.735923,2.855789-1.874845
		c0.509563-1.147223,0.302532-2.439311-0.540291-3.372045l-7.945103-8.7835C26.673141,0.396467,25.859512,0.024975,25,0.024975
		L25,0.024975z"/>
</g>
<g>
	<path d="M12,49c-2.481445,0-4.5-2.018555-4.5-4.5V34c0-9.649414,7.850586-17.5,17.5-17.5S42.5,24.350586,42.5,34v2.692383
		l2.84082-0.703125c0.175781-0.042969,0.353516-0.06543,0.530273-0.06543c0.834961,0,1.59668,0.501953,1.942383,1.279297
		c0.34668,0.780273,0.204102,1.661133-0.371094,2.297852l-7.960938,8.799805C39.125977,48.720703,38.578125,48.974609,38,48.974609
		s-1.125977-0.253906-1.50293-0.697266l-7.938477-8.776367c-0.576172-0.636719-0.71875-1.517578-0.37207-2.297852
		c0.345703-0.777344,1.107422-1.279297,1.942383-1.279297c0.176758,0,0.354492,0.022461,0.530273,0.06543L33.5,36.692383V34
		c0-4.686523-3.813477-8.5-8.5-8.5c-4.687012,0-8.5,3.813477-8.5,8.5v10.5C16.5,46.981445,14.481445,49,12,49z"/>
	<path fill="#FFFFFF" d="M25.000031,17.500004c9.11269,0,16.499981,7.387289,16.499981,16.499981v3.96999l4.081249-1.010323
		c0.099464-0.02462,0.19619-0.036148,0.289581-0.036137c0.931469,0.000137,1.514771,1.14851,0.829178,1.906437l-7.960018,8.800049
		c-0.195007,0.22998-0.467495,0.344971-0.739986,0.344971s-0.544983-0.11499-0.739994-0.344971l-7.96002-8.800049
		c-0.685638-0.75798-0.102398-1.906452,0.829178-1.906437c0.093332,0.000004,0.190182,0.011532,0.289581,0.036137l4.081251,1.010323
		v-3.969982c0-5.2467-4.25329-9.499989-9.49999-9.499989H25c-5.2467,0-9.49999,4.253288-9.49999,9.499989v10.500011
		c0,1.932999-1.567,3.5-3.49999,3.5h-0.00001c-1.933,0-3.5-1.567001-3.5-3.5V33.999985
		c0-9.112692,7.3873-16.499981,16.499989-16.499981H25.000031 M25.000031,15.500003
		c-10.20095,0-18.500019,8.29906-18.500019,18.499981v10.500019c0,3.032707,2.46729,5.5,5.5,5.5s5.499999-2.467293,5.499999-5.5
		V33.999992c0-4.135509,3.364481-7.499989,7.49999-7.499989c4.135521,0,7.500011,3.364479,7.500011,7.499989v1.414505
		l-1.600651-0.396244c-0.253901-0.062859-0.513041-0.094742-0.77018-0.094742c-1.22995-0.000008-2.351231,0.735653-2.856581,1.87418
		c-0.50918,1.147141-0.300659,2.439953,0.54418,3.37392l7.944206,8.78257c0.565708,0.649235,1.379436,1.02079,2.239025,1.02079
		c0.859669,0,1.67345-0.371609,2.239155-1.020935l7.944084-8.782433c0.844719-0.933842,1.053261-2.226521,0.544231-3.373569
		c-0.505253-1.138542-1.626431-1.87434-2.856342-1.874523c-0.257179-0.000027-0.51635,0.031841-0.770397,0.094723
		l-1.600731,0.396263v-1.414513C43.500011,23.799063,35.200951,15.500003,25.000031,15.500003L25.000031,15.500003z"/>
</g>
</svg>
