<?xml version="1.0" encoding="utf-8"?>
<!-- Generator: Adobe Illustrator 26.3.1, SVG Export Plug-In . SVG Version: 6.00 Build 0)  -->
<svg version="1.2" baseProfile="tiny" id="Layer_1" xmlns="http://www.w3.org/2000/svg" xmlns:xlink="http://www.w3.org/1999/xlink"
	 x="0px" y="0px" viewBox="0 0 50 50" overflow="visible" xml:space="preserve">
<path fill="#999999" d="M19.499989,3.5c8.559998,0,15.5,6.940002,15.5,15.5s-6.940002,15.5-15.5,15.5s-15.5-6.940002-15.5-15.5
	S10.939991,3.5,19.499989,3.5z M19.499989,27.5c4.690002,0,8.5-3.809998,8.5-8.5s-3.809998-8.5-8.5-8.5s-8.5,3.809998-8.5,8.5
	S14.809986,27.5,19.499989,27.5z"/>
<g>
	<path d="M19.5,49c-2.756836,0-5-2.243164-5-5V30.783203c0-2.637695,2.146484-4.78418,4.784668-4.78418L19.504883,26
		c1.143066,0,2.233398-0.27002,3.23584-0.802734l0.097656-0.04541c0.037109-0.015625,0.072266-0.041016,0.105957-0.063477
		c1.12207-0.637695,2.005859-1.518555,2.618652-2.586426c0.850098-1.47998,2.40918-2.378906,4.086914-2.378906
		c0.816895,0,1.622559,0.21582,2.330566,0.624512l7.134766,4.119141l0.915039-3.145996
		c0.275391-0.974121,1.148438-1.633301,2.168945-1.633301c1.000977,0,1.845703,0.614258,2.15332,1.56543l4.049805,12.560059
		c0.197266,0.532227,0.145508,1.165039-0.157227,1.696289c-0.305664,0.53418-0.829102,0.904297-1.436523,1.014648L33.950195,39.6875
		c-0.165039,0.035156-0.330078,0.052734-0.492188,0.052734c-0.897461,0-1.709961-0.541992-2.068359-1.381836
		c-0.361328-0.84375-0.19043-1.782227,0.446289-2.449219l2.279297-2.379883l-3.269531-1.880859
		c-0.87207,0.788086-1.825684,1.484375-2.842773,2.076172C26.880371,34.366211,25.706543,34.875,24.5,35.24707V44
		C24.5,46.756836,22.256836,49,19.5,49z"/>
	<path fill="#FFFFFF" d="M42.199402,21.087339c0.506073,0.000046,1.01302,0.290117,1.200615,0.872622l4.049988,12.560001
		c0.22998,0.620049-0.160038,1.300049-0.820011,1.42004l-12.890018,2.769958c-0.096802,0.02063-0.191032,0.030369-0.282158,0.030369
		c-1.057312,0-1.689577-1.311741-0.897835-2.140358l3.159973-3.29998l-5.019951-2.89002
		c-0.96003,0.95001-2.030029,1.770021-3.20002,2.45001c-1.26001,0.719971-2.59997,1.27002-4,1.630009V44
		c0,2.209141-1.790859,4-3.999989,4h-0.000011c-2.209141,0-4-1.790859-4-4V30.782831
		c0-2.090137,1.694283-3.783394,3.783169-3.783394c0.003321,0,0.007019,0.000006,0.010342,0.000015l0.20649,0.000549
		c1.340031,0,2.599979-0.330021,3.71003-0.92005c0.09997-0.03997,0.199951-0.09997,0.28997-0.159971
		c1.219971-0.689999,2.22998-1.700008,2.93-2.919979l0.01882-0.032749c0.679186-1.181641,1.924257-1.844315,3.201061-1.844294
		c0.623383,0.000011,1.254379,0.157993,1.830679,0.490673l8.23941,4.756359l1.27002-4.369989
		C41.162148,21.39238,41.680317,21.087292,42.199402,21.087339 M42.199596,19.087341c-0.000107,0,0.000053,0-0.000031,0
		c-1.47316-0.000139-2.732559,0.95125-3.133831,2.36742l-0.554565,1.908113l-6.030724-3.481354
		c-0.859631-0.496239-1.838421-0.758539-2.830551-0.75856c-2.034439-0.000029-3.92544,1.09111-4.935061,2.847631
		c-0.542839,0.94598-1.296638,1.69792-2.19945,2.20854l-0.063721,0.036039l-0.052677,0.035112l-0.032032,0.012808l-0.09564,0.05084
		c-0.85647,0.45524-1.788879,0.686069-2.77133,0.686069l-0.20116-0.00054c-3.204519-0.000021-5.79884,2.5944-5.79884,5.783369V44
		c0,3.308411,2.691589,6,6,6s6-2.691589,6-6v-8.030895c1.028467-0.363613,2.030209-0.82291,2.992241-1.372612
		c0.874496-0.508217,1.700224-1.085674,2.471207-1.727108l1.546967,0.890598l-1.394943,1.456749
		c-0.919811,0.962658-1.166691,2.316441-0.645802,3.534611c0.51667,1.208267,1.68959,1.988991,2.988163,1.988991
		c0.232517,0,0.467709-0.025002,0.699036-0.074303l12.870045-2.765663c0.88298-0.172184,1.64209-0.716141,2.087166-1.497307
		c0.440426-0.772999,0.523125-1.691093,0.229568-2.52747l-4.040127-12.529409
		C44.868553,19.995575,43.620975,19.087563,42.199596,19.087341L42.199596,19.087341L42.199596,19.087341z"/>
</g>
</svg>
