<?xml version="1.0" encoding="utf-8"?>
<!-- Generator: Adobe Illustrator 26.3.1, SVG Export Plug-In . SVG Version: 6.00 Build 0)  -->
<svg version="1.2" baseProfile="tiny" id="Layer_1" xmlns="http://www.w3.org/2000/svg" xmlns:xlink="http://www.w3.org/1999/xlink"
	 x="0px" y="0px" viewBox="0 0 50 50" overflow="visible" xml:space="preserve">
<g>
	<path d="M29,24.929993v8.48999l-1.700012-2.950012c-1.140015-1.97998-0.320007-4.409973,1.660034-5.519958
		C28.97998,24.940002,28.98999,24.940002,29,24.929993z"/>
	<path d="M28.039978,37.72998L29,37.450012v3.889954L27.950012,41l-1.369995-0.440002
		c-1.190002-0.390015-1.160034-2.080017,0.039978-2.419983L28.039978,37.72998z"/>
	<path fill="#FFFFFF" d="M30.02002,22l-2.040039,1.200012C27.090027,23.719971,26.059998,24,25,24
		c-1.039978,0-2.039978-0.27002-2.919983-0.77002l-0.090027-0.049988L19,21.419983v1.869995
		c0.570007,0.650024,1.25,1.200012,2,1.630005c0.619995,0.359985,1.289978,0.640015,2,0.830017
		c0.640015,0.159973,1.309998,0.25,2,0.25c1.460022,0,2.830017-0.390015,4-1.080017v19.080021
		C29,46.209141,27.209141,48,25.000004,48h-0.000008C22.790859,48,21,46.209141,21,44.000004V33.47998
		c-0.690002-0.179993-1.359985-0.400024-2-0.669983v11.19001C19,47.313713,21.686289,50,24.999994,50h0.000011
		C28.313711,50,31,47.313713,31,44.000008V21.419983L30.02002,22z"/>
	<path d="M27.299988,30.469971L29,33.419983v4.030029l-0.960022,0.279968l-1.419983,0.410034
		c-1.200012,0.339966-1.22998,2.029968-0.039978,2.419983L27.950012,41L29,41.339966v2.660038
		C29,46.209141,27.209141,48,25.000004,48h-0.000008C22.790859,48,21,46.209141,21,44.000004V33.47998
		c-0.690002-0.179993-1.359985-0.400024-2-0.669983v-9.52002c0.570007,0.650024,1.25,1.200012,2,1.630005
		c0.619995,0.359985,1.289978,0.640015,2,0.830017c0.640015,0.159973,1.309998,0.25,2,0.25c1.460022,0,2.830017-0.390015,4-1.080017
		v0.01001c-0.01001,0.01001-0.02002,0.01001-0.039978,0.02002C26.97998,26.059998,26.159973,28.48999,27.299988,30.469971z"/>
</g>
<g>
	<path d="M43.330017,30.890015l-2.77002,12.889954c-0.119995,0.660034-0.799988,1.049988-1.429993,0.820007L31,41.97998l-2-0.640015
		L27.950012,41l-1.369995-0.440002c-1.190002-0.390015-1.160034-2.080017,0.039978-2.419983l1.419983-0.410034L29,37.450012
		l1.98999-0.580017L29,33.419983l-1.700012-2.950012c-1.140015-1.97998-0.320007-4.409973,1.660034-5.519958
		c0.019958-0.01001,0.029968-0.01001,0.039978-0.02002c0.76001-0.440002,1.440002-1,2-1.650024
		c0.289978-0.329956,0.549988-0.679993,0.780029-1.049988c0.049988-0.080017,0.089966-0.150024,0.139954-0.22998
		c0.01001-0.01001,0.02002-0.030029,0.02002-0.040039c0.130005-0.209961,0.23999-0.429993,0.340027-0.659973
		c0.099976-0.210022,0.189941-0.419983,0.259949-0.640015c0.040039-0.089966,0.070007-0.190002,0.090027-0.279968
		c0.080017-0.220032,0.140015-0.450012,0.190002-0.679993c0.049988-0.210022,0.080017-0.430054,0.109985-0.640015
		c0-0.02002,0.01001-0.040039,0.01001-0.059998c0.01001-0.059998,0.01001-0.109985,0.01001-0.170044
		C32.969971,18.719971,32.97998,18.609985,32.97998,18.5C33.01001,17.969971,33,17.429993,32.919983,16.869995
		c-0.47998-3.540039-3.389954-6.390015-6.940002-6.809998C25.650024,10.019958,25.320007,10,25,10c-4.419983,0-8,3.579956-8,8
		c0,2.029968,0.76001,3.890015,2,5.289978v9.52002c-6.679993-2.730042-11.159973-9.869995-9.73999-17.720032
		C10.440002,8.579956,15.659973,3.390015,22.179993,2.25C23.130005,2.079956,24.070007,2,25,2
		c4.390015,0,8.390015,1.799988,11.289978,4.709961C36.650024,7.059998,37,7.450012,37.330017,7.849976
		C37.48999,8.049988,37.650024,8.25,37.809998,8.450012c0.309998,0.409973,0.599976,0.839966,0.859985,1.279968
		C40.150024,12.149963,41,14.97998,41,18c0,0.339966-0.01001,0.669983-0.030029,1c-0.069946,1.019958-0.22998,2.019958-0.47998,3
		c-0.75,2.890015-2.299988,5.519958-4.459961,7.579956l1.889954,3.290039l3.290039-3.160034
		C42.109985,28.849976,43.590027,29.669983,43.330017,30.890015z"/>
	<path fill="#FFFFFF" d="M25,0c-1.049988,0-2.119995,0.089966-3.169983,0.279968
		C14.469971,1.570007,8.630005,7.380005,7.299988,14.72998C5.710022,23.450012,10.789978,32.029968,19,34.959961
		c0.48999,0.170044,0.98999,0.330017,1.5,0.460022l0.5,0.130005V33.47998c-0.690002-0.179993-1.359985-0.400024-2-0.669983
		c-6.679993-2.730042-11.159973-9.869995-9.73999-17.720032C10.440002,8.579956,15.659973,3.390015,22.179993,2.25
		C23.130005,2.079956,24.070007,2,25,2c4.390015,0,8.390015,1.799988,11.289978,4.709961
		C36.650024,7.070007,37,7.450012,37.330017,7.849976C37.48999,8.049988,37.650024,8.25,37.809998,8.450012
		c0.309998,0.409973,0.599976,0.839966,0.859985,1.279968C40.150024,12.149963,41,14.97998,41,18
		c0,0.339966-0.01001,0.669983-0.030029,1c-0.069946,1.019958-0.22998,2.019958-0.47998,3h2.049988
		c0.230042-0.980042,0.369995-1.98999,0.429993-3C42.98999,18.669983,43,18.329956,43,18C43,8.070007,34.929993,0,25,0z
		 M25.97998,10.059998C25.650024,10.019958,25.320007,10,25,10c-4.419983,0-8,3.579956-8,8c0,2.029968,0.76001,3.890015,2,5.289978
		c0.570007,0.650024,1.25,1.200012,2,1.630005c0.619995,0.359985,1.289978,0.640015,2,0.830017v-1.98999l-0.919983-0.530029
		l-0.090027-0.049988C20.150024,22.130005,19,20.140015,19,18c0-3.309998,2.690002-6,6-6c0.25,0,0.5,0.01001,0.75,0.039978
		c2.650024,0.320007,4.830017,2.460022,5.190002,5.100037C31.030029,17.769958,31.02002,18.399963,30.909973,19
		c-0.119995,0.76001-0.399963,1.48999-0.819946,2.159973C29.909973,21.459961,29.700012,21.73999,29.450012,22h2.469971
		c0.01001-0.01001,0.02002-0.030029,0.02002-0.040039c0.130005-0.209961,0.23999-0.429993,0.340027-0.659973
		c0.099976-0.210022,0.189941-0.419983,0.259949-0.640015c0.040039-0.089966,0.070007-0.190002,0.090027-0.279968
		c0.080017-0.220032,0.140015-0.450012,0.190002-0.679993c0.039978-0.210022,0.080017-0.420044,0.109985-0.640015
		c0-0.02002,0.01001-0.040039,0.01001-0.059998c0.01001-0.059998,0.01001-0.109985,0.01001-0.170044
		C32.969971,18.719971,32.97998,18.609985,32.97998,18.5C33.01001,17.969971,33,17.429993,32.919983,16.869995
		C32.440002,13.329956,29.530029,10.47998,25.97998,10.059998z"/>
</g>
<path fill="#FFFFFF" d="M45.289978,31.309998L42.52002,44.179993c-0.280029,1.440002-1.540039,2.48999-3.02002,2.48999
	c-0.340027,0-0.679993-0.059998-1.01001-0.179993l-11.149963-3.590027l-1.380005-0.440002
	c-1.380005-0.449951-2.290039-1.72998-2.26001-3.169983c0.029968-1.450012,0.98999-2.679993,2.369995-3.070007l1.409973-0.409973
	l0.51001-0.150024l-2.419983-4.200012c-0.789978-1.359985-1-2.959961-0.580017-4.47998
	C25.429993,25.399963,26.52002,24.019958,28,23.200012C28.549988,22.880005,29.039978,22.469971,29.450012,22h2.469971
	c-0.049988,0.079956-0.089966,0.149963-0.139954,0.22998C31.099976,23.339966,30.140015,24.269958,29,24.929993
	c-0.01001,0.01001-0.02002,0.01001-0.039978,0.02002c-1.980042,1.109985-2.800049,3.539978-1.660034,5.519958l3.690002,6.400024
	l-2.950012,0.859985l-1.419983,0.410034c-1.200012,0.339966-1.22998,2.029968-0.039978,2.419983L27.950012,41l11.179993,3.599976
	c0.119995,0.049988,0.25,0.070007,0.369995,0.070007c0.51001,0,0.960022-0.359985,1.059998-0.890015l2.77002-12.889954
	c0.190002-0.870056-0.51001-1.540039-1.26001-1.540039c-0.289978,0-0.600037,0.109985-0.859985,0.359985l-3.290039,3.160034
	l-1.889954-3.290039C38.190002,27.519958,39.73999,24.890015,40.48999,22h2.049988
	c-0.529968,2.309998-1.509949,4.48999-2.880005,6.419983l0.170044-0.159973c0.609985-0.580017,1.409973-0.910034,2.23999-0.910034
	c0.98999,0,1.950012,0.460022,2.570007,1.22998C45.26001,29.339966,45.48999,30.339966,45.289978,31.309998z"/>
</svg>
