<?xml version="1.0" encoding="utf-8"?>
<!-- Generator: Adobe Illustrator 26.3.1, SVG Export Plug-In . SVG Version: 6.00 Build 0)  -->
<svg version="1.2" baseProfile="tiny" id="Layer_1" xmlns="http://www.w3.org/2000/svg" xmlns:xlink="http://www.w3.org/1999/xlink"
	 x="0px" y="0px" viewBox="0 0 50 50" overflow="visible" xml:space="preserve">
<g>
	<path d="M25,49c-2.756836,0-5-2.243164-5-5V13h10v31C30,46.756836,27.756836,49,25,49z"/>
	<path fill="#FFFFFF" d="M29,14v30c0,2.209141-1.790859,4-4,4s-4-1.790859-4-4V14H29 M31,12h-2h-8h-2v2v30
		c0,3.308411,2.691589,6,6,6s6-2.691589,6-6V14V12L31,12z"/>
</g>
<g>
	<path d="M36.371094,19.000977c-0.216797-0.000488-0.436523-0.027344-0.654297-0.080566L25,16.282715L14.282715,18.92041
		c-0.216797,0.053223-0.437012,0.080566-0.654297,0.080566c-1.029785,0-1.971191-0.621582-2.397949-1.583496
		c-0.428223-0.963867-0.251953-2.05127,0.459473-2.838379L23.19043,1.862793C23.626465,1.348145,24.293457,1.039551,25,1.039551
		s1.374023,0.308594,1.831055,0.847168L38.30957,14.579102c0.711914,0.787598,0.887695,1.875,0.459961,2.838867
		C38.342773,18.379395,37.401367,19.000977,36.371094,19.000977L36.371094,19.000977z"/>
	<path fill="#FFFFFF" d="M25,2.039271c0.394188,0,0.788376,0.16487,1.068041,0.49461l11.500158,12.71629
		c0.988937,1.093518,0.147999,2.750562-1.196537,2.750562c-0.133911,0-0.273003-0.016472-0.415592-0.051561L25,15.252931
		l-10.95607,2.69624c-0.142685,0.035114-0.281597,0.051561-0.415593,0.051561c-1.344377,0-2.185406-1.657116-1.196537-2.750562
		l11.500159-12.71629C24.211624,2.204141,24.605812,2.039271,25,2.039271 M25,0.039271
		c-0.987993,0-1.921803,0.426573-2.568338,1.171841L10.94844,13.90867c-0.98049,1.08417-1.222679,2.584129-0.63209,3.91452
		c0.58722,1.322809,1.88726,2.17754,3.31199,2.17754c0.29762,0,0.59823-0.03684,0.89348-0.109489L25,17.312607l10.478142,2.578625
		c0.295269,0.072659,0.59589,0.109499,0.893517,0.109499c1.424793,0,2.724854-0.85471,3.312061-2.17749
		c0.590591-1.330379,0.348362-2.83035-0.632149-3.914559L27.568216,1.210975C26.921698,0.465858,25.987892,0.039271,25,0.039271
		L25,0.039271z"/>
</g>
</svg>
