<?xml version="1.0" encoding="utf-8"?>
<!-- Generator: Adobe Illustrator 26.3.1, SVG Export Plug-In . SVG Version: 6.00 Build 0)  -->
<svg version="1.2" baseProfile="tiny" id="Layer_1" xmlns="http://www.w3.org/2000/svg" xmlns:xlink="http://www.w3.org/1999/xlink"
	 x="0px" y="0px" viewBox="0 0 50 50" overflow="visible" xml:space="preserve">
<path fill="#999999" d="M31.974775,4.5c8.559996,0,15.499998,6.940002,15.499998,15.5s-6.940002,15.5-15.499998,15.5
	s-15.5-6.940002-15.5-15.5S23.414778,4.5,31.974775,4.5z M31.974775,28.5c4.690001,0,8.499998-3.809998,8.499998-8.5
	s-3.809998-8.5-8.499998-8.5s-8.5,3.809998-8.5,8.5S27.284773,28.5,31.974775,28.5z"/>
<g>
	<path d="M31.977539,49c-2.756836,0-5-2.243164-5-5V31.706055C26.977539,29.111328,29.09668,27,31.702148,27
		c3.384766,0,6.30957-2.187012,7.052734-5.199707c0.536133-2.175781,0.076172-4.404297-1.262695-6.11377
		C36.154297,13.979004,34.144531,13,31.976562,13c-0.367188,0-0.742188,0.028809-1.112305,0.084961
		c-3.356445,0.513184-5.886719,3.612793-5.886719,7.209473C24.977539,22.88916,22.866699,25,20.271973,25h-5.828613
		l0.785156,3.19043c0.168457,0.679688,0.022461,1.381836-0.401855,1.924805c-0.433105,0.553711-1.109375,0.883789-1.809082,0.883789
		l0,0c-0.549805,0-1.084473-0.207031-1.505859-0.583008l-9.785156-8.854492C1.286133,21.183105,1.022461,20.60791,1.022461,20
		s0.263672-1.183105,0.723145-1.578125l9.76123-8.833496c0.42627-0.380371,0.960938-0.587402,1.51123-0.587402
		c0.699219,0,1.375488,0.330566,1.808594,0.883789c0.424316,0.54248,0.570312,1.244141,0.401367,1.925781L14.443359,15h1.288574
		c0.815918-2.643066,2.267578-5.056152,4.228516-7.01709C23.126953,4.816406,27.506836,3,31.977539,3
		c4.469727,0,8.849609,1.816406,12.016602,4.98291C47.161133,11.149902,48.977539,15.529785,48.977539,20
		c0,4.469727-1.816406,8.849609-4.983398,12.016602c-1.960938,1.960938-4.374023,3.413086-7.016602,4.229492V44
		C36.977539,46.756836,34.734375,49,31.977539,49z"/>
	<path fill="#FFFFFF" d="M31.977478,4c4.23999,0,8.310001,1.69,11.310001,4.69s4.689999,7.070011,4.689999,11.31
		s-1.689999,8.309999-4.689999,11.309999c-2.039978,2.03998-4.570011,3.469969-7.310001,4.179991V44c0,2.209145-1.790855,4-4,4
		s-4-1.790855-4-4V31.705566c0-2.046522,1.6584-3.705566,3.724888-3.705566h0.097813
		c3.674053,0.000011,7.045666-2.3934,7.925632-5.960522c1.308308-5.303465-2.663925-10.039461-7.748306-10.039461
		c-0.414497,0-0.837173,0.031563-1.264183,0.096828c-3.944511,0.602889-6.735855,4.207311-6.735844,8.197633v0.000011
		C23.977478,22.340988,22.318466,24,20.271967,24h-7.104489l1.090034,4.429989
		c0.217283,0.876425-0.483502,1.569204-1.239813,1.569204c-0.287878,0-0.583816-0.100382-0.840209-0.329216l-9.779967-8.849966
		c-0.5-0.43-0.5-1.210022,0-1.640022l9.779967-8.850034c0.256393-0.228815,0.552289-0.329175,0.840168-0.329175
		c0.75631,0,1.457137,0.692807,1.239854,1.569231L13.167478,16h3.320012c0.710022-2.739989,2.140011-5.270022,4.179989-7.31
		C23.667479,5.69,27.73749,4,31.977478,4 M31.977478,2C27.2439,2,22.6061,3.922956,19.253267,7.275789
		c-1.162338,1.162332-2.155775,2.474886-2.956678,3.896322c-0.016598-0.686207-0.250303-1.351129-0.682456-1.90351
		c-0.621088-0.793867-1.591733-1.267822-2.596478-1.267822c-0.795744,0-1.567056,0.297244-2.171844,0.836988l-9.776484,8.846815
		C0.403679,18.269148,0.022522,19.111206,0.022522,20s0.381121,1.73082,1.046769,2.315388l9.766253,8.837557
		c0.615,0.548956,1.386344,0.846245,2.182156,0.846245c1.004733,0,1.975367-0.473946,2.596444-1.267801
		c0.615045-0.786133,0.828122-1.800377,0.584599-2.782654L15.719248,26h4.552719c3.146032,0,5.705511-2.559477,5.705511-5.705511
		c-0.000011-3.107344,2.165867-5.781622,5.038021-6.2206c0.320667-0.049011,0.644323-0.073867,0.962002-0.073867
		c1.857975,0,3.581078,0.839389,4.727455,2.302934c1.165234,1.487621,1.548454,3.354767,1.079067,5.2575
		C37.149433,24.132912,34.632866,26.000011,31.800188,26h-0.097822c-3.15671,0-5.724888,2.559511-5.724888,5.705566V44
		c0,3.308411,2.691589,6,6,6s6-2.691589,6-6v-7.032719c2.522514-0.894226,4.824127-2.342979,6.724213-4.243069
		C48.054523,29.371378,49.977478,24.733578,49.977478,20s-1.922955-9.371378-5.275787-12.724211
		C41.348854,3.922956,36.711056,2,31.977478,2L31.977478,2z"/>
</g>
</svg>
