<?xml version="1.0" encoding="utf-8"?>
<!-- Generator: Adobe Illustrator 26.3.1, SVG Export Plug-In . SVG Version: 6.00 Build 0)  -->
<svg version="1.2" baseProfile="tiny" id="Layer_1" xmlns="http://www.w3.org/2000/svg" xmlns:xlink="http://www.w3.org/1999/xlink"
	 x="0px" y="0px" viewBox="0 0 50 50" overflow="visible" xml:space="preserve">
<g>
	<path d="M11.944824,48.999023c-2.716797,0-5.012207-2.392578-5.012207-5.224609V26.476562
		c0-3.481445,1.873047-6.725586,4.887695-8.466797L29.888672,7.57373l5,8.662109l-16.476074,9.516113
		c-0.912598,0.527344-1.47998,1.510742-1.47998,2.564453V44c0,1.323242-0.517578,2.578125-1.45752,3.532227
		c-0.900391,0.887695-2.069824,1.40332-3.302734,1.461914c-0.076172,0.003906-0.151367,0.004883-0.227051,0.004883H11.944824z"/>
	<path fill="#FFFFFF" d="M29.522661,8.94l4.000002,6.93l-15.609991,9.016299c-1.22529,0.707731-1.98004,2.01527-1.98004,3.430262V44
		c0,1.099979-0.45001,2.099979-1.16998,2.82996c-0.68741,0.677979-1.61417,1.116558-2.638371,1.16547
		c-0.060009,0.002865-0.119558,0.004276-0.17898,0.004276c-2.220585,0-4.01268-1.980133-4.01268-4.225235l0.00001-17.297701
		c0-3.135431,1.672451-6.03277,4.38754-7.60095L29.522661,8.94 M30.254732,6.20754l-1.73237,1.00058l-17.20249,9.93582
		c-3.32297,1.919279-5.38724,5.495409-5.38724,9.33283l-0.00001,17.297701c0,3.374428,2.75347,6.225239,6.01268,6.225239
		c0.09114,0,0.18248-0.002159,0.27452-0.006561c1.47986-0.070667,2.88173-0.688351,3.947241-1.739239
		c1.145479-1.16114,1.76557-2.664928,1.76557-4.25391V28.316561c0-0.698332,0.37565-1.349112,0.98037-1.6984l15.609982-9.0163
		l1.73135-1.000021l-0.999512-1.731649l-4-6.93L30.254732,6.20754L30.254732,6.20754z"/>
</g>
<g>
	<path d="M35.15918,26.056641c-1.189453,0-2.209961-0.766113-2.541016-1.907227l-3.074219-10.599609l-7.643066-7.962891
		c-0.746094-0.777344-0.94873-1.873535-0.527832-2.859863c0.418945-0.98291,1.365723-1.618164,2.413086-1.618164
		c0.190918,0,0.385254,0.020996,0.577637,0.0625l16.763184,3.601562c0.664062,0.119629,1.264648,0.542969,1.618164,1.155273
		c0.353516,0.611816,0.418945,1.344238,0.180664,2.009766l-5.250977,16.287109
		C37.31543,25.337891,36.327148,26.056641,35.15918,26.056641z"/>
	<path fill="#FFFFFF" d="M23.785866,2.109047c0.11894-0.000017,0.241768,0.012786,0.368114,0.03993l16.762722,3.60127
		c0.850788,0.15465,1.359497,1.03577,1.068039,1.8499l-5.26255,16.317579c-0.245617,0.761593-0.904671,1.139366-1.563408,1.139366
		c-0.675842,0-1.351353-0.397512-1.580051-1.186005l-3.14303-10.836361l-7.813049-8.1401
		C21.589508,3.818231,22.412693,2.109245,23.785866,2.109047 M23.786152,0.109047h-0.00029
		c-1.448431,0.00021-2.756681,0.87399-3.332911,2.22605c-0.580231,1.36143-0.301741,2.87286,0.726789,3.94445l7.472223,7.785006
		l3.005926,10.363664c0.456081,1.57242,1.86298,2.62888,3.500893,2.62888c1.586468,0,2.979687-1.014919,3.466869-2.52549
		l5.254932-16.293968c0.321957-0.932417,0.224442-1.954276-0.269474-2.809751
		c-0.493977-0.855581-1.330376-1.451013-2.298996-1.638321L24.574072,0.193597
		C24.312872,0.137487,24.047802,0.109047,23.786152,0.109047L23.786152,0.109047z"/>
</g>
</svg>
