<?xml version="1.0" encoding="utf-8"?>
<!-- Generator: Adobe Illustrator 26.3.1, SVG Export Plug-In . SVG Version: 6.00 Build 0)  -->
<svg version="1.2" baseProfile="tiny" id="Layer_1" xmlns="http://www.w3.org/2000/svg" xmlns:xlink="http://www.w3.org/1999/xlink"
	 x="0px" y="0px" viewBox="0 0 50 50" overflow="visible" xml:space="preserve">
<path fill="#999999" d="M0.080046,11.579956c0,1.02002,0.389954,2.040039,1.169983,2.830017l16.75,16.75v-0.47998
	c0-2.660034,1.049988-5.200012,2.929993-7.080017l0.419983-0.409973L6.910002,8.75c-1.569946-1.559998-4.099976-1.559998-5.659973,0
	C0.47,9.529968,0.080046,10.549988,0.080046,11.579956z"/>
<g>
	<path d="M22,49c-2.756836,0-5-2.243164-5-5V30.674805c0-2.939453,1.14502-5.703613,3.224609-7.782227L35.969727,7.15625
		l7.075195,7.062988L28.196289,29.067383C27.424805,29.839844,27,30.866211,27,31.957031V44C27,46.756836,24.756836,49,22,49z"/>
	<path fill="#FFFFFF" d="M35.970001,8.570004l5.66003,5.64997L27.489723,28.360283
		c-0.953831,0.953831-1.489691,2.247511-1.489691,3.596441v12.04328c0,2.209141-1.790859,4-4,4h-0.00001
		c-2.209141,0-3.99999-1.790859-3.99999-4V30.675055c0-2.653971,1.05467-5.199171,2.931831-7.075291L35.970001,8.570004
		 M35.969143,5.743224l-1.41296,1.41217l-15.038139,15.02976c-2.268621,2.26737-3.518011,5.282469-3.518011,8.489901v13.324949
		c0,3.308411,2.69158,6,5.99999,6c3.30842,0,6.00001-2.691589,6.00001-6v-12.04328c0-0.824341,0.321011-1.59934,0.9039-2.18223
		l14.14031-14.14031l1.415482-1.41547l-1.416733-1.41421l-5.66003-5.64997L35.969143,5.743224L35.969143,5.743224z"/>
</g>
<g>
	<path d="M45.446289,23.271484c-0.921875,0-1.761719-0.477539-2.246094-1.276855l-5.712891-9.443848l-9.443359-5.713379
		c-1.016602-0.614746-1.485352-1.755859-1.195312-2.907715c0.291016-1.152344,1.245117-1.935059,2.430664-1.994629
		c0,0,17.226562-0.866211,17.291992-0.866211c0.666992,0,1.30957,0.282715,1.763672,0.774902
		C48.787109,2.335449,49.015625,3,48.960938,3.666504l-0.857422,17.091797
		C48.03125,22.190918,46.889648,23.271484,45.446289,23.271484z"/>
	<path fill="#FFFFFF" d="M46.571007,2.06897c0.808781-0.000013,1.460911,0.692776,1.393322,1.51526L47.104401,20.70785
		c-0.049232,0.980259-0.848595,1.56369-1.65797,1.56369c-0.527534,0-1.059315-0.247831-1.390461-0.79517l-5.84058-9.65364
		L28.56175,5.98215c-1.3871-0.83921-0.850639-2.96711,0.76852-3.04842l17.123629-0.85994
		C46.493248,2.070557,46.532318,2.068971,46.571007,2.06897 M46.57103,0.06897c-0.080265,0-0.16119,0.00283-0.242626,0.008605
		L29.229959,0.93625C27.61993,1.0171,26.27342,2.12166,25.879341,3.68481c-0.394081,1.56315,0.267849,3.17406,1.64712,4.00853
		l9.232523,5.585798l5.585796,9.232522c0.666721,1.10198,1.82621,1.75988,3.10165,1.75988
		c1.952251,0,3.557919-1.52129,3.655449-3.463369l0.858685-17.098797c0.065735-0.93124-0.257668-1.856257-0.890614-2.543353
		C48.4277,0.46883,47.51688,0.06897,46.57103,0.06897L46.57103,0.06897z"/>
</g>
</svg>
