<?xml version="1.0" encoding="utf-8"?>
<!-- Generator: Adobe Illustrator 26.3.1, SVG Export Plug-In . SVG Version: 6.00 Build 0)  -->
<svg version="1.2" baseProfile="tiny" id="Layer_1" xmlns="http://www.w3.org/2000/svg" xmlns:xlink="http://www.w3.org/1999/xlink"
	 x="0px" y="0px" viewBox="0 0 50 50" overflow="visible" xml:space="preserve">
<path fill="#999999" d="M25,13.253835c-8.559998,0-15.5,6.940003-15.5,15.500001S16.440002,44.253834,25,44.253834
	s15.5-6.940002,15.5-15.499998S33.559998,13.253835,25,13.253835z M25,37.253834c-4.690002,0-8.5-3.809998-8.5-8.499998
	s3.809998-8.5,8.5-8.5s8.5,3.809998,8.5,8.5S29.690002,37.253834,25,37.253834z"/>
<g>
	<path d="M24.760254,48.994141c-1.23291-0.058594-2.402344-0.574219-3.29248-1.452148
		c-0.693848-0.704102-1.161133-1.577148-1.358887-2.516602C12.945801,42.856445,8,36.257812,8,28.75c0-9.374023,7.625977-17,17-17
		c1.158203,0,2.300781,0.116699,3.40625,0.347656l0.949219-1.642578l-3.15332-0.914551
		c-0.964844-0.283691-1.618164-1.147949-1.629395-2.152344c-0.011719-1.016113,0.605957-1.87207,1.57373-2.180664
		l12.545898-4.049316c0.201172-0.070312,0.433594-0.109863,0.667969-0.109863c1.001953,0,1.861328,0.714844,2.042969,1.700195
		l2.764648,12.871582c0.148438,0.663574-0.008789,1.351074-0.431641,1.878418
		c-0.432617,0.539551-1.101562,0.861816-1.789062,0.861816c-0.580078,0-1.133789-0.228027-1.5625-0.641113l-2.367188-2.273926
		l-3.298828,5.716309c-0.790039,1.368652-2.264648,2.21875-3.84668,2.21875c-0.793945,0-1.576172-0.215332-2.261719-0.62207
		l-0.123047-0.078613c-0.354492-0.20459-0.717773-0.373535-1.066406-0.495117c-0.12793-0.051758-0.192383-0.07666-0.262695-0.094238
		c-0.44043-0.144043-0.84668-0.233398-1.282227-0.288086c-0.134766-0.018066-0.261719-0.025879-0.396973-0.03418
		C25.321777,21.759277,25.161133,21.75,25,21.75c-0.022461,0-0.044434,0-0.066895,0
		c-0.103516,0-0.206055,0.000488-0.303711,0.007324C20.905273,21.960938,18,25.031738,18,28.75
		c0,2.494141,1.341309,4.817383,3.5,6.063477l0.134277,0.073242c0.080078,0.044922,0.15918,0.089844,0.239258,0.126953
		c0.72998,0.364258,1.478027,0.59082,2.246582,0.683594c0.134277,0.017578,0.259766,0.025391,0.393066,0.03418
		C24.676758,35.741211,24.838379,35.75,25,35.75s0.323242-0.008789,0.484863-0.017578
		c0.135254-0.009766,0.260742-0.017578,0.385742-0.033203c0.193848-0.026367,0.361816-0.037109,0.527832-0.037109
		C28.417969,35.662109,30,37.207031,30,39.178711v4.595703c0,2.832031-2.294922,5.224609-5.012207,5.224609h-0.000488
		C24.911621,48.999023,24.836426,48.998047,24.760254,48.994141z"/>
	<path fill="#FFFFFF" d="M39.360813,2.048259c0.50481-0.000025,0.962063,0.35569,1.059166,0.881739l2.77002,12.899956
		c0.192219,0.861358-0.502518,1.530238-1.243408,1.530238c-0.2999,0-0.60725-0.109505-0.86657-0.360193l-3.290043-3.160033
		l-1.869999,3.239989l-2.0676,3.58161c-0.636833,1.103165-1.793404,1.718725-2.980774,1.718725
		c-0.596245,0-1.200098-0.155109-1.750128-0.481613l-0.031454-0.018667C29.059999,21.859987,29.030033,21.839964,29,21.820009
		c-0.400023-0.230045-0.820011-0.429989-1.25-0.580023c-0.120001-0.049988-0.229979-0.090021-0.349977-0.119989
		c-0.450012-0.150021-0.920044-0.25-1.400023-0.309999c-0.150023-0.020021-0.29999-0.030033-0.460022-0.040045
		C25.359989,20.76001,25.179989,20.749998,25,20.749998c-0.150023,0-0.29999,0-0.440001,0.010012
		C20.340023,20.989986,17,24.489986,17,28.749998c0,2.959967,1.609989,5.54999,4,6.929998
		c0.150023,0.080013,0.29999,0.169979,0.45001,0.23999c0.779968,0.390011,1.640013,0.659966,2.54999,0.770012
		c0.150023,0.019966,0.29999,0.029976,0.460022,0.039978c0.179989,0.01001,0.359989,0.02002,0.539978,0.02002
		s0.359989-0.01001,0.539978-0.02002C25.70001,36.719975,25.849977,36.709965,26,36.689999
		c0.0091-0.001091,0.018299-0.002266,0.027599-0.003513c0.124804-0.016647,0.248924-0.024761,0.371197-0.024761
		c1.405807,0,2.601204,1.06926,2.601204,2.516872l0.000011,4.595879c0,2.245102-1.792103,4.225235-4.012695,4.225235
		c-0.059422,0-0.118963-0.001415-0.178972-0.00428c-1.024189-0.048908-1.950954-0.487488-2.638367-1.165478
		c-0.669977-0.679989-1.099966-1.589966-1.159966-2.589966C14.140011,42.450008,9,36.149963,9,28.749998
		c0-8.770023,7.219967-16,16-16c1.320011,0,2.629999,0.159978,3.900023,0.489988l1.959967-3.390011l-4.380011-1.270022
		c-1.190001-0.349977-1.219967-2.039978-0.029968-2.419978L39,2.109987C39.120163,2.068031,39.241833,2.048265,39.360813,2.048259
		 M39.360855,0.048253h-0.000187c-0.347103,0.000033-0.690258,0.058411-1.019936,0.173511L25.835789,4.256631
		C24.4678,4.693453,23.555944,5.95752,23.572578,7.40022c0.016666,1.446022,0.958288,2.6912,2.3431,3.098478l1.367846,0.396622
		C26.532497,10.798673,25.769474,10.749998,25,10.749998c-9.925234,0-18,8.074766-18,18
		c0,7.761126,4.990458,14.603907,12.282843,17.060644c0.286062,0.902943,0.784338,1.734726,1.462469,2.423
		c1.085754,1.071156,2.487621,1.688831,3.967632,1.75951c0.091978,0.004402,0.183277,0.006557,0.274378,0.006557
		c3.259211,0,6.01269-2.850811,6.01269-6.225235L31,39.178596c0-2.490608-2.064089-4.516876-4.6012-4.516876
		c-0.211201,0-0.425045,0.014233-0.635599,0.04232c-0.131668,0.017357-0.236368,0.022858-0.347956,0.029823
		C25.285933,34.74102,25.142977,34.749996,25,34.749996c-0.142979,0-0.285933-0.008976-0.428911-0.016933
		c-0.097921-0.006165-0.202621-0.011665-0.307234-0.025589c-0.679367-0.082298-1.317144-0.275188-1.919367-0.576321
		l-0.024189-0.012089l-0.024511-0.011444c-0.058489-0.02729-0.116144-0.061298-0.174633-0.093788l-0.135105-0.073971
		C20.143671,32.869431,19,30.882381,19,28.749998c0-3.1873,2.490044-5.819723,5.668833-5.992956
		c0.090752-0.006281,0.168007-0.007202,0.241289-0.007202c0.030418,0,0.060141,0.000158,0.089878,0.000158
		c0.142044,0,0.284056,0.008867,0.4261,0.01671c0.100401,0.006311,0.204901,0.011778,0.309322,0.025711
		c0.385201,0.048223,0.726889,0.123178,1.032078,0.224922l0.073145,0.024389l0.07481,0.018679
		c0.019646,0.006033,0.041555,0.015833,0.065456,0.025787l0.054478,0.022701l0.055721,0.019432
		c0.273848,0.095554,0.562325,0.228315,0.858276,0.394951l0.00808,0.005383l0.043945,0.029312l0.067944,0.041988
		c0.8708,0.516901,1.829,0.780323,2.802244,0.780323c1.938902,0,3.74478-1.04179,4.712877-2.718822l2.0676-3.5816l0.593834-1.028885
		l1.448689,1.391441c0.610546,0.590244,1.411968,0.917767,2.251991,0.917767c0.988865,0,1.949711-0.462267,2.570255-1.236546
		c0.613522-0.765511,0.841377-1.7603,0.625145-2.729278L42.380028,2.531662
		C42.096825,1.090414,40.832832,0.048253,39.360855,0.048253L39.360855,0.048253z"/>
</g>
</svg>
