<?xml version="1.0" encoding="utf-8"?>
<!-- Generator: Adobe Illustrator 26.3.1, SVG Export Plug-In . SVG Version: 6.00 Build 0)  -->
<svg version="1.2" baseProfile="tiny" id="Layer_1" xmlns="http://www.w3.org/2000/svg" xmlns:xlink="http://www.w3.org/1999/xlink"
	 x="0px" y="0px" viewBox="0 0 50 50" overflow="visible" xml:space="preserve">
<path fill="#999999" d="M25,13.253835c-8.559998,0-15.5,6.940003-15.5,15.500001S16.440002,44.253834,25,44.253834
	s15.5-6.940002,15.5-15.499998S33.559998,13.253835,25,13.253835z M25,37.253834c-4.690002,0-8.5-3.809998-8.5-8.499998
	s3.809998-8.5,8.5-8.5s8.5,3.809998,8.5,8.5S29.690002,37.253834,25,37.253834z"/>
<g>
	<path d="M24.760254,48.994141c-1.23291-0.058594-2.402344-0.574219-3.29248-1.452148
		c-0.70166-0.711914-1.169922-1.586914-1.363281-2.524414C12.944336,42.851562,8,36.255859,8,28.75
		c0-4.429199,1.749512-8.700684,4.825195-11.843262l-0.843262-1.461426l-2.369141,2.275879
		c-0.425293,0.411133-0.97998,0.63916-1.55957,0.63916c-0.687988,0-1.356934-0.322266-1.789551-0.861816
		c-0.422852-0.527344-0.57959-1.214844-0.429688-1.88623l2.768555-12.89209C8.778809,1.763184,9.637695,1.04834,10.63916,1.04834
		c0.234863,0,0.466797,0.039551,0.69043,0.117188l12.527344,4.042969c0.964355,0.307617,1.582031,1.163574,1.570801,2.179688
		c-0.011719,1.003906-0.664551,1.868652-1.625488,2.151367l-3.158203,0.915527l2.856934,4.947266
		c0.710449,1.230469,0.896484,2.666504,0.523438,4.04248s-1.258789,2.520996-2.494141,3.224121
		c-0.985352,0.569336-1.80127,1.345703-2.388672,2.26123C18.392578,26.071289,18,27.389648,18,28.75
		c0,2.49707,1.340332,4.81543,3.497559,6.052734c0.282715,0.165039,0.548828,0.299805,0.798828,0.405273
		c0.268066,0.116211,0.543457,0.211914,0.856445,0.296875C23.755371,35.666992,24.377441,35.75,25,35.75
		c2.833008,0,5,2.100586,5,4.783203v3.241211c0,2.832031-2.294922,5.224609-5.012207,5.224609h-0.000488
		C24.911621,48.999023,24.836426,48.998047,24.760254,48.994141z"/>
	<path fill="#FFFFFF" d="M10.639188,2.048259c0.119016,0,0.240613,0.019759,0.360816,0.061728l12.54999,4.049989
		c1.189999,0.38,1.160032,2.07-0.029978,2.419978l-4.380001,1.270022l3.4949,6.052311
		c1.192022,2.064289,0.472368,4.718122-1.599234,5.897411l-0.035677,0.020311
		c-1.090033,0.629999-2.020021,1.509945-2.70001,2.570011c-0.820011,1.25-1.29999,2.75-1.29999,4.359978
		c0,2.959967,1.609978,5.54999,4,6.919989c0.289978,0.169979,0.599966,0.330009,0.909967,0.460022
		c0.320011,0.139946,0.650023,0.25,0.980043,0.339966c0.669979,0.179989,1.380001,0.280022,2.109989,0.280022
		c0.014601,0,0.029188-0.000031,0.043766-0.000111c0.007509-0.000038,0.015173-0.000057,0.022673-0.000061
		c2.148319-0.00008,3.933561,1.632393,3.933561,3.783253v3.241398c0,2.245102-1.792103,4.225235-4.012684,4.225235
		c-0.059422,0-0.118963-0.001415-0.178972-0.00428c-1.024199-0.048908-1.950954-0.487488-2.638367-1.165478
		c-0.669977-0.679989-1.109987-1.589966-1.159966-2.599976h-0.010012c-6.87-1.789978-12-8.080013-12-15.479979
		c0-4.480045,1.88-8.700012,5.080011-11.670044l-1.869989-3.239989l-3.290044,3.160033
		c-0.259268,0.250635-0.566734,0.360193-0.866574,0.360193c-0.740961,0-1.435639-0.668806-1.243415-1.530238L9.580015,2.929998
		C9.677119,2.403988,10.134418,2.048259,10.639188,2.048259 M10.639193,0.048253c-1.471807,0-2.735722,1.042046-3.019142,2.483007
		L4.85457,15.410065c-0.2128,0.953333,0.015056,1.948122,0.628556,2.713612c0.620533,0.774265,1.581389,1.236511,2.570278,1.236511
		c0.777523,0,1.521957-0.280582,2.116278-0.793938c-2.042302,2.968155-3.169678,6.525431-3.169678,10.183748
		c0,7.757994,4.988085,14.597635,12.2766,17.051855c0.28397,0.902447,0.784172,1.737011,1.468712,2.431789
		c1.085754,1.071156,2.487633,1.688831,3.967632,1.75951c0.091978,0.004402,0.183279,0.006557,0.274366,0.006557
		c3.259212,0,6.01269-2.850811,6.01269-6.225235v-3.241398c0-3.188892-2.661699-5.783245-5.933378-5.783245l-0.066622,0.000164
		c-0.533289,0-1.068611-0.071163-1.591089-0.211533c-0.259899-0.070866-0.490421-0.150299-0.697599-0.240898
		c-0.235245-0.098911-0.467644-0.216858-0.699911-0.353001c-1.863934-1.068546-3.0114-3.055256-3.0114-5.194567
		c0-1.165045,0.336201-2.293344,0.972267-3.262945c0.512844-0.799299,1.210443-1.462633,2.028532-1.935455
		c1.492535-0.8496,2.545279-2.21031,2.988646-3.845301c0.443356-1.634977,0.222267-3.34111-0.622555-4.804144l-2.218603-3.842076
		l1.928701-0.559245c1.392134-0.4094,2.333755-1.65459,2.350433-3.100612c0.016634-1.4427-0.895222-2.706767-2.269043-3.145466
		L11.614226,0.206642C11.329493,0.106631,10.986293,0.048253,10.639193,0.048253L10.639193,0.048253z"/>
</g>
</svg>
