<?xml version="1.0" encoding="utf-8"?>
<!-- Generator: Adobe Illustrator 26.3.1, SVG Export Plug-In . SVG Version: 6.00 Build 0)  -->
<svg version="1.2" baseProfile="tiny" id="Layer_1" xmlns="http://www.w3.org/2000/svg" xmlns:xlink="http://www.w3.org/1999/xlink"
	 x="0px" y="0px" viewBox="0 0 50 50" overflow="visible" xml:space="preserve">
<g>
	<path fill="#1A1A1A" d="M43,49c-2.756836,0-5-2.243164-5-5V19.5c0-4.687012-3.813477-8.5-8.5-8.5c-4.687012,0-8.5,3.812988-8.5,8.5
		V39H11V19.5C11,9.298828,19.298828,1,29.5,1S48,9.298828,48,19.5V44C48,46.756836,45.756836,49,43,49z"/>
	<path fill="#FFFFFF" d="M29.500023,2C39.164989,2,47,9.835011,47,19.499977V44c0,2.209145-1.790855,4-4,4s-4-1.790855-4-4
		V19.499989C39,14.253289,34.746712,10,29.500011,10h-0.000023C24.253288,10,20,14.253289,20,19.499989V38h-8V19.499977
		C12,9.835011,19.835011,2,29.499977,2H29.500023 M29.500023,0C18.747677,0,10,8.747656,10,19.499977V38v2h2h8h2v-2V19.499989
		C22,15.364478,25.364477,12,29.499989,12C33.635509,12,37,15.364478,37,19.499989V44c0,3.308411,2.691589,6,6,6s6-2.691589,6-6
		V19.499977C49,8.747656,40.252346,0,29.500023,0L29.500023,0z"/>
</g>
<g>
	<path d="M16,47.458984c-0.706543,0-1.373535-0.308594-1.830566-0.847656L2.689941,33.918945
		c-0.711426-0.786133-0.887695-1.874023-0.459961-2.837891c0.427246-0.960938,1.368164-1.583008,2.397949-1.583008
		c0.217285,0,0.437988,0.027344,0.655273,0.081055L16,32.21582l10.716797-2.636719
		c0.217773-0.053711,0.4375-0.081055,0.655273-0.081055c1.029297,0,1.970703,0.621094,2.397461,1.583008
		c0.427734,0.963867,0.251953,2.050781-0.458984,2.837891l-11.5,12.716797C17.374023,47.150391,16.706543,47.458984,16,47.458984z"
		/>
	<path fill="#FFFFFF" d="M27.371662,30.497841c1.344536-0.000153,2.185474,1.657043,1.196537,2.750561l-11.500158,12.71629
		C16.788376,46.29443,16.394188,46.459301,16,46.459301s-0.788376-0.164871-1.068041-0.49461L3.4318,33.248402
		c-0.988869-1.093445-0.14784-2.750561,1.196537-2.750561c0.133996,0,0.272908,0.016445,0.415593,0.051559L16,33.24564
		L26.95607,30.5494C27.09866,30.514313,27.237751,30.497856,27.371662,30.497841 M27.371841,28.497841h-0.000153
		c-0.297737,0.000021-0.59837,0.036861-0.893539,0.109501L16,31.185966L5.52186,28.607342
		c-0.29529-0.07266-0.595901-0.109501-0.89352-0.109501c-1.424729,0-2.72477,0.854731-3.31199,2.17754
		c-0.59059,1.330391-0.3484,2.830353,0.63208,3.91452L13.431662,47.28746C14.078197,48.03273,15.012007,48.459301,16,48.459301
		c0.987892,0,1.921698-0.426586,2.568216-1.171703l11.483343-12.697697c0.98053-1.084221,1.22274-2.584221,0.63213-3.914639
		C30.0965,29.352531,28.79652,28.497841,27.371841,28.497841L27.371841,28.497841z"/>
</g>
</svg>
