<?xml version="1.0" encoding="utf-8"?>
<!-- Generator: Adobe Illustrator 26.3.1, SVG Export Plug-In . SVG Version: 6.00 Build 0)  -->
<svg version="1.2" baseProfile="tiny" id="Layer_1" xmlns="http://www.w3.org/2000/svg" xmlns:xlink="http://www.w3.org/1999/xlink"
	 x="0px" y="0px" viewBox="0 0 50 50" overflow="visible" xml:space="preserve">
<path fill="#999999" d="M30.499966,3.499994c8.559998,0,15.5,6.940002,15.5,15.5s-6.940002,15.499998-15.5,15.499998
	s-15.5-6.940001-15.5-15.499998S21.939968,3.499994,30.499966,3.499994z M30.499966,27.499994c4.690002,0,8.5-3.809998,8.5-8.5
	s-3.809998-8.5-8.5-8.5s-8.5,3.809998-8.5,8.5S25.809963,27.499994,30.499966,27.499994z"/>
<g>
	<path d="M30.5,49c-2.756836,0-5-2.243164-5-5V30.945312C25.5,28.21875,27.71875,26,30.445312,26
		c1.295898,0,2.50293-0.325684,3.546875-0.941406c2.558594-1.466797,3.892578-4.30957,3.410156-7.249512
		c-0.490234-2.982422-3.033203-5.404297-6.044922-5.758301C31.067383,12.016602,30.782227,12,30.5,12
		c-3.726562,0-6.797852,2.913086-6.991699,6.632324C23.499023,18.766113,23.5,18.883301,23.5,19
		c0,1.23584,0.323242,2.445312,0.93457,3.497559c1.286133,2.23291,0.529785,5.052246-1.665039,6.320801L16.125,32.657227
		l2.266113,2.360352c0.64209,0.664062,0.818359,1.604492,0.458496,2.453125c-0.355957,0.839844-1.164551,1.381836-2.060059,1.381836
		l0,0c-0.167969,0-0.337891-0.018555-0.505371-0.055664L3.390137,36.027344C2.821289,35.922852,2.304199,35.558594,2,35.03418
		c-0.305664-0.525391-0.365234-1.157227-0.164551-1.733398l4.042969-12.527832
		c0.304199-0.953125,1.149902-1.570801,2.15332-1.570801c1.016602,0,1.891602,0.65332,2.177734,1.625488l0.916504,3.167969
		l2.724609-1.572754C13.617676,21.290527,13.5,20.142578,13.5,19c0-9.374023,7.625977-17,17-17
		c0.994141,0,2.00293,0.088379,2.99707,0.262695c6.952148,1.219238,12.467773,6.703125,13.723633,13.645996
		c1.53125,8.467285-3.583008,16.80127-11.720703,19.325684V44C35.5,46.756836,33.256836,49,30.5,49z"/>
	<path fill="#FFFFFF" d="M30.499933,3.00002c0.925982,0.000066,1.870462,0.080439,2.824503,0.247758
		c6.511234,1.141922,11.734932,6.334089,12.911922,12.839077c1.558701,8.614666-3.979813,16.372145-11.736389,18.393122V44
		c0,2.209133-1.790867,3.999989-4,3.999989h-0.000011c-2.209133,0-3.999989-1.790855-3.999989-3.999989V30.945555
		c0-2.17248,1.774359-3.945852,3.94557-3.945692c0.003452,0,0.007198,0.000006,0.010651,0.000015L30.499969,27
		c1.460022,0,2.830009-0.390022,4-1.080023c2.748177-1.5753,4.465023-4.76371,3.888721-8.27281
		c-0.566113-3.447001-3.44569-6.181789-6.914955-6.589756c-0.328491-0.038629-0.653124-0.057396-0.973785-0.057396
		c-4.279816,0-7.770018,3.350123-7.989971,7.579941c-0.01001,0.140011-0.01001,0.280022-0.01001,0.420044
		c0,1.459955,0.390011,2.829956,1.07,4l0.018978,0.032944c0.988043,1.715345,0.394077,3.929123-1.319923,4.919512
		l-7.749044,4.477533l3.149967,3.279964c0.799057,0.826633,0.172548,2.142441-0.880152,2.142441
		c-0.093462,0-0.190346-0.01038-0.289825-0.032394L3.599946,35.049976c-0.649967-0.119987-1.039978-0.789978-0.819956-1.419975
		L6.82998,21.079956c0.187616-0.587492,0.694504-0.877611,1.201835-0.877611c0.52025,0,1.040965,0.305151,1.218154,0.907633
		L10.519979,25.5l4.469978-2.580023C14.669947,21.649956,14.499969,20.329956,14.499969,19
		C14.499969,10.219601,21.719397,2.99939,30.499933,3.00002 M30.498766,1.000022c-4.780531,0-9.292549,1.879586-12.705753,5.292911
		C14.379746,9.706322,12.499969,14.21911,12.499969,19c0,0.970467,0.080163,1.944405,0.239004,2.909986l-1.007348,0.58143
		l-0.560433-1.937239c-0.414701-1.410124-1.675323-2.351833-3.139379-2.351833c-1.424977,0-2.673611,0.911921-3.107044,2.269188
		L0.876646,33.015778c-0.282478,0.807098-0.193878,1.742477,0.258278,2.521076
		c0.445284,0.766777,1.197016,1.302097,2.066447,1.473122l12.878709,2.765446c0.22661,0.05019,0.4695,0.076977,0.709711,0.076977
		c1.297434,0,2.467434-0.781876,2.980722-1.991943c0.511322-1.205421,0.251255-2.595165-0.662567-3.54052l-1.377985-1.43486
		l5.539675-3.20092c2.671932-1.5439,3.592621-4.975433,2.052366-7.649454c-0.545679-0.939268-0.822033-1.974945-0.822033-3.0347
		c0-0.092466-0.00169-0.184956,0.004921-0.277401c0.168123-3.225966,2.800423-5.722589,5.995056-5.722589
		c0.244534,0,0.493567,0.014711,0.740177,0.043712c2.57951,0.303333,4.755901,2.375677,5.174999,4.927567
		c0.41449,2.523767-0.727665,4.962723-2.909767,6.213545C32.593502,24.72241,31.561646,25,30.499969,25l-0.054434,1.999866
		l0.000154-2c-1.584433-0.000122-3.076466,0.619167-4.201254,1.74379c-1.124935,1.124765-1.744467,2.617033-1.744467,4.201899V44
		c0,3.308399,2.691587,5.999989,5.999989,5.999989c3.308422,0,6.000011-2.691589,6.000011-5.999989v-8.044941
		c8.204765-2.923603,13.281631-11.507391,11.704433-20.224293C46.873901,8.377333,41.032936,2.569144,33.669914,1.277844
		c-1.05069-0.184278-2.117178-0.277744-3.169834-0.277822l-0.000145,2l0.000145-2
		C30.499788,1.000022,30.499058,1.000022,30.498766,1.000022L30.498766,1.000022z"/>
</g>
</svg>
