<?xml version="1.0" encoding="utf-8"?>
<!-- Generator: Adobe Illustrator 26.3.1, SVG Export Plug-In . SVG Version: 6.00 Build 0)  -->
<svg version="1.2" baseProfile="tiny" id="Layer_1" xmlns="http://www.w3.org/2000/svg" xmlns:xlink="http://www.w3.org/1999/xlink"
	 x="0px" y="0px" viewBox="0 0 50 50" overflow="visible" xml:space="preserve">
<g>
	<path d="M21.000048,24.929993v8.48999l1.700012-2.950012c1.140015-1.97998,0.320007-4.409973-1.660034-5.519958
		C21.020067,24.940002,21.010057,24.940002,21.000048,24.929993z"/>
	<path d="M21.96007,37.72998l-0.960022-0.279968v3.889954L22.050035,41l1.369995-0.440002
		c1.190002-0.390015,1.160034-2.080017-0.039978-2.419983L21.96007,37.72998z"/>
	<path fill="#FFFFFF" d="M19.980028,22l2.040039,1.200012C22.910021,23.719971,23.94005,24,25.000048,24
		c1.039978,0,2.039978-0.27002,2.919983-0.77002l0.090027-0.049988l2.98999-1.76001v1.869995
		c-0.570007,0.650024-1.25,1.200012-2,1.630005c-0.619995,0.359985-1.289978,0.640015-2,0.830017
		c-0.640015,0.159973-1.309998,0.25-2,0.25c-1.460022,0-2.830017-0.390015-4-1.080017v19.080021
		C21.000048,46.209141,22.790907,48,25.000044,48h0.000008c2.209137,0,3.999996-1.790859,3.999996-3.999996V33.47998
		c0.690002-0.179993,1.359985-0.400024,2-0.669983v11.19001C31.000048,47.313713,28.313759,50,25.000053,50h-0.000011
		c-3.313705,0-5.999994-2.686287-5.999994-5.999992V21.419983L19.980028,22z"/>
	<path d="M22.70006,30.469971l-1.700012,2.950012v4.030029l0.960022,0.279968l1.419983,0.410034
		c1.200012,0.339966,1.22998,2.029968,0.039978,2.419983L22.050035,41l-1.049988,0.339966v2.660038
		C21.000048,46.209141,22.790907,48,25.000044,48h0.000008c2.209137,0,3.999996-1.790859,3.999996-3.999996V33.47998
		c0.690002-0.179993,1.359985-0.400024,2-0.669983v-9.52002c-0.570007,0.650024-1.25,1.200012-2,1.630005
		c-0.619995,0.359985-1.289978,0.640015-2,0.830017c-0.640015,0.159973-1.309998,0.25-2,0.25
		c-1.460022,0-2.830017-0.390015-4-1.080017v0.01001c0.01001,0.01001,0.02002,0.01001,0.039978,0.02002
		C23.020067,26.059998,23.840075,28.48999,22.70006,30.469971z"/>
</g>
<g>
	<path d="M6.670031,30.890015l2.77002,12.889954c0.119995,0.660034,0.799988,1.049988,1.429993,0.820007l8.130004-2.619995
		l2-0.640015L22.050035,41l1.369995-0.440002c1.190002-0.390015,1.160034-2.080017-0.039978-2.419983L21.96007,37.72998
		l-0.960022-0.279968l-1.98999-0.580017l1.98999-3.450012l1.700012-2.950012c1.140015-1.97998,0.320007-4.409973-1.660034-5.519958
		c-0.019958-0.01001-0.029968-0.01001-0.039978-0.02002c-0.76001-0.440002-1.440002-1-2-1.650024
		c-0.289978-0.329956-0.549988-0.679993-0.780029-1.049988C18.170031,22.149963,18.130053,22.079956,18.080065,22
		c-0.01001-0.01001-0.02002-0.030029-0.02002-0.040039c-0.130005-0.209961-0.23999-0.429993-0.340027-0.659973
		c-0.099976-0.210022-0.189941-0.419983-0.259949-0.640015c-0.040039-0.089966-0.070007-0.190002-0.090027-0.279968
		c-0.080017-0.220032-0.140015-0.450012-0.190002-0.679993c-0.049988-0.210022-0.080017-0.430054-0.109985-0.640015
		c0-0.02002-0.01001-0.040039-0.01001-0.059998c-0.01001-0.059998-0.01001-0.109985-0.01001-0.170044
		c-0.019958-0.109985-0.029968-0.219971-0.029968-0.329956c-0.030029-0.530029-0.02002-1.070007,0.059998-1.630005
		c0.47998-3.540039,3.389954-6.390015,6.940002-6.809998C24.350023,10.019958,24.68004,10,25.000048,10
		c4.419983,0,8.000002,3.579956,8.000002,8c0,2.029968-0.76001,3.890015-2.000002,5.289978v9.52002
		c6.679995-2.730042,11.159975-9.869995,9.739992-17.720032C39.560047,8.579956,34.340076,3.390015,27.820055,2.25
		C26.870043,2.079956,25.93004,2,25.000048,2c-4.390015,0-8.390015,1.799988-11.289977,4.709961
		c-0.360046,0.350037-0.710022,0.740051-1.040039,1.140015C12.510058,8.049988,12.350024,8.25,12.190051,8.450012
		c-0.309998,0.409973-0.599976,0.839966-0.859985,1.279968C9.850024,12.149963,9.000049,14.97998,9.000049,18
		c0,0.339966,0.01001,0.669983,0.030029,1c0.069946,1.019958,0.22998,2.019958,0.47998,3
		c0.75,2.890015,2.299988,5.519958,4.459961,7.579956l-1.889954,3.290039l-3.290039-3.160034
		C7.890063,28.849976,6.410021,29.669983,6.670031,30.890015z"/>
	<path fill="#FFFFFF" d="M25.000048,0c1.049988,0,2.119995,0.089966,3.169983,0.279968
		c7.360048,1.290039,13.200014,7.100037,14.530031,14.450012c1.589966,8.720032-3.48999,17.299988-11.700014,20.22998
		c-0.48999,0.170044-0.98999,0.330017-1.5,0.460022l-0.5,0.130005V33.47998c0.690002-0.179993,1.359985-0.400024,2-0.669983
		c6.679995-2.730042,11.159975-9.869995,9.739992-17.720032C39.560047,8.579956,34.340076,3.390015,27.820055,2.25
		C26.870043,2.079956,25.93004,2,25.000048,2c-4.390015,0-8.390015,1.799988-11.289977,4.709961
		c-0.360046,0.360046-0.710022,0.740051-1.040039,1.140015C12.510058,8.049988,12.350024,8.25,12.190051,8.450012
		c-0.309998,0.409973-0.599976,0.839966-0.859985,1.279968C9.850024,12.149963,9.000049,14.97998,9.000049,18
		c0,0.339966,0.01001,0.669983,0.030029,1c0.069946,1.019958,0.22998,2.019958,0.47998,3H7.46007
		c-0.230042-0.980042-0.369995-1.98999-0.429993-3c-0.02002-0.330017-0.030029-0.670044-0.030029-1
		C7.000048,8.070007,15.070056,0,25.000048,0z M24.020067,10.059998C24.350023,10.019958,24.68004,10,25.000048,10
		c4.419983,0,8.000002,3.579956,8.000002,8c0,2.029968-0.76001,3.890015-2.000002,5.289978
		c-0.570007,0.650024-1.25,1.200012-2,1.630005c-0.619995,0.359985-1.289978,0.640015-2,0.830017v-1.98999l0.919983-0.530029
		l0.090027-0.049988c1.839966-1.049988,2.98999-3.039978,2.98999-5.179993c0-3.309998-2.690002-6-6-6
		c-0.25,0-0.5,0.01001-0.75,0.039978c-2.650024,0.320007-4.830017,2.460022-5.190002,5.100037
		C18.970018,17.769958,18.980028,18.399963,19.090075,19c0.119995,0.76001,0.399963,1.48999,0.819946,2.159973
		C20.090075,21.459961,20.300035,21.73999,20.550035,22h-2.469971c-0.01001-0.01001-0.02002-0.030029-0.02002-0.040039
		c-0.130005-0.209961-0.23999-0.429993-0.340027-0.659973c-0.099976-0.210022-0.189941-0.419983-0.259949-0.640015
		c-0.040039-0.089966-0.070007-0.190002-0.090027-0.279968c-0.080017-0.220032-0.140015-0.450012-0.190002-0.679993
		c-0.039978-0.210022-0.080017-0.420044-0.109985-0.640015c0-0.02002-0.01001-0.040039-0.01001-0.059998
		c-0.01001-0.059998-0.01001-0.109985-0.01001-0.170044c-0.019958-0.109985-0.029968-0.219971-0.029968-0.329956
		c-0.030029-0.530029-0.02002-1.070007,0.059998-1.630005C17.560045,13.329956,20.470018,10.47998,24.020067,10.059998z"/>
</g>
<path fill="#FFFFFF" d="M4.71007,31.309998l2.769958,12.869995c0.280029,1.440002,1.54004,2.48999,3.02002,2.48999
	c0.340027,0,0.679993-0.059998,1.01001-0.179993l11.149962-3.590027l1.380005-0.440002
	c1.380005-0.449951,2.290039-1.72998,2.26001-3.169983c-0.029968-1.450012-0.98999-2.679993-2.369995-3.070007l-1.409973-0.409973
	l-0.51001-0.150024l2.419983-4.200012c0.789978-1.359985,1-2.959961,0.580017-4.47998
	c-0.440002-1.580017-1.530029-2.960022-3.01001-3.779968C21.45006,22.880005,20.96007,22.469971,20.550035,22h-2.469971
	c0.049988,0.079956,0.089966,0.149963,0.139954,0.22998c0.680054,1.109985,1.640015,2.039978,2.780029,2.700012
	c0.01001,0.01001,0.02002,0.01001,0.039978,0.02002c1.980042,1.109985,2.800049,3.539978,1.660034,5.519958l-3.690002,6.400024
	l2.950012,0.859985l1.419983,0.410034c1.200012,0.339966,1.22998,2.029968,0.039978,2.419983L22.050035,41l-11.179992,3.599976
	c-0.119995,0.049988-0.25,0.070007-0.369995,0.070007c-0.51001,0-0.960022-0.359985-1.059998-0.890015l-2.77002-12.889954
	c-0.190002-0.870056,0.51001-1.540039,1.26001-1.540039c0.289979,0,0.600037,0.109985,0.859986,0.359985l3.290039,3.160034
	l1.889954-3.290039C11.810046,27.519958,10.260058,24.890015,9.510058,22H7.46007
	c0.529968,2.309998,1.509949,4.48999,2.880005,6.419983l-0.170044-0.159973c-0.609985-0.580017-1.409973-0.910034-2.239991-0.910034
	c-0.98999,0-1.950012,0.460022-2.570007,1.22998C4.740038,29.339966,4.510058,30.339966,4.71007,31.309998z"/>
</svg>
