<?xml version="1.0" encoding="utf-8"?>
<!-- Generator: Adobe Illustrator 26.3.1, SVG Export Plug-In . SVG Version: 6.00 Build 0)  -->
<svg version="1.2" baseProfile="tiny" id="Layer_1" xmlns="http://www.w3.org/2000/svg" xmlns:xlink="http://www.w3.org/1999/xlink"
	 x="0px" y="0px" viewBox="0 0 50 50" overflow="visible" xml:space="preserve">
<path fill="#999999" d="M0,24.999996v0.000008C0,26.932999,1.567002,28.5,3.499996,28.5H28.5v-7H3.499996
	C1.567002,21.5,0,23.067001,0,24.999996z"/>
<path fill="#999999" d="M28.5,28.5h-7V3.499996C21.5,1.567002,23.067001,0,24.999996,0h0.000008
	C26.932999,0,28.5,1.567002,28.5,3.499996V28.5z"/>
<g>
	<path d="M25.000488,49c-1.200684,0-2.330566-0.46875-3.181152-1.319336S20.5,45.700195,20.5,44.5V28.495117
		C20.5,24.086426,24.086426,20.5,28.495117,20.5h8.197266l-0.703125-2.84082c-0.160156-0.64502-0.020508-1.310059,0.381836-1.824219
		c0.408203-0.522461,1.044922-0.834473,1.704102-0.834473c0.521484,0,1.02832,0.198242,1.425781,0.557617l8.799805,7.959961
		c0.419922,0.355469,0.673828,0.90332,0.673828,1.481934s-0.253906,1.126953-0.698242,1.50293l-8.774414,7.9375
		c-0.397461,0.360352-0.904297,0.558594-1.426758,0.558594c-0.658203,0-1.295898-0.3125-1.704102-0.834961
		c-0.402344-0.513672-0.541992-1.178711-0.381836-1.824219L36.692383,29.5h-6.19043C29.949219,29.5,29.5,29.949219,29.5,30.501953
		v13.898438c0,2.1875-1.499023,4.081055-3.564453,4.503906C25.625488,48.967773,25.311035,49,25.000488,49z"/>
	<path fill="#FFFFFF" d="M38.074711,16.00062c0.259083-0.000027,0.525139,0.091169,0.755302,0.299362l8.799992,7.960032
		c0.460018,0.38995,0.460018,1.08996,0,1.479979l-8.798992,7.95912c-0.230198,0.208225-0.496456,0.299477-0.755585,0.299477
		c-0.679939,0-1.311119-0.628014-1.115406-1.418636l1.009953-4.079948h-7.468012c-1.10565,0-2.001959,0.896309-2.001959,2.001959
		v13.89818c0,1.6702-1.129061,3.189869-2.765371,3.524632c-0.248808,0.050903-0.494654,0.075218-0.734657,0.075218
		c-1.930103,0-3.499971-1.569912-3.499971-3.499989V28.495583c0-3.86356,3.132019-6.995579,6.995579-6.995579h9.474392
		l-1.010262-4.08127C36.764095,16.628466,37.395088,16.000689,38.074711,16.00062 M38.074844,14.000623h-0.00021
		c-0.963402,0.0001-1.894791,0.45537-2.491482,1.217851c-0.59309,0.75789-0.798969,1.73501-0.56485,2.68083l0.396233,1.6007
		h-6.918953c-4.960178,0-8.995579,4.035398-8.995579,8.995579v16.004421c0,3.0327,2.467279,5.499989,5.499969,5.499989
		c0.377861,0,0.759901-0.03896,1.135509-0.115799c2.52898-0.517391,4.364521-2.823761,4.364521-5.484051v-13.89818
		l4.914364-0.001289l-0.395744,1.598711c-0.234188,0.946049-0.028252,1.923389,0.564999,2.6814
		c0.596802,0.762547,1.52832,1.2178,2.49181,1.2178c0.7705,0,1.515301-0.289871,2.09721-0.816223l8.781399-7.943209
		c0.649433-0.565754,1.021011-1.379551,1.020973-2.239309c-0.000031-0.859571-0.371555-1.67317-1.020775-2.238813
		l-8.782574-7.944277C39.589832,14.290463,38.845173,14.000623,38.074844,14.000623L38.074844,14.000623z"/>
</g>
</svg>
