<?xml version="1.0" encoding="utf-8"?>
<!-- Generator: Adobe Illustrator 26.3.1, SVG Export Plug-In . SVG Version: 6.00 Build 0)  -->
<svg version="1.2" baseProfile="tiny" id="Layer_1" xmlns="http://www.w3.org/2000/svg" xmlns:xlink="http://www.w3.org/1999/xlink"
	 x="0px" y="0px" viewBox="0 0 50 50" overflow="visible" xml:space="preserve">
<path fill="#999999" d="M25,15.5c7.460022,0,13.5,6.039978,13.5,13.5c0,7.459961-6.039978,13.5-13.5,13.5S11.5,36.459961,11.5,29
	C11.5,21.539978,17.539978,15.5,25,15.5z M25,36.5c4.140015,0,7.5-3.359985,7.5-7.5s-3.359985-7.5-7.5-7.5s-7.5,3.359985-7.5,7.5
	S20.859985,36.5,25,36.5z"/>
<g>
	<path d="M25,49c-2.481445,0-4.5-2.018555-4.5-4.5v-5c0-2.481445,2.018555-4.5,4.5-4.5
		c1.710938,0,3.344727-0.731445,4.482422-2.007812c1.15332-1.294922,1.677734-2.969727,1.475586-4.71582
		C30.616211,25.317383,27.87207,23,24.710449,23C22.388672,23,20.5,21.111328,20.5,18.789551V13.35791l-2.839844,0.702637
		c-0.175293,0.043457-0.353516,0.06543-0.529785,0.06543h-0.000488c-0.834961,0-1.597656-0.502441-1.942383-1.280273
		c-0.34668-0.780762-0.204102-1.660645,0.371582-2.297363l7.958984-8.799316C23.873535,1.32959,24.421387,1.074707,25,1.074707
		s1.126953,0.254883,1.50293,0.698242l7.9375,8.775391c0.576172,0.63623,0.71875,1.516602,0.37207,2.297363
		c-0.344727,0.777832-1.107422,1.280273-1.942383,1.280273c-0.176758,0-0.354492-0.021973-0.530273-0.06543L29.5,13.35791v1.338867
		c2.291992,0.721191,4.390625,1.988281,6.105469,3.694336C38.44043,21.237793,40,25.003906,40,29
		c0,3.995117-1.55957,7.761719-4.390625,10.605469c-1.71875,1.708984-3.817383,2.976562-6.109375,3.698242V44.5
		C29.5,46.981445,27.481445,49,25,49z"/>
	<path fill="#FFFFFF" d="M25,2.074964c0.272491,0,0.544985,0.115005,0.739996,0.345017l7.959166,8.799044
		c0.685863,0.758245,0.102432,1.907096-0.82946,1.907096c-0.093365,0-0.19025-0.011537-0.289684-0.036151l-4.080023-1.010012
		v3.370056c2.400034,0.619989,4.609991,1.869989,6.400034,3.649967c2.619987,2.629999,4.099968,6.189999,4.099968,9.900021
		c0,3.709955-1.47998,7.269957-4.099968,9.899958c-1.790043,1.780033-4,3.030033-6.400034,3.650032v1.950012
		c0,1.932999-1.566999,3.5-3.499989,3.5h-0.000011c-1.932987,0-3.5-1.567001-3.5-3.5v-5.000011
		c0-1.932991,1.567013-3.499989,3.5-3.499989c4.146011,0,7.442713-3.5924,6.951368-7.838469
		c-0.413601-3.574255-3.642656-6.161543-7.240767-6.161533c-1.773167,0-3.210602-1.437433-3.210602-3.2106v-6.709444
		l-4.080009,1.010012c-0.099501,0.024631-0.196264,0.036151-0.289686,0.036151c-0.931782,0-1.515276-1.148903-0.829458-1.907096
		l7.959166-8.799044C24.455017,2.189969,24.727509,2.074964,25,2.074964 M25.000006,0.074958
		c-0.859585,0-1.673201,0.37146-2.238918,1.020708l-7.943481,8.781702c-0.8449,0.934078-1.053411,2.227034-0.544177,3.374311
		c0.505422,1.138678,1.626811,1.874445,2.856866,1.874445c0.257156,0,0.516323-0.031889,0.770323-0.094767l1.599377-0.395927
		v4.153971c0,2.873135,2.337467,5.2106,5.210602,5.2106c2.661232-0.00001,4.969076,1.928934,5.254021,4.391434
		c0.1688,1.4587-0.267567,2.856144-1.22871,3.934935c-0.947634,1.06361-2.309322,1.673634-3.735912,1.673634
		c-3.032711,0-5.5,2.467289-5.5,5.499989v5.000011c0,3.032711,2.467289,5.5,5.5,5.5s5.5-2.467289,5.5-5.5v-0.480923
		c2.171396-0.795757,4.157717-2.057636,5.810278-3.700947c3.026577-3.03812,4.689724-7.055275,4.689724-11.318132
		c0-4.262899-1.663147-8.280077-4.683056-11.311533c-1.009315-1.003654-2.140404-1.864191-3.360981-2.563551
		c1.196022-0.033502,2.277103-0.761236,2.770668-1.873216c0.509235-1.147266,0.30069-2.440233-0.544231-3.374333l-7.94348-8.7817
		C26.673199,0.446421,25.859592,0.074958,25.000006,0.074958L25.000006,0.074958z"/>
</g>
</svg>
