<?xml version="1.0" encoding="utf-8"?>
<!-- Generator: Adobe Illustrator 26.3.1, SVG Export Plug-In . SVG Version: 6.00 Build 0)  -->
<svg version="1.2" baseProfile="tiny" id="Layer_1" xmlns="http://www.w3.org/2000/svg" xmlns:xlink="http://www.w3.org/1999/xlink"
	 x="0px" y="0px" viewBox="0 0 50 50" overflow="visible" xml:space="preserve">
<path fill="#999999" d="M29.999945,7.499976c8.559996,0,15.499998,6.940002,15.499998,15.5S38.55994,38.499977,29.999945,38.499977
	s-15.5-6.940004-15.5-15.500002S21.439947,7.499976,29.999945,7.499976z M29.999945,31.499975
	c4.690001,0,8.499998-3.809998,8.499998-8.5s-3.809998-8.5-8.499998-8.5s-8.5,3.809998-8.5,8.5
	S25.309942,31.499975,29.999945,31.499975z"/>
<g>
	<path d="M30,49c-2.756836,0-5-2.243164-5-5v-9.054688C25,32.21875,27.21875,30,29.945312,30
		c1.295898,0,2.50293-0.325195,3.546875-0.941406c2.547852-1.459961,3.883789-4.291992,3.414062-7.221191
		c-0.476562-2.976074-3.005859-5.407715-6.012695-5.781738C30.591797,16.018066,30.292969,16,29.999023,16
		c-1.349609,0-2.665039,0.390625-3.805664,1.129395c-0.931152,0.597168-1.709961,1.415039-2.255859,2.367676
		c-0.957031,1.681641-2.722656,2.705566-4.626465,2.705566c-0.92334,0-1.834961-0.244629-2.63623-0.707031l-6.048828-3.491211
		l-0.915527,3.163574c-0.287109,0.976562-1.162109,1.629883-2.178223,1.629883c-0.000488,0-0.000488,0-0.000488,0
		c-1.003418-0.000488-1.849121-0.618164-2.154297-1.57373L1.328125,8.677246C1.134277,8.123047,1.194336,7.490723,1.5,6.964844
		C1.805176,6.44043,2.322266,6.07666,2.918945,5.966797l12.871094-2.76416c0.161621-0.036133,0.332031-0.054688,0.5-0.054688
		c0.89502,0,1.703613,0.54248,2.060059,1.382324c0.359375,0.848145,0.182617,1.788574-0.461426,2.455078L15.623535,9.34375
		l2.536621,1.471191C21.314453,7.746094,25.584961,6,30,6c1.880859,0,3.750977,0.3125,5.55957,0.928223
		c5.745117,1.95752,10.012695,6.883301,11.137695,12.85498c1.604492,8.521484-3.5,16.912109-11.697266,19.452148V44
		C35,46.756836,32.756836,49,30,49z"/>
	<path fill="#FFFFFF" d="M16.289843,4.147589c1.052582,0,1.679104,1.315871,0.88011,2.142387l-3.149966,3.280034l4.31,2.5
		c2.980146-3.190186,7.199699-5.07022,11.669956-5.07c1.727129,0.000085,3.492348,0.280843,5.236977,0.875155
		c5.377399,1.831833,9.426022,6.510244,10.477501,12.092934c1.631477,8.662056-3.922245,16.481621-11.714447,18.511879v5.520031
		c0,2.209133-1.790867,3.999989-3.999998,3.999989h-0.000011c-2.209133,0-4-1.790855-4-3.999989v-9.054455
		c0-2.172482,1.77437-3.945841,3.945583-3.945681c0.00345,0,0.007196,0.000006,0.010651,0.000015l0.043766,0.000111
		c1.460022,0,2.830023-0.390011,4.00001-1.080011c2.739857-1.570534,4.454613-4.744411,3.893879-8.240944
		c-0.552288-3.443857-3.416157-6.185567-6.877388-6.615712c-0.34339-0.042674-0.682405-0.063324-1.016529-0.063324
		c-1.609869,0-3.100021,0.480025-4.349937,1.289969c-1.060001,0.679998-1.950024,1.609989-2.580023,2.710022l-0.020311,0.035677
		c-0.790243,1.387962-2.244873,2.166679-3.738605,2.166679c-0.726875,0-1.463232-0.184544-2.136372-0.573046l-7.1547-4.129311
		L8.749964,20.89002c-0.177205,0.60252-0.697839,0.9076-1.218153,0.9076c-0.507268,0-1.014237-0.290188-1.201825-0.877634
		L2.279997,8.369998C2.059964,7.739986,2.449986,7.070009,3.099941,6.950009l12.900023-2.770011
		C16.09952,4.157963,16.196316,4.147589,16.289843,4.147589 M16.289841,2.147587c-0.240276,0-0.483211,0.0268-0.722054,0.079667
		L2.701213,4.990043C1.831793,5.16108,1.08017,5.69639,0.634908,6.463175c-0.452144,0.7786-0.540733,1.713967-0.243067,2.566267
		l4.0348,12.504766c0.431556,1.351479,1.680178,2.263412,3.105167,2.263412c1.464067,0,2.724689-0.9417,3.136899-2.343302
		l0.562932-1.945827l4.943314,2.853018c0.95311,0.550089,2.037556,0.840843,3.136099,0.840843
		c2.262344,0,4.360878-1.2174,5.476645-3.177122c0.483366-0.844189,1.148811-1.5429,1.942211-2.051867
		c0.985367-0.638489,2.113466-0.973354,3.270023-0.973354c0.254288,0,0.513309,0.016167,0.769865,0.048056
		c2.575266,0.320032,4.740858,2.400833,5.14929,4.947666c0.403168,2.514023-0.740532,4.943399-2.913734,6.189112
		c-0.911831,0.537577-1.943687,0.815155-3.005388,0.815155l-0.054422,1.999878l0.000156-2
		c-1.584435-0.000122-3.076468,0.619165-4.201256,1.743776c-1.124945,1.124767-1.744478,2.617035-1.744478,4.2019v9.054455
		c0,3.308403,2.691589,5.999989,6,5.999989c3.308424,0,6.00001-2.691586,6.00001-5.999989v-4.044537
		c8.264221-2.940678,13.33255-11.583046,11.67989-20.357563c-1.191364-6.325399-5.712109-11.542722-11.798031-13.615911
		c-1.912491-0.6515-3.891413-0.981889-5.88179-0.981989c-4.419647-0.000217-8.702488,1.651698-11.979584,4.578362L17.22691,9.118074
		l1.385565-1.442777c0.909245-0.940545,1.169323-2.330256,0.658012-3.535711
		C18.757208,2.929487,17.587231,2.147587,16.289841,2.147587L16.289841,2.147587z"/>
</g>
</svg>
