<?xml version="1.0" encoding="utf-8"?>
<!-- Generator: Adobe Illustrator 26.3.1, SVG Export Plug-In . SVG Version: 6.00 Build 0)  -->
<svg version="1.2" baseProfile="tiny" id="Layer_1" xmlns="http://www.w3.org/2000/svg" xmlns:xlink="http://www.w3.org/1999/xlink"
	 x="0px" y="0px" viewBox="0 0 50 50" overflow="visible" xml:space="preserve">
<g>
	<path d="M42.380005,30.179993v-17.5C42.380005,6.779968,37.590027,2,31.690002,2H18.309998
		C12.409973,2,7.619995,6.779968,7.619995,12.679993v17.5c0,4.149963,2.630005,7.690002,6.309998,9.049988L7.890015,48h6.429993
		l5.039978-8.179993h11.280029L35.679993,48h6.429993l-6.039978-8.77002C39.75,37.869995,42.380005,34.329956,42.380005,30.179993z
		 M15.289978,34.200012c-1.690002,0-3.070007-1.370056-3.070007-3.070007c0-1.690002,1.380005-3.059998,3.070007-3.059998
		s3.070007,1.369995,3.070007,3.059998C18.359985,32.829956,16.97998,34.200012,15.289978,34.200012z M22.960022,17.519958
		c0,0.740051-0.610046,1.350037-1.350037,1.350037h-8.549988c-0.75,0-1.349976-0.609985-1.349976-1.350037V11.01001
		c0-0.740051,0.599976-1.340027,1.349976-1.340027h8.549988c0.73999,0,1.350037,0.599976,1.350037,1.340027V17.519958z
		 M34.710022,34.200012c-1.690002,0-3.070007-1.370056-3.070007-3.070007c0-1.690002,1.380005-3.059998,3.070007-3.059998
		s3.070007,1.369995,3.070007,3.059998C37.780029,32.829956,36.400024,34.200012,34.710022,34.200012z M38.289978,17.51001
		c0,0.75-0.609985,1.359985-1.349976,1.359985h-8.539978c-0.75,0-1.360046-0.609985-1.360046-1.359985v-6.490051
		c0-0.75,0.610046-1.349976,1.360046-1.349976h8.539978c0.73999,0,1.349976,0.599976,1.349976,1.349976V17.51001z"/>
	<path fill="#FFFFFF" d="M31.694866,2c5.900013,0,10.682911,4.7829,10.682911,10.682911v17.499767
		c0,4.150211-2.627121,7.687065-6.307098,9.046642L42.111988,48h-6.429756l-5.039543-8.177776H19.357311L14.317767,48H7.888011
		l6.0413-8.770679c-3.679966-1.359577-6.307088-4.896431-6.307088-9.046642V12.682911C7.622222,6.7829,12.405122,2,18.305134,2
		H31.694866 M31.694866,0H18.305134C11.311755,0,5.622222,5.689533,5.622222,12.682911v17.499767
		c0,3.998592,2.079547,7.683994,5.361136,9.79781l-4.742425,6.884991L4.081856,50h3.806155h6.429756h1.116766l0.585889-0.950733
		l4.453657-7.227043h9.051842l4.453655,7.227043L34.565468,50h1.116764h6.429756h3.806156l-2.159077-3.134521l-4.742432-6.884987
		c3.281593-2.113819,5.361141-5.799221,5.361141-9.797813V12.682911C44.377777,5.689533,38.688244,0,31.694866,0L31.694866,0z"/>
</g>
</svg>
