<?xml version="1.0" encoding="utf-8"?>
<!-- Generator: Adobe Illustrator 26.3.1, SVG Export Plug-In . SVG Version: 6.00 Build 0)  -->
<svg version="1.2" baseProfile="tiny" id="Layer_1" xmlns="http://www.w3.org/2000/svg" xmlns:xlink="http://www.w3.org/1999/xlink"
	 x="0px" y="0px" viewBox="0 0 50 50" overflow="visible" xml:space="preserve">
<path fill="#999999" d="M0.000004,6.870041l-0.000004,7.049945C18,16.469971,32.369995,30.289978,35.75,48h7.109985
	C39.349976,26.409979,21.870005,9.50001,0.000004,6.870041z"/>
<g>
	<path d="M34.404297,49l-0.15625-0.811523c-1.333008-6.931641-4.478516-13.442383-9.097168-18.827148
		c-0.094238-0.125-0.140625-0.193359-0.20752-0.254883l-0.051758-0.047852l-0.044434-0.053711
		c-0.217285-0.264648-0.453125-0.529297-0.69873-0.792969c-0.373535-0.40332-0.754883-0.803711-1.145996-1.195312
		c-1.984863-1.985352-1.984863-5.167969-0.029297-7.123535L34.560547,8.305176l-2.808594-1.699707
		c-0.861328-0.523438-1.272461-1.528809-1.024414-2.502441c0.25-0.984863,1.068359-1.65332,2.084961-1.702148L46.126953,1.73584
		c0.577148,0,1.132812,0.246094,1.525391,0.675293c0.391602,0.428223,0.585938,1.003418,0.53418,1.578613l-0.657227,13.130371
		c-0.05957,1.227051-1.037109,2.154297-2.273438,2.154297c-0.791992,0.000488-1.513672-0.40918-1.930664-1.094727
		l-1.699219-2.802246l-8.239258,8.22998c5.739258,6.980469,9.527344,15.354492,10.960938,24.233398L44.535156,49H34.404297z"/>
	<path fill="#FFFFFF" d="M46.127048,2.735571c0.616791-0.000029,1.119987,0.537002,1.06295,1.164392l-0.659969,13.170044
		c-0.036312,0.755844-0.650448,1.204626-1.273926,1.204626c-0.407616,0-0.819138-0.191658-1.076107-0.614658l-2.359989-3.890012
		l-9.140011,9.13c-0.369999,0.369999-0.390022,0.95001-0.059998,1.360044c5.5,6.68,9.299988,14.819944,10.739986,23.739988
		h-8.130009c-1.399956-7.280022-4.679991-13.880001-9.320002-19.290033c-0.079956-0.109989-0.169989-0.229979-0.289978-0.339966
		c-0.229977-0.280033-0.479977-0.560001-0.739988-0.840034c-0.380011-0.409966-0.770021-0.82-1.169989-1.219967l-0.030022-0.030033
		c-1.560001-1.559988-1.560001-4.119987,0-5.679989L36.169987,8.109985L32.27002,5.749996
		c-1.070011-0.650022-0.660032-2.290033,0.589966-2.350033l13.170044-0.659978
		C46.062618,2.737023,46.095013,2.735573,46.127048,2.735571 M46.12711,0.735574c-0.075329,0-0.151207,0.002776-0.227505,0.008442
		L32.759888,1.402474c-1.438345,0.069033-2.64649,1.055322-3.002111,2.454033c-0.356646,1.402745,0.235655,2.8506,1.473854,3.6028
		l1.719866,1.040746L22.265787,19.185762c-1.132235,1.132235-1.755789,2.643078-1.755789,4.254211
		s0.623554,3.121979,1.755789,4.254211c0.412054,0.412056,0.784466,0.803801,1.147432,1.195389
		c0.265234,0.285656,0.481134,0.530489,0.66119,0.749733l0.089821,0.109379l0.104322,0.095621
		c-0.00119-0.000795-0.002022-0.001169-0.002531-0.001169c-0.003931-0.000002,0.011221,0.022177,0.026232,0.042814
		l0.047266,0.065033l0.052334,0.061022c4.505121,5.252745,7.573732,11.603502,8.874111,18.365667l0.311966,1.622322h1.652046
		h8.130009h2.348766l-0.374332-2.318745c-1.414165-8.760048-5.076664-17.038383-10.608585-23.998013l6.705467-6.698118
		l1.038773,1.712231c0.600201,0.988022,1.641491,1.577278,2.786034,1.577278c1.750813,0,3.187878-1.365479,3.271622-3.108656
		l0.658249-13.135819c0.061916-0.837261-0.226292-1.670384-0.795025-2.293169
		C47.809765,1.100574,46.984631,0.735574,46.12711,0.735574L46.12711,0.735574z"/>
</g>
</svg>
