<?xml version="1.0" encoding="utf-8"?>
<!-- Generator: Adobe Illustrator 26.3.1, SVG Export Plug-In . SVG Version: 6.00 Build 0)  -->
<svg version="1.2" baseProfile="tiny" id="Layer_1" xmlns="http://www.w3.org/2000/svg" xmlns:xlink="http://www.w3.org/1999/xlink"
	 x="0px" y="0px" viewBox="0 0 50 50" overflow="visible" xml:space="preserve">
<path fill="#999999" d="M50.000004,6.870041l0.000004,7.049945c-18,2.549985-32.369995,16.369991-35.75,34.080013H7.140024
	C10.650033,26.409979,28.130005,9.50001,50.000004,6.870041z"/>
<g>
	<path d="M5.46582,49l0.187012-1.15918c1.433105-8.87793,5.22168-17.251953,10.955078-24.216797l-8.234375-8.245117
		l-1.69873,2.799805c-0.416992,0.686523-1.138672,1.095703-1.930664,1.095703c-1.236816,0-2.213867-0.927246-2.272949-2.156738
		L1.811523,3.950195C1.761719,3.415527,1.956055,2.840332,2.347168,2.411621C2.739746,1.981934,3.295898,1.73584,3.873047,1.73584
		l13.316895,0.665527c1.01416,0.04834,1.83252,0.716309,2.083008,1.70166c0.247559,0.973633-0.163574,1.979004-1.023926,2.501465
		l-2.80957,1.700195l11.587891,11.588379c1.955078,1.955566,1.955078,5.138184,0,7.094238
		c-0.420898,0.419922-0.801758,0.821289-1.17334,1.222656c-0.248047,0.265625-0.483887,0.530273-0.701172,0.794922
		l-0.043945,0.052734l-0.050781,0.047852c-0.066895,0.061523-0.114258,0.129883-0.158691,0.191406
		c-4.668945,5.449219-7.814453,11.959961-9.147461,18.891602L15.596191,49H5.46582z"/>
	<path fill="#FFFFFF" d="M3.87296,2.735571c0.032037,0,0.064432,0.001452,0.097019,0.004414l13.170044,0.659978
		c1.25,0.06,1.659979,1.700011,0.589968,2.350033l-3.899967,2.359989l12.489988,12.489988
		c1.560001,1.560001,1.560001,4.120001,0,5.679989l-0.030022,0.030033c-0.399967,0.399967-0.789978,0.810001-1.169989,1.219967
		c-0.260012,0.280033-0.510012,0.560001-0.739988,0.840034c-0.119989,0.109987-0.210022,0.229977-0.289978,0.339966
		c-4.640011,5.410032-7.920044,12.010012-9.320001,19.290033H6.640023c1.44-8.920044,5.239988-17.059988,10.739989-23.739988
		c0.330021-0.410034,0.309999-0.990046-0.060001-1.360044l-9.14001-9.13l-2.359989,3.890012
		c-0.25697,0.423-0.668489,0.614658-1.076107,0.614658c-0.623477,0-1.237613-0.448782-1.273927-1.204626L2.810012,3.899963
		C2.752975,3.272573,3.25617,2.735571,3.87296,2.735571 M3.872957,0.735574c-0.857556,0-1.682722,0.365-2.263911,1.001422
		c-0.568724,0.622774-0.85693,1.455897-0.795014,2.293159L1.47249,17.170107c0.083533,1.739044,1.5206,3.104523,3.271411,3.104523
		c1.144545,0,2.185833-0.589256,2.785422-1.576267l1.039387-1.713242l6.705296,6.69795
		c-5.526187,6.947243-9.19318,15.231503-10.608416,23.99818l-0.374333,2.318745h2.348767h8.130011h1.652045l0.311966-1.622322
		c1.300379-6.762165,4.36899-13.112923,8.874111-18.365667l0.052334-0.061022l0.047266-0.065033
		c0.016956-0.023312,0.03409-0.04859,0.054789-0.072933l0.104322-0.095634l0.058733-0.078077
		c0.180056-0.219244,0.395956-0.464077,0.660034-0.748499c0.364122-0.392822,0.736534-0.784567,1.118567-1.166601
		c1.162256-1.162254,1.78581-2.6731,1.78581-4.284233s-0.623554-3.121977-1.755789-4.254211L17.048515,8.500056l1.716919-1.03896
		c1.241144-0.753989,1.833445-2.201844,1.476799-3.604589c-0.355621-1.398711-1.563766-2.385-3.006321-2.454245L4.100518,0.744022
		C4.024153,0.738346,3.94823,0.735574,3.872957,0.735574L3.872957,0.735574z"/>
</g>
</svg>
