<?xml version="1.0" encoding="utf-8"?>
<!-- Generator: Adobe Illustrator 26.3.1, SVG Export Plug-In . SVG Version: 6.00 Build 0)  -->
<svg version="1.2" baseProfile="tiny" id="Layer_1" xmlns="http://www.w3.org/2000/svg" xmlns:xlink="http://www.w3.org/1999/xlink"
	 x="0px" y="0px" viewBox="0 0 50 50" overflow="visible" xml:space="preserve">
<path fill="#999999" d="M25,15.5c-7.460022,0-13.5,6.039978-13.5,13.5c0,7.459961,6.039978,13.5,13.5,13.5S38.5,36.459961,38.5,29
	C38.5,21.539978,32.460022,15.5,25,15.5z M25,36.5c-4.140015,0-7.5-3.359985-7.5-7.5s3.359985-7.5,7.5-7.5s7.5,3.359985,7.5,7.5
	S29.140015,36.5,25,36.5z"/>
<g>
	<path d="M25,49c-2.481445,0-4.5-2.018555-4.5-4.5v-1.196289c-2.291992-0.72168-4.389648-1.989258-6.10498-3.694336
		C11.55957,36.762695,10,32.996094,10,29c0-3.996582,1.55957-7.763184,4.391602-10.605469
		c1.718262-1.708984,3.815918-2.976562,6.108398-3.697754V13.35791l-2.839844,0.702637
		c-0.175293,0.043457-0.353516,0.06543-0.530273,0.06543c-0.834961,0-1.597168-0.502441-1.942383-1.279785
		c-0.34668-0.780762-0.204102-1.661133,0.371582-2.297852l7.958984-8.799316C23.873535,1.32959,24.421387,1.074707,25,1.074707
		s1.126953,0.254883,1.50293,0.698242l7.9375,8.775391c0.576172,0.63623,0.71875,1.516602,0.37207,2.297363
		c-0.344727,0.777832-1.107422,1.280273-1.942383,1.280273c-0.176758,0-0.354492-0.021973-0.530273-0.06543L29.5,13.35791v5.431641
		C29.5,21.111328,27.611328,23,25.289551,23c-3.160645,0-5.904785,2.317383-6.247559,5.276367
		c-0.202148,1.746094,0.321777,3.419922,1.475586,4.714844C21.654785,34.267578,23.288574,35,25,35c2.481445,0,4.5,2.018555,4.5,4.5
		v5C29.5,46.981445,27.481445,49,25,49z"/>
	<path fill="#FFFFFF" d="M25,2.074964c0.272491,0,0.544983,0.115005,0.739994,0.345017l7.959167,8.799044
		c0.685814,0.758193,0.102322,1.907096-0.82946,1.907096c-0.093422,0-0.190186-0.01152-0.289684-0.036151l-4.080011-1.010012
		v6.709444c0,1.773167-1.437435,3.2106-3.210602,3.2106c-3.59811-0.00001-6.827166,2.587278-7.240767,6.161533
		c-0.491344,4.246069,2.805357,7.838469,6.951368,7.838469c1.932987,0,3.5,1.566998,3.5,3.499989v5.000011
		c0,1.932999-1.567013,3.5-3.5,3.5h-0.000011c-1.932989,0-3.499989-1.567001-3.499989-3.5v-1.950012
		c-2.400034-0.619999-4.609989-1.869999-6.400034-3.650032c-2.619989-2.630001-4.099967-6.190002-4.099967-9.899958
		c0-3.710022,1.479978-7.270021,4.099967-9.900021c1.790045-1.779978,4-3.029978,6.400034-3.649967v-3.370056l-4.080023,1.010012
		c-0.099434,0.024614-0.196321,0.036151-0.289686,0.036151c-0.93189,0-1.515321-1.148851-0.829458-1.907096l7.959166-8.799044
		C24.455015,2.189969,24.727509,2.074964,25,2.074964 M25.000006,0.074958c-0.859587,0-1.673204,0.371462-2.238922,1.020711
		l-7.943479,8.7817c-0.844922,0.9341-1.053467,2.227067-0.544233,3.374333c0.493504,1.11184,1.574218,1.839527,2.770061,1.873199
		c-1.219044,0.698332-2.348185,1.557037-3.353683,2.556879c-3.026601,3.038145-4.689745,7.055323-4.689745,11.318222
		c0,4.262857,1.663144,8.280012,4.683056,11.311468c1.658122,1.648869,3.645173,2.911652,5.816945,3.707584v0.480949
		c0,3.032711,2.467287,5.5,5.499989,5.5c3.032711,0,5.500011-2.467289,5.500011-5.5v-5.000011
		c0-3.0327-2.467289-5.499989-5.5-5.499989c-1.42659,0-2.788279-0.610023-3.735912-1.673634
		c-0.961143-1.078791-1.397511-2.476234-1.22871-3.934935c0.284945-2.4625,2.592789-4.391443,5.254011-4.391434
		c2.873144,0,5.210611-2.337465,5.210611-5.2106v-4.153969l1.599409,0.395936c0.253967,0.062867,0.513134,0.094756,0.77029,0.094756
		c1.230057,0,2.351444-0.735767,2.856865-1.874445c0.509235-1.147278,0.300724-2.440233-0.544178-3.3743l-7.943478-8.781712
		C26.673197,0.44642,25.859591,0.074958,25.000006,0.074958L25.000006,0.074958z"/>
</g>
</svg>
