<?xml version="1.0" encoding="utf-8"?>
<!-- Generator: Adobe Illustrator 26.3.1, SVG Export Plug-In . SVG Version: 6.00 Build 0)  -->
<svg version="1.2" baseProfile="tiny" id="Layer_1" xmlns="http://www.w3.org/2000/svg" xmlns:xlink="http://www.w3.org/1999/xlink"
	 x="0px" y="0px" viewBox="0 0 50 50" overflow="visible" xml:space="preserve">
<g>
	<path d="M25,49c-1.209473,0-2.339844-0.47168-3.182617-1.329102C20.972168,46.838867,20.5,45.708984,20.5,44.5v-1.196289
		c-2.291992-0.72168-4.389648-1.989258-6.10498-3.694336C11.55957,36.762695,10,32.996094,10,29
		c0-3.996582,1.55957-7.763184,4.391602-10.605469c1.718262-1.708984,3.815918-2.976562,6.108398-3.697754V13.35791
		l-2.839844,0.702637c-0.174805,0.043457-0.352539,0.06543-0.528809,0.06543c-0.833984,0-1.596191-0.50293-1.941895-1.280762
		c-0.34668-0.78125-0.205566-1.660645,0.368164-2.295898l7.960449-8.800293C23.873535,1.32959,24.421387,1.074707,25,1.074707
		s1.126953,0.254883,1.50293,0.698242l7.938477,8.775879c0.575195,0.635742,0.71582,1.515625,0.369141,2.296387
		c-0.345703,0.777832-1.108398,1.280762-1.942383,1.280762c-0.175781,0-0.353516-0.021973-0.52832-0.06543L29.5,13.35791v1.338867
		c2.291992,0.721191,4.390625,1.988281,6.105469,3.694336C38.44043,21.237793,40,25.003906,40,29
		c0,3.995117-1.55957,7.761719-4.390625,10.605469c-1.71875,1.708984-3.817383,2.976562-6.109375,3.698242V44.5
		C29.5,46.981445,27.481445,49,25,49z M25.131836,23.009766c-3.13916,0.070801-5.754883,2.330566-6.088379,5.263672
		c-0.20166,1.750977,0.322266,3.427734,1.476074,4.72168C21.655273,34.269531,23.288574,35,25,35c3.308594,0,6-2.691406,6-6
		C31,25.753906,28.369141,23.070801,25.131836,23.009766z"/>
	<path fill="#FFFFFF" d="M25,2.074964c0.272491,0,0.544983,0.115005,0.739988,0.345017l7.960024,8.79999
		c0.681885,0.754639,0.099041,1.906013-0.831593,1.906013c-0.092964,0-0.189407-0.011492-0.288399-0.036014L28.5,12.079958v3.370056
		c2.400023,0.619989,4.609989,1.869989,6.400021,3.649967C37.520023,21.72998,39,25.28998,39,29.000002
		c0,3.709955-1.479977,7.269957-4.099979,9.899958c-1.790031,1.780033-3.999998,3.030033-6.400021,3.650032v1.950012
		c0,1.929989-1.570011,3.5-3.5,3.5c-0.960022,0-1.840023-0.390022-2.469967-1.030033
		C21.890011,46.33997,21.5,45.459957,21.5,44.500004v-1.950012c-2.400023-0.619999-4.609989-1.869999-6.400023-3.650032
		C12.479978,36.269958,11,32.709957,11,29.000002c0-3.710022,1.479978-7.270021,4.099977-9.900021
		c1.790033-1.779978,4-3.029978,6.400023-3.649967v-3.370056l-4.080023,1.010012
		c-0.099056,0.024539-0.195377,0.036014-0.288399,0.036014c-0.930523,0-1.513429-1.151425-0.831589-1.906013l7.960022-8.79999
		C24.455017,2.189969,24.727509,2.074964,25,2.074964 M25,36.000004c3.870001,0,7-3.130013,7-7.000002
		c0-3.830021-3.059999-6.929998-6.870001-6.989988c-3.539976,0.069944-6.679989,2.630001-7.080009,6.149956
		C17.559999,32.409969,20.849977,36.000004,25,36.000004 M25,0.074958c-0.859587,0-1.673191,0.371461-2.238909,1.02071
		l-7.944336,8.782646c-0.843511,0.933511-1.050533,2.225611-0.540966,3.372833
		c0.493805,1.111732,1.573651,1.839477,2.767954,1.873579c-1.219214,0.69838-2.348376,1.557101-3.353988,2.557065
		C10.663144,20.719913,9,24.737103,9,29.000002c0,4.262869,1.663144,8.280024,4.683078,11.31148
		c1.658095,1.648849,3.645152,2.91164,5.816922,3.707577v0.480946c0,1.479145,0.577822,2.862522,1.627022,3.895298
		C22.137388,49.422157,23.520779,50.000004,25,50.000004c3.032711,0,5.5-2.467289,5.5-5.5v-0.480919
		c2.171394-0.795761,4.157722-2.057652,5.810268-3.700958C39.336857,37.280025,41,33.262871,41,29.000002
		c0-4.262899-1.663143-8.280088-4.683079-11.311544c-1.009296-1.003643-2.140697-1.864356-3.361267-2.563714
		c1.194611-0.033847,2.274727-0.761634,2.768612-1.873563c0.509567-1.147201,0.302525-2.439311-0.540321-3.372078
		l-7.945114-8.783522C26.673141,0.44645,25.859512,0.074958,25,0.074958L25,0.074958z M25,34.000004
		c-1.426777,0-2.787701-0.608791-3.733833-1.670269c-0.961378-1.078588-1.397966-2.478088-1.229334-3.940699
		c0.27669-2.434687,2.46446-4.310081,5.096817-4.37859C27.820246,24.071737,30,26.302675,30,29.000002
		C30,31.757013,27.757011,34.000004,25,34.000004L25,34.000004z"/>
</g>
</svg>
