<?xml version="1.0" encoding="UTF-8" ?>
<!DOCTYPE svg PUBLIC "-//W3C//DTD SVG 1.1//EN" "http://www.w3.org/Graphics/SVG/1.1/DTD/svg11.dtd">
<svg width="512pt" height="512pt" viewBox="0 0 512 512" version="1.1" xmlns="http://www.w3.org/2000/svg">
<g id="#010101ff">
<path fill="#010101" opacity="1.00" d=" M 239.62 21.88 C 276.73 19.32 314.47 25.57 348.61 40.40 C 401.16 62.88 444.78 105.28 468.79 157.13 C 489.86 201.97 495.91 253.61 486.10 302.15 C 479.33 336.36 464.56 368.89 443.66 396.78 C 421.98 425.48 393.82 449.34 361.63 465.47 C 318.37 487.62 268.03 495.42 220.04 487.89 C 175.60 481.17 133.36 461.03 99.90 431.05 C 77.20 410.85 58.48 386.19 45.14 358.89 C 28.82 325.81 20.69 288.78 21.37 251.91 C 21.96 215.53 31.14 179.29 48.18 147.13 C 68.23 108.83 99.07 76.28 136.28 54.26 C 167.54 35.52 203.27 24.41 239.62 21.88 M 238.66 63.90 C 197.69 67.68 157.89 84.69 127.43 112.43 C 122.26 117.61 117.08 122.77 111.91 127.95 C 85.22 157.74 68.20 196.17 64.31 235.99 C 63.31 241.24 64.00 246.62 63.21 251.90 C 63.18 264.10 63.81 276.33 66.00 288.35 C 71.25 320.71 85.33 351.56 105.99 376.98 C 112.50 385.71 121.00 392.68 128.45 400.58 C 147.71 417.69 170.60 430.52 194.90 438.97 C 210.16 443.85 225.99 447.08 241.97 448.29 C 248.70 447.89 255.39 449.48 262.11 448.62 C 303.40 447.51 344.31 432.59 376.37 406.45 C 384.20 400.70 390.58 393.32 397.54 386.59 C 401.90 382.54 405.36 377.67 409.05 373.04 C 432.06 343.67 445.53 307.21 448.29 270.08 C 448.08 263.67 449.53 257.28 448.52 250.88 C 447.95 206.31 430.28 162.48 401.07 128.95 C 396.93 124.78 392.76 120.64 388.61 116.48 C 380.10 107.43 369.82 100.30 359.58 93.36 C 330.93 75.14 297.39 64.42 263.42 63.51 C 255.17 62.48 246.91 63.87 238.66 63.90 Z" />
<path fill="#010101" opacity="1.00" d=" M 168.28 235.21 C 171.14 234.56 174.09 234.84 177.00 234.80 C 231.33 234.78 285.67 234.81 340.00 234.79 C 346.06 235.02 352.02 237.49 356.47 241.60 C 361.72 247.68 363.92 256.72 360.31 264.18 C 357.50 272.16 348.97 276.40 341.00 277.17 C 285.35 277.26 229.68 277.16 174.02 277.22 C 167.28 277.50 160.50 274.96 155.53 270.42 C 150.10 264.19 148.03 254.77 151.96 247.22 C 154.51 240.42 161.51 236.60 168.28 235.21 Z" />
</g>
<g id="#4cbaf6b3">
<path fill="#4cbaf6" opacity="0.70" d=" M 238.66 63.90 C 246.91 63.87 255.17 62.48 263.42 63.51 C 297.39 64.42 330.93 75.14 359.58 93.36 C 369.82 100.30 380.10 107.43 388.61 116.48 C 392.76 120.64 396.93 124.78 401.07 128.95 C 430.28 162.48 447.95 206.31 448.52 250.88 C 449.53 257.28 448.08 263.67 448.29 270.08 C 445.53 307.21 432.06 343.67 409.05 373.04 C 405.36 377.67 401.90 382.54 397.54 386.59 C 390.58 393.32 384.20 400.70 376.37 406.45 C 344.31 432.59 303.40 447.51 262.11 448.62 C 255.39 449.48 248.70 447.89 241.97 448.29 C 225.99 447.08 210.16 443.85 194.90 438.97 C 170.60 430.52 147.71 417.69 128.45 400.58 C 121.00 392.68 112.50 385.71 105.99 376.98 C 85.33 351.56 71.25 320.71 66.00 288.35 C 63.81 276.33 63.18 264.10 63.21 251.90 C 64.00 246.62 63.31 241.24 64.31 235.99 C 68.20 196.17 85.22 157.74 111.91 127.95 C 117.08 122.77 122.26 117.61 127.43 112.43 C 157.89 84.69 197.69 67.68 238.66 63.90 M 168.28 235.21 C 161.51 236.60 154.51 240.42 151.96 247.22 C 148.03 254.77 150.10 264.19 155.53 270.42 C 160.50 274.96 167.28 277.50 174.02 277.22 C 229.68 277.16 285.35 277.26 341.00 277.17 C 348.97 276.40 357.50 272.16 360.31 264.18 C 363.92 256.72 361.72 247.68 356.47 241.60 C 352.02 237.49 346.06 235.02 340.00 234.79 C 285.67 234.81 231.33 234.78 177.00 234.80 C 174.09 234.84 171.14 234.56 168.28 235.21 Z" />
</g>
</svg>
