<?xml version="1.0" encoding="utf-8"?>
<!-- Generator: Adobe Illustrator 26.3.1, SVG Export Plug-In . SVG Version: 6.00 Build 0)  -->
<svg version="1.2" baseProfile="tiny" id="Layer_1" xmlns="http://www.w3.org/2000/svg" xmlns:xlink="http://www.w3.org/1999/xlink"
	 x="0px" y="0px" viewBox="0 0 50 50" overflow="visible" xml:space="preserve">
<g>
	<path fill="#1A1A1A" d="M7,49c-2.756836,0-5-2.243164-5-5V19.5C2,9.298828,10.298828,1,20.5,1S39,9.298828,39,19.5V39H29V19.5
		c0-4.687012-3.812988-8.5-8.5-8.5S12,14.812988,12,19.5V44C12,46.756836,9.756836,49,7,49z"/>
	<path fill="#FFFFFF" d="M20.500023,2C30.164989,2,38,9.835011,38,19.499977V38h-8V19.499989
		C30,14.253289,25.746712,10,20.500011,10h-0.000023C15.253289,10,11,14.253289,11,19.499989V44c0,2.209145-1.790855,4-4,4
		s-4-1.790855-4-4V19.499977C3,9.835011,10.835011,2,20.499977,2H20.500023 M20.500023,0C9.747678,0,1,8.747656,1,19.499977V44
		c0,3.308411,2.691589,6,6,6s6-2.691589,6-6V19.499989C13,15.364478,16.364477,12,20.499989,12
		C24.635511,12,28,15.364478,28,19.499989V38v2h2h8h2v-2V19.499977C40,8.747656,31.252344,0,20.500023,0L20.500023,0z"/>
</g>
<g>
	<path d="M34,47.458984c-0.706055,0-1.374023-0.308594-1.831055-0.84668L20.689941,33.918945
		c-0.711426-0.786133-0.887695-1.874023-0.459961-2.837891c0.426758-0.961914,1.368164-1.583008,2.397949-1.583008
		c0.217285,0,0.437988,0.027344,0.655273,0.081055L34,32.21582l10.716797-2.636719
		c0.217773-0.053711,0.4375-0.081055,0.655273-0.081055c1.029297,0,1.970703,0.621094,2.397461,1.583008
		c0.427734,0.963867,0.251953,2.050781-0.458984,2.837891l-11.5,12.716797C35.374023,47.150391,34.706055,47.458984,34,47.458984z"
		/>
	<path fill="#FFFFFF" d="M45.371662,30.497841c1.344376,0.000069,2.185406,1.657116,1.196537,2.750561l-11.50016,12.71629
		C34.78838,46.29443,34.394192,46.459301,34,46.459301s-0.78838-0.164871-1.068039-0.49461l-11.50016-12.71629
		c-0.988935-1.093517-0.147999-2.750561,1.196537-2.750561c0.133911,0,0.273003,0.01647,0.415592,0.051561L34,33.24564
		l10.95607-2.696238C45.098755,30.514288,45.237667,30.497833,45.371662,30.497841 M45.371811,28.497841
		c-0.000019,0-0.000011,0-0.000031,0c-0.000088,0,0.000065,0-0.000019,0c-0.297615-0.000015-0.598259,0.036825-0.893581,0.109491
		L34,31.185965l-10.47814-2.578623c-0.295271-0.07266-0.59589-0.109501-0.89352-0.109501
		c-1.424789,0-2.72485,0.854712-3.312059,2.17749c-0.59059,1.330379-0.34836,2.830349,0.632149,3.914562l11.483355,12.697704
		C32.0783,48.032715,33.012108,48.459301,34,48.459301s1.9217-0.426586,2.568214-1.171703l11.483345-12.697697
		c0.98045-1.084129,1.222672-2.584038,0.63213-3.9144C48.096546,29.352783,46.796448,28.498016,45.371811,28.497841
		L45.371811,28.497841L45.371811,28.497841z"/>
</g>
</svg>
