<?xml version="1.0" encoding="UTF-8" ?>
<!DOCTYPE svg PUBLIC "-//W3C//DTD SVG 1.1//EN" "http://www.w3.org/Graphics/SVG/1.1/DTD/svg11.dtd">
<svg width="512pt" height="512pt" viewBox="0 0 512 512" version="1.1" xmlns="http://www.w3.org/2000/svg">
<g id="#010101ff">
<path fill="#010101" opacity="1.00" d=" M 239.67 21.88 C 276.78 19.32 314.51 25.58 348.64 40.42 C 406.60 65.16 453.56 114.27 475.61 173.30 C 492.32 217.25 495.18 266.30 483.92 311.93 C 475.25 347.38 458.07 380.70 434.31 408.39 C 408.55 438.54 375.09 462.07 337.92 475.90 C 295.44 491.88 248.28 494.94 204.05 484.86 C 156.99 474.30 113.55 448.56 81.41 412.63 C 60.23 389.10 43.90 361.22 33.70 331.25 C 22.15 297.22 18.60 260.50 23.40 224.89 C 28.42 186.46 43.37 149.43 66.22 118.15 C 88.30 87.58 118.00 62.62 151.74 45.81 C 179.08 32.11 209.18 24.01 239.67 21.88 M 238.79 64.02 C 197.58 67.80 157.61 84.98 127.02 112.94 C 119.78 120.42 111.92 127.32 105.59 135.62 C 77.31 170.59 62.15 215.82 63.39 260.72 C 64.17 290.42 71.71 320.05 85.80 346.27 C 92.52 359.28 101.22 371.15 110.50 382.44 C 116.61 388.70 122.84 394.85 129.04 401.03 C 153.10 421.74 182.08 436.95 213.15 443.81 C 225.26 446.37 237.55 448.57 249.97 448.37 C 257.02 449.32 264.07 448.07 271.14 448.25 C 290.55 446.24 309.90 442.19 327.99 434.75 C 346.09 427.57 362.91 417.37 377.95 405.03 C 384.63 400.09 390.04 393.74 396.00 388.00 C 402.10 382.33 406.94 375.52 411.98 368.94 C 433.41 340.05 445.67 304.80 448.29 269.03 C 450.02 240.89 445.80 212.35 435.55 186.02 C 427.24 165.04 415.38 145.47 400.50 128.49 C 394.48 122.51 388.54 116.44 382.47 110.52 C 371.16 101.22 359.27 92.51 346.23 85.77 C 313.54 68.23 275.66 60.88 238.79 64.02 Z" />
<path fill="#010101" opacity="1.00" d=" M 236.80 162.90 C 240.22 155.65 247.64 149.63 256.00 150.25 C 267.09 149.58 276.99 160.07 276.72 170.96 C 276.69 189.65 276.74 208.34 276.68 227.03 C 276.71 229.16 277.30 231.24 277.44 233.36 C 277.71 233.71 278.25 234.41 278.51 234.76 C 279.75 234.48 280.89 234.64 281.93 235.25 C 301.95 235.36 321.98 235.23 342.00 235.31 C 344.45 235.30 346.80 236.04 349.11 236.78 C 356.56 240.06 362.35 247.67 361.74 256.05 C 362.37 264.40 356.33 271.77 349.12 275.21 C 346.82 275.94 344.49 276.71 342.05 276.68 C 322.01 276.78 301.96 276.63 281.93 276.76 C 280.59 277.51 279.04 277.44 277.57 277.58 C 277.41 279.02 277.61 280.59 276.75 281.87 C 276.64 301.90 276.77 321.94 276.69 341.97 C 276.63 350.11 270.79 357.44 263.49 360.58 C 259.89 362.05 255.89 361.81 252.09 361.57 C 242.49 360.02 235.06 350.62 235.29 340.97 C 235.30 321.95 235.29 302.92 235.29 283.90 C 235.20 281.85 234.24 279.83 235.02 277.79 C 233.36 277.61 231.72 277.32 230.14 276.79 C 210.10 276.59 190.05 276.79 170.00 276.69 C 162.39 276.56 155.49 271.48 152.05 264.86 C 149.82 260.62 150.01 255.59 150.65 250.99 C 152.96 242.12 161.65 235.05 170.94 235.28 C 189.64 235.31 208.34 235.26 227.03 235.31 C 229.49 235.33 231.86 234.36 234.34 234.85 C 234.60 232.23 235.23 229.65 235.31 227.01 C 235.26 208.35 235.31 189.69 235.29 171.02 C 235.16 168.22 235.90 165.52 236.80 162.90 Z" />
</g>
<g id="#4cbaf6b2">
<path fill="#4cbaf6" opacity="0.70" d=" M 238.79 64.02 C 275.66 60.88 313.54 68.23 346.23 85.77 C 359.27 92.51 371.16 101.22 382.47 110.52 C 388.54 116.44 394.48 122.51 400.50 128.49 C 415.38 145.47 427.24 165.04 435.55 186.02 C 445.80 212.35 450.02 240.89 448.29 269.03 C 445.67 304.80 433.41 340.05 411.98 368.94 C 406.94 375.52 402.10 382.33 396.00 388.00 C 390.04 393.74 384.63 400.09 377.95 405.03 C 362.91 417.37 346.09 427.57 327.99 434.75 C 309.90 442.19 290.55 446.24 271.14 448.25 C 264.07 448.07 257.02 449.32 249.97 448.37 C 237.55 448.57 225.26 446.37 213.15 443.81 C 182.08 436.95 153.10 421.74 129.04 401.03 C 122.84 394.85 116.61 388.70 110.50 382.44 C 101.22 371.15 92.52 359.28 85.80 346.27 C 71.71 320.05 64.17 290.42 63.39 260.72 C 62.15 215.82 77.31 170.59 105.59 135.62 C 111.92 127.32 119.78 120.42 127.02 112.94 C 157.61 84.98 197.58 67.80 238.79 64.02 M 236.80 162.90 C 235.90 165.52 235.16 168.22 235.29 171.02 C 235.31 189.69 235.26 208.35 235.31 227.01 C 235.23 229.65 234.60 232.23 234.34 234.85 C 231.86 234.36 229.49 235.33 227.03 235.31 C 208.34 235.26 189.64 235.31 170.94 235.28 C 161.65 235.05 152.96 242.12 150.65 250.99 C 150.01 255.59 149.82 260.62 152.05 264.86 C 155.49 271.48 162.39 276.56 170.00 276.69 C 190.05 276.79 210.10 276.59 230.14 276.79 C 231.72 277.32 233.36 277.61 235.02 277.79 C 234.24 279.83 235.20 281.85 235.29 283.90 C 235.29 302.92 235.30 321.95 235.29 340.97 C 235.06 350.62 242.49 360.02 252.09 361.57 C 255.89 361.81 259.89 362.05 263.49 360.58 C 270.79 357.44 276.63 350.11 276.69 341.97 C 276.77 321.94 276.64 301.90 276.75 281.87 C 277.61 280.59 277.41 279.02 277.57 277.58 C 279.04 277.44 280.59 277.51 281.93 276.76 C 301.96 276.63 322.01 276.78 342.05 276.68 C 344.49 276.71 346.82 275.94 349.12 275.21 C 356.33 271.77 362.37 264.40 361.74 256.05 C 362.35 247.67 356.56 240.06 349.11 236.78 C 346.80 236.04 344.45 235.30 342.00 235.31 C 321.98 235.23 301.95 235.36 281.93 235.25 C 280.89 234.64 279.75 234.48 278.51 234.76 C 278.25 234.41 277.71 233.71 277.44 233.36 C 277.30 231.24 276.71 229.16 276.68 227.03 C 276.74 208.34 276.69 189.65 276.72 170.96 C 276.99 160.07 267.09 149.58 256.00 150.25 C 247.64 149.63 240.22 155.65 236.80 162.90 Z" />
</g>
</svg>
