<?xml version="1.0" encoding="UTF-8" ?>
<!DOCTYPE svg PUBLIC "-//W3C//DTD SVG 1.1//EN" "http://www.w3.org/Graphics/SVG/1.1/DTD/svg11.dtd">
<svg width="512pt" height="512pt" viewBox="0 0 512 512" version="1.1" xmlns="http://www.w3.org/2000/svg">
<g id="#010101ff">
<path fill="#010101" opacity="1.00" d=" M 242.48 21.71 C 283.44 19.33 325.04 27.82 361.61 46.51 C 413.43 72.49 454.84 118.41 475.36 172.63 C 491.80 215.51 495.07 263.28 484.85 308.03 C 477.63 340.07 463.37 370.44 443.71 396.72 C 422.16 425.25 394.22 449.02 362.27 465.15 C 325.32 484.18 283.15 492.82 241.68 490.22 C 198.83 487.74 156.80 473.02 121.70 448.32 C 93.82 428.84 70.23 403.24 53.14 373.83 C 35.21 343.19 24.42 308.40 21.96 272.99 C 19.24 236.17 25.35 198.72 39.82 164.75 C 59.44 118.24 94.46 78.42 138.17 53.14 C 169.80 34.59 205.88 23.78 242.48 21.71 M 249.39 63.42 C 205.34 64.57 161.99 81.84 128.97 110.98 C 123.20 116.55 117.59 122.28 111.93 127.95 C 90.14 152.12 75.02 182.11 67.82 213.81 C 60.52 247.12 62.03 282.28 72.30 314.82 C 77.33 330.09 84.11 344.80 92.63 358.44 C 99.85 369.29 107.38 380.11 116.93 389.06 C 122.71 394.63 127.99 400.75 134.39 405.63 C 165.09 430.50 203.50 445.89 243.00 448.27 C 248.03 448.09 253.01 448.94 258.03 448.84 C 267.19 448.27 276.39 448.23 285.43 446.49 C 322.38 441.03 357.48 424.22 385.06 399.08 C 392.77 391.12 401.21 383.80 407.72 374.76 C 435.04 340.63 449.49 296.70 448.72 253.08 C 448.26 249.05 448.32 245.01 448.21 240.97 C 446.09 216.52 439.94 192.23 428.60 170.38 C 422.82 158.37 415.64 147.07 407.38 136.61 C 400.60 127.49 391.89 120.10 384.07 111.93 C 352.21 83.50 310.65 65.91 267.94 63.70 C 261.76 63.47 255.57 62.71 249.39 63.42 Z" />
<path fill="#010101" opacity="1.00" d=" M 252.24 114.01 C 256.02 112.49 260.88 113.02 263.69 116.26 C 272.79 125.16 281.53 134.43 290.64 143.32 C 296.59 149.74 303.33 155.40 308.99 162.08 C 313.62 167.92 308.35 177.45 301.09 177.40 C 271.70 177.42 242.32 177.38 212.93 177.42 C 208.60 177.64 204.48 174.76 202.82 170.83 C 201.97 167.43 202.05 163.38 204.93 160.94 C 218.15 147.49 231.62 134.30 244.84 120.86 C 247.22 118.48 249.46 115.93 252.24 114.01 M 235.78 157.52 C 249.60 157.62 263.41 157.62 277.22 157.52 C 270.26 150.66 263.76 143.21 256.22 136.98 C 249.40 143.81 242.52 150.60 235.78 157.52 Z" />
<path fill="#010101" opacity="1.00" d=" M 164.41 202.36 C 170.44 199.32 178.32 205.39 177.57 211.94 C 177.54 241.65 177.59 271.35 177.55 301.06 C 177.67 307.30 170.25 312.57 164.45 309.82 C 160.31 307.75 157.38 304.04 154.11 300.89 C 142.55 289.45 131.20 277.80 119.63 266.37 C 116.98 263.44 113.37 260.40 113.68 256.04 C 113.49 252.48 116.11 249.76 118.43 247.43 C 127.97 237.99 137.46 228.51 146.79 218.87 C 152.92 213.64 157.77 206.93 164.41 202.36 M 137.78 256.08 C 143.82 263.41 151.08 269.65 157.64 276.53 C 157.72 262.92 157.68 249.32 157.66 235.72 C 151.26 242.72 144.37 249.26 137.78 256.08 Z" />
<path fill="#010101" opacity="1.00" d=" M 341.43 202.44 C 345.35 200.23 349.88 202.29 352.59 205.42 C 367.10 219.91 381.57 234.44 396.06 248.94 C 398.69 251.22 398.40 254.93 398.28 258.07 C 398.31 262.08 394.94 264.77 392.41 267.41 C 385.98 273.34 380.19 279.90 373.79 285.85 C 366.58 292.63 360.13 300.17 352.83 306.87 C 350.86 308.52 348.67 310.40 345.97 310.48 C 340.39 311.11 334.71 305.74 335.44 300.06 C 335.47 270.69 335.46 241.31 335.45 211.93 C 334.89 207.78 337.92 204.19 341.43 202.44 M 355.34 235.72 C 355.33 249.31 355.32 262.90 355.35 276.49 C 361.95 269.67 369.23 263.44 375.22 256.07 C 368.70 249.20 361.82 242.65 355.34 235.72 Z" />
<path fill="#010101" opacity="1.00" d=" M 250.24 208.62 C 260.84 207.47 271.85 209.42 280.97 215.10 C 292.19 221.70 300.49 233.14 303.28 245.85 C 306.54 258.50 303.42 272.33 296.03 282.98 C 286.88 296.68 270.39 305.07 253.94 304.31 C 245.48 303.43 237.03 300.91 230.02 295.97 C 218.80 288.51 211.22 276.21 208.95 262.99 C 207.16 250.32 210.74 236.85 218.84 226.90 C 226.34 216.96 237.97 210.45 250.24 208.62 M 251.37 228.51 C 241.43 230.19 232.98 237.72 229.78 247.22 C 226.70 255.64 228.67 265.26 233.58 272.58 C 236.86 277.93 242.62 281.20 248.39 283.25 C 258.52 286.83 270.07 282.89 277.38 275.41 C 281.66 270.31 284.67 263.79 284.64 257.03 C 285.20 246.19 278.64 235.22 268.71 230.73 C 263.38 227.95 257.20 227.99 251.37 228.51 Z" />
<path fill="#010101" opacity="1.00" d=" M 208.19 335.84 C 209.71 335.27 211.36 335.44 212.95 335.36 C 242.32 335.42 271.70 335.38 301.07 335.38 C 307.90 334.82 313.06 343.56 309.55 349.35 C 307.08 353.46 303.24 356.47 299.97 359.89 C 287.95 371.56 276.41 383.70 264.39 395.37 C 261.93 397.74 258.75 399.98 255.14 399.24 C 250.64 398.37 247.73 394.45 244.58 391.47 C 231.58 378.12 218.05 365.29 205.17 351.84 C 200.32 347.32 202.03 338.28 208.19 335.84 M 236.44 354.79 C 238.12 357.01 239.94 359.12 242.01 361.00 C 246.99 365.70 251.40 371.03 256.84 375.22 C 263.36 368.33 270.56 362.06 276.68 354.80 C 263.27 354.56 249.85 354.59 236.44 354.79 Z" />
</g>
<g id="#4cbaf6b3">
<path fill="#4cbaf6" opacity="0.70" d=" M 249.39 63.42 C 255.57 62.71 261.76 63.47 267.94 63.70 C 310.65 65.91 352.21 83.50 384.07 111.93 C 391.89 120.10 400.60 127.49 407.38 136.61 C 415.64 147.07 422.82 158.37 428.60 170.38 C 439.94 192.23 446.09 216.52 448.21 240.97 C 448.32 245.01 448.26 249.05 448.72 253.08 C 449.49 296.70 435.04 340.63 407.72 374.76 C 401.21 383.80 392.77 391.12 385.06 399.08 C 357.48 424.22 322.38 441.03 285.43 446.49 C 276.39 448.23 267.19 448.27 258.03 448.84 C 253.01 448.94 248.03 448.09 243.00 448.27 C 203.50 445.89 165.09 430.50 134.39 405.63 C 127.99 400.75 122.71 394.63 116.93 389.06 C 107.38 380.11 99.85 369.29 92.63 358.44 C 84.11 344.80 77.33 330.09 72.30 314.82 C 62.03 282.28 60.52 247.12 67.82 213.81 C 75.02 182.11 90.14 152.12 111.93 127.95 C 117.59 122.28 123.20 116.55 128.97 110.98 C 161.99 81.84 205.34 64.57 249.39 63.42 M 252.24 114.01 C 249.46 115.93 247.22 118.48 244.84 120.86 C 231.62 134.30 218.15 147.49 204.93 160.94 C 202.05 163.38 201.97 167.43 202.82 170.83 C 204.48 174.76 208.60 177.64 212.93 177.42 C 242.32 177.38 271.70 177.42 301.09 177.40 C 308.35 177.45 313.62 167.92 308.99 162.08 C 303.33 155.40 296.59 149.74 290.64 143.32 C 281.53 134.43 272.79 125.16 263.69 116.26 C 260.88 113.02 256.02 112.49 252.24 114.01 M 164.41 202.36 C 157.77 206.93 152.92 213.64 146.79 218.87 C 137.46 228.51 127.97 237.99 118.43 247.43 C 116.11 249.76 113.49 252.48 113.68 256.04 C 113.37 260.40 116.98 263.44 119.63 266.37 C 131.20 277.80 142.55 289.45 154.11 300.89 C 157.38 304.04 160.31 307.75 164.45 309.82 C 170.25 312.57 177.67 307.30 177.55 301.06 C 177.59 271.35 177.54 241.65 177.57 211.94 C 178.32 205.39 170.44 199.32 164.41 202.36 M 341.43 202.44 C 337.92 204.19 334.89 207.78 335.45 211.93 C 335.46 241.31 335.47 270.69 335.44 300.06 C 334.71 305.74 340.39 311.11 345.97 310.48 C 348.67 310.40 350.86 308.52 352.83 306.87 C 360.13 300.17 366.58 292.63 373.79 285.85 C 380.19 279.90 385.98 273.34 392.41 267.41 C 394.94 264.77 398.31 262.08 398.28 258.07 C 398.40 254.93 398.69 251.22 396.06 248.94 C 381.57 234.44 367.10 219.91 352.59 205.42 C 349.88 202.29 345.35 200.23 341.43 202.44 M 250.24 208.62 C 237.97 210.45 226.34 216.96 218.84 226.90 C 210.74 236.85 207.16 250.32 208.95 262.99 C 211.22 276.21 218.80 288.51 230.02 295.97 C 237.03 300.91 245.48 303.43 253.94 304.31 C 270.39 305.07 286.88 296.68 296.03 282.98 C 303.42 272.33 306.54 258.50 303.28 245.85 C 300.49 233.14 292.19 221.70 280.97 215.10 C 271.85 209.42 260.84 207.47 250.24 208.62 M 208.19 335.84 C 202.03 338.28 200.32 347.32 205.17 351.84 C 218.05 365.29 231.58 378.12 244.58 391.47 C 247.73 394.45 250.64 398.37 255.14 399.24 C 258.75 399.98 261.93 397.74 264.39 395.37 C 276.41 383.70 287.95 371.56 299.97 359.89 C 303.24 356.47 307.08 353.46 309.55 349.35 C 313.06 343.56 307.90 334.82 301.07 335.38 C 271.70 335.38 242.32 335.42 212.95 335.36 C 211.36 335.44 209.71 335.27 208.19 335.84 Z" />
<path fill="#4cbaf6" opacity="0.70" d=" M 235.78 157.52 C 242.52 150.60 249.40 143.81 256.22 136.98 C 263.76 143.21 270.26 150.66 277.22 157.52 C 263.41 157.62 249.60 157.62 235.78 157.52 Z" />
<path fill="#4cbaf6" opacity="0.70" d=" M 251.37 228.51 C 257.20 227.99 263.38 227.95 268.71 230.73 C 278.64 235.22 285.20 246.19 284.64 257.03 C 284.67 263.79 281.66 270.31 277.38 275.41 C 270.07 282.89 258.52 286.83 248.39 283.25 C 242.62 281.20 236.86 277.93 233.58 272.58 C 228.67 265.26 226.70 255.64 229.78 247.22 C 232.98 237.72 241.43 230.19 251.37 228.51 Z" />
<path fill="#4cbaf6" opacity="0.70" d=" M 137.78 256.08 C 144.37 249.26 151.26 242.72 157.66 235.72 C 157.68 249.32 157.72 262.92 157.64 276.53 C 151.08 269.65 143.82 263.41 137.78 256.08 Z" />
<path fill="#4cbaf6" opacity="0.70" d=" M 355.34 235.72 C 361.82 242.65 368.70 249.20 375.22 256.07 C 369.23 263.44 361.95 269.67 355.35 276.49 C 355.32 262.90 355.33 249.31 355.34 235.72 Z" />
<path fill="#4cbaf6" opacity="0.70" d=" M 236.44 354.79 C 249.85 354.59 263.27 354.56 276.68 354.80 C 270.56 362.06 263.36 368.33 256.84 375.22 C 251.40 371.03 246.99 365.70 242.01 361.00 C 239.94 359.12 238.12 357.01 236.44 354.79 Z" />
</g>
</svg>
