<?xml version="1.0" encoding="utf-8"?>
<!-- Generator: Adobe Illustrator 26.3.1, SVG Export Plug-In . SVG Version: 6.00 Build 0)  -->
<svg version="1.2" baseProfile="tiny" id="Layer_1" xmlns="http://www.w3.org/2000/svg" xmlns:xlink="http://www.w3.org/1999/xlink"
	 x="0px" y="0px" viewBox="0 0 50 50" overflow="visible" xml:space="preserve">
<path fill="#999999" d="M18.025225,4.5c-8.559998,0-15.5,6.940002-15.5,15.5s6.940002,15.5,15.5,15.5
	S33.525227,28.559998,33.525227,20S26.585222,4.5,18.025225,4.5z M18.025225,28.5c-4.690002,0-8.5-3.809998-8.5-8.5
	s3.809998-8.5,8.5-8.5s8.5,3.809998,8.5,8.5S22.715227,28.5,18.025225,28.5z"/>
<g>
	<path d="M18.022461,49c-2.756836,0-5-2.243164-5-5v-7.753906c-2.643066-0.816406-5.056152-2.268555-7.01709-4.229492
		C2.838867,28.849609,1.022461,24.470215,1.022461,20s1.816406-8.850586,4.98291-12.01709S13.552246,3,18.022461,3
		s8.849609,1.816406,12.016602,4.98291C32,9.944336,33.452148,12.356934,34.268555,15h1.288086l-0.785156-3.191406
		c-0.168945-0.679688-0.022461-1.381836,0.401367-1.923828c0.433594-0.553711,1.109375-0.883789,1.80957-0.883789
		c0.549805,0,1.084961,0.207031,1.505859,0.583008l9.785156,8.854492C48.713867,18.816895,48.977539,19.39209,48.977539,20
		s-0.263672,1.183105-0.723633,1.578125l-9.760742,8.833008c-0.425781,0.380859-0.960938,0.587891-1.510742,0.587891
		c-0.699219,0-1.375977-0.330078-1.808594-0.883789c-0.424805-0.541992-0.571289-1.244141-0.402344-1.925781L35.556641,25h-5.828125
		c-2.594727,0-4.706055-2.11084-4.706055-4.705566c0-3.59668-2.530762-6.696289-5.887207-7.209473
		C18.765137,13.028809,18.390625,13,18.022461,13c-2.16748,0-4.177246,0.979004-5.514648,2.686035
		c-1.338867,1.709961-1.799316,3.938477-1.262695,6.11377C11.98877,24.812988,14.913086,27,18.199707,27
		c2.703125,0,4.822754,2.111328,4.822754,4.706055V44C23.022461,46.756836,20.779297,49,18.022461,49z"/>
	<path fill="#FFFFFF" d="M18.022522,4c4.239988,0,8.309999,1.69,11.309999,4.69c2.039978,2.039978,3.469969,4.570011,4.179991,7.31
		h3.320011l-1.090034-4.429989c-0.217281-0.876424,0.483543-1.569215,1.239853-1.569231
		c0.28788-0.000006,0.583775,0.10036,0.840168,0.329175l9.779968,8.850034c0.5,0.43,0.5,1.210022,0,1.640022l-9.779968,8.849966
		c-0.256393,0.228834-0.55233,0.329216-0.84021,0.329216c-0.75631,0-1.457092-0.69278-1.239811-1.569204L36.832523,24h-7.10449
		c-2.046499,0-3.705511-1.659012-3.705511-3.705511v-0.000011c0.000011-3.990322-2.791332-7.594744-6.735844-8.197633
		c-0.42701-0.065265-0.849686-0.096787-1.264183-0.096828c-5.084379-0.000493-9.056615,4.735996-7.748306,10.039461
		C11.154101,25.606382,14.526002,28,18.199797,28c0.000225,0-0.000198,0,0.000025,0h0.097813
		c2.066488,0,3.724888,1.659044,3.724888,3.705566V44c0,2.209145-1.790855,4-4,4s-4-1.790855-4-4v-8.51001
		c-2.739988-0.710022-5.270022-2.140011-7.31-4.179991c-3-3-4.69-7.070011-4.69-11.309999s1.69-8.31,4.69-11.31
		S13.782534,4,18.022522,4 M18.022522,2C13.288944,2,8.651144,3.922956,5.298311,7.275789S0.022522,15.266422,0.022522,20
		s1.922956,9.371378,5.275789,12.724213c1.900083,1.900089,4.201696,3.348843,6.724211,4.243069V44c0,3.308411,2.691589,6,6,6
		s6-2.691589,6-6V31.705566C24.022522,28.559511,21.454344,26,18.297634,26h-0.097813
		c-2.832688,0-5.349255-1.8671-5.983844-4.439533c-0.469433-1.902945-0.086123-3.770288,1.079333-5.258034
		c1.146378-1.4634,2.869301-2.302588,4.72699-2.302411c0.317987,0.000023,0.641699,0.024879,0.9622,0.073867
		c2.872154,0.438978,5.038033,3.113256,5.038021,6.220577C24.022522,23.440512,26.582001,26,29.728033,26h4.552713
		l-0.480335,1.952122c-0.24268,0.978889-0.029598,1.993134,0.585445,2.779266
		c0.621078,0.793856,1.591709,1.267801,2.596443,1.267801c0.795811,0,1.567154-0.297289,2.171967-0.83709l9.77644-8.84671
		c0.665646-0.584566,1.046772-1.426596,1.046772-2.31539s-0.381153-1.730848-1.046803-2.315414L39.164467,8.847
		c-0.615067-0.548978-1.386379-0.846222-2.182121-0.846222c-1.004803,0.000033-1.975433,0.474-2.596512,1.267878
		c-0.431988,0.552174-0.665668,1.21689-0.682114,1.904006c-0.800949-1.421632-1.79451-2.734403-2.956987-3.896873
		C27.3939,3.922956,22.7561,2,18.022522,2L18.022522,2z"/>
</g>
</svg>
