<?xml version="1.0" encoding="utf-8"?>
<!-- Generator: Adobe Illustrator 26.3.1, SVG Export Plug-In . SVG Version: 6.00 Build 0)  -->
<svg version="1.2" baseProfile="tiny" id="Layer_1" xmlns="http://www.w3.org/2000/svg" xmlns:xlink="http://www.w3.org/1999/xlink"
	 x="0px" y="0px" viewBox="0 0 50 50" overflow="visible" xml:space="preserve">
<g>
	<path d="M25,35c-9.374023,0-17-7.625977-17-17S15.625977,1,25,1s17,7.625977,17,17S34.374023,35,25,35z M25,11
		c-3.859863,0-7,3.140137-7,7s3.140137,7,7,7c3.859375,0,7-3.140137,7-7S28.859375,11,25,11z"/>
	<path fill="#FFFFFF" d="M25,2c8.840031,0,16,7.15997,16,16c0,8.83997-7.159969,16-16,16S9,26.83997,9,18
		C9,9.15997,16.159969,2,25,2 M25,26c4.419979,0,8-3.580021,8-8c0-4.42004-3.580021-8-8-8s-8,3.57996-8,8
		C17,22.419979,20.580021,26,25,26 M25,0C15.07477,0,7,8.07477,7,18s8.07477,18,18,18s18-8.07477,18-18S34.925228,0,25,0L25,0z
		 M25,24c-3.308411,0-6-2.691589-6-6s2.691589-6,6-6s6,2.69159,6,6S28.308411,24,25,24L25,24z"/>
</g>
<g>
	<path d="M34.669983,37.709961l-8.849976,9.780029c-0.210022,0.25-0.52002,0.380005-0.820007,0.380005
		s-0.609985-0.130005-0.820007-0.380005l-8.849976-9.780029c-0.75-0.849976-0.110046-2.119995,0.919983-2.119995
		c0.099976,0,0.210022,0.01001,0.320007,0.040039l4.380005,1.079956v-6.880005c0-1.769958,1.200012-3.199951,2.809998-3.659973
		c0.25-0.070007,0.5-0.119995,0.77002-0.150024C24.659973,26.01001,24.789978,26,24.929993,26H25
		c0.179993,0,0.359985-0.01001,0.539978-0.02002c0.160034-0.01001,0.309998-0.02002,0.460022-0.039978
		c0.73999-0.090027,1.450012-0.290039,2.119995-0.570007C28.419983,25.23999,28.719971,25.089966,29,24.919983v11.799988
		l4.429993-1.089966c0.109985-0.030029,0.220032-0.040039,0.320007-0.040039
		C34.780029,35.589966,35.419983,36.859985,34.669983,37.709961z"/>
	<path fill="#FFFFFF" d="M36.710022,35.529968c-0.530029-1.179993-1.690002-1.940002-2.960022-1.940002
		c-0.27002,0-0.539978,0.030029-0.799988,0.100037L31,34.169983v-1.340027c-0.640015,0.27002-1.309998,0.490051-2,0.670044v3.219971
		l4.429993-1.089966c0.109985-0.030029,0.220032-0.040039,0.320007-0.040039c1.030029,0,1.669983,1.27002,0.919983,2.119995
		l-8.849976,9.780029c-0.210022,0.25-0.52002,0.380005-0.820007,0.380005s-0.609985-0.130005-0.820007-0.380005l-8.849976-9.780029
		c-0.75-0.849976-0.110046-2.119995,0.919983-2.119995c0.099976,0,0.210022,0.01001,0.320007,0.040039l4.380005,1.079956v-6.880005
		c0-1.769958,1.200012-3.199951,2.809998-3.659973c0.25-0.080017,0.5-0.130005,0.77002-0.150024
		C24.659973,26.01001,24.789978,26,24.929993,26H25c0.179993,0,0.359985-0.01001,0.539978-0.02002
		c0.160034-0.01001,0.309998-0.02002,0.460022-0.039978c0.73999-0.090027,1.450012-0.290039,2.119995-0.570007
		C28.419983,25.23999,28.719971,25.089966,29,24.919983c0.76001-0.429993,1.429993-0.97998,2-1.630005v-1.869995l-3.02002,1.780029
		C27.090027,23.719971,26.059998,24,25,24h-0.070007c-1.320007,0-2.549988,0.419983-3.539978,1.140015
		c-1.480042,1.049988-2.440002,2.759949-2.440002,4.689941v4.330017l-1.900024-0.469971
		c-0.26001-0.070007-0.529968-0.100037-0.799988-0.100037c-1.27002,0-2.429993,0.76001-2.960022,1.940002
		c-0.529968,1.190002-0.320007,2.530029,0.550049,3.51001l8.839966,9.77002C23.26001,49.48999,24.109985,49.869995,25,49.869995
		s1.73999-0.380005,2.320007-1.059998l8.830017-9.76001C37.030029,38.059998,37.23999,36.719971,36.710022,35.529968z"/>
</g>
</svg>
