<?xml version="1.0" encoding="utf-8"?>
<!-- Generator: Adobe Illustrator 26.3.1, SVG Export Plug-In . SVG Version: 6.00 Build 0)  -->
<svg version="1.2" baseProfile="tiny" id="Layer_1" xmlns="http://www.w3.org/2000/svg" xmlns:xlink="http://www.w3.org/1999/xlink"
	 x="0px" y="0px" viewBox="0 0 50 50" overflow="visible" xml:space="preserve">
<g>
	<path d="M40.53125,49c-2.756836,0-5-2.243164-5-5V18.262695l-16.085938,9.293945l-4.999512-8.662598L34.651367,7.224121
		C35.751953,6.586914,37.007812,6.25,38.28125,6.25c1.9375,0,3.757812,0.753906,5.126953,2.123047S45.53125,11.562988,45.53125,13.5
		V44C45.53125,46.756836,43.288086,49,40.53125,49z"/>
	<path fill="#FFFFFF" d="M38.281448,7.25c1.719971,0,3.28997,0.70001,4.419979,1.82996
		c1.130001,1.13,1.830021,2.70001,1.830021,4.42004V44c0,2.209141-1.790859,4-4,4h-0.000011
		c-2.209129,0-3.999989-1.790859-3.999989-4V16.52997l-16.720039,9.66003l-4-6.929991L35.15144,8.08997
		C36.101387,7.53998,37.181408,7.25,38.281448,7.25 M38.281448,5.25c-1.449978,0-2.878841,0.38353-4.132111,1.10913
		l-19.3382,11.16899l-1.73143,1l0.999539,1.731701l4,6.929989l1.000219,1.73287l1.73246-1.000931l13.719521-7.926474V44
		c0,3.308411,2.691582,6,5.999989,6c3.308422,0,6.000011-2.691589,6.000011-6V13.5c0-2.20442-0.857948-4.2764-2.41581-5.83425
		C42.557728,6.10792,40.48579,5.25,38.281448,5.25L38.281448,5.25z"/>
</g>
<g>
	<path d="M24.975098,34.352539c-0.191895,0-0.38623-0.021484-0.578613-0.0625L6.460449,31.40625
		c-0.71582-0.130859-1.316895-0.553711-1.669922-1.166016c-0.353027-0.611328-0.418945-1.34375-0.180664-2.008789
		l6.494141-17.043457c0.341797-1.063965,1.329102-1.783203,2.498047-1.783203c1.188477,0,2.209473,0.766113,2.540527,1.906738
		l3.074707,10.600586l7.64209,7.962891c0.746094,0.777344,0.949219,1.873047,0.52832,2.859375
		c-0.418945,0.983398-1.365234,1.618164-2.412109,1.618164C24.975098,34.352539,24.975098,34.352539,24.975098,34.352539z"/>
	<path fill="#FFFFFF" d="M13.601888,10.404514c0.675762,0,1.351381,0.397608,1.580053,1.186011l3.143029,10.83635l7.813051,8.14011
		c1.033211,1.076458,0.210131,2.785568-1.163214,2.785568c-0.118855,0-0.241867-0.012806-0.368116-0.039928l-17.987461-2.89415
		c-0.85079-0.15465-1.3595-1.03577-1.06804-1.849901l6.48728-17.0247C12.284122,10.782194,12.943069,10.404514,13.601888,10.404514
		 M13.601891,8.404515c-1.590902,0-2.937652,0.966386-3.447701,2.467548L3.682281,27.856426
		c-0.35138,0.980259-0.25785,2.017719,0.24254,2.884409s1.35209,1.466421,2.33673,1.645399l17.985342,2.894218
		c0.241615,0.047867,0.486174,0.072102,0.727919,0.072102c1.44833,0,2.756559-0.873589,3.33288-2.225578
		c0.580399-1.36157,0.30192-2.873171-0.72677-3.944921l-7.472214-7.785004l-3.005926-10.363655
		C16.646711,9.460985,15.239811,8.404515,13.601891,8.404515L13.601891,8.404515z"/>
</g>
</svg>
