<?xml version="1.0" encoding="utf-8"?>
<!-- Generator: Adobe Illustrator 26.3.1, SVG Export Plug-In . SVG Version: 6.00 Build 0)  -->
<svg version="1.2" baseProfile="tiny" id="Layer_1" xmlns="http://www.w3.org/2000/svg" xmlns:xlink="http://www.w3.org/1999/xlink"
	 x="0px" y="0px" viewBox="0 0 50 50" overflow="visible" xml:space="preserve">
<g>
	<path d="M16.611328,48.999023c-2.716797,0-5.011719-2.392578-5.011719-5.224609V32.404297
		c0-1.84668,0.489258-3.666992,1.414551-5.265625L23.273438,9.36377l8.662109,5l-9.70459,16.811035
		c-0.413086,0.714844-0.631348,1.529297-0.631348,2.355469V44c0,1.323242-0.517578,2.578125-1.45752,3.532227
		c-0.900391,0.887695-2.069824,1.40332-3.303711,1.461914c-0.075684,0.003906-0.150879,0.004883-0.226562,0.004883H16.611328z"/>
	<path fill="#FFFFFF" d="M23.639473,10.72998l6.929989,4l-9.20476,15.94451c-0.501299,0.868361-0.765209,1.853373-0.765209,2.856039
		V44c0,1.099972-0.45001,2.099972-1.169981,2.82996c-0.687408,0.677982-1.61417,1.116562-2.638369,1.16547
		c-0.060011,0.002865-0.11956,0.00428-0.178982,0.00428c-2.220585,0-4.012679-1.980125-4.012679-4.225239l0.00001-11.370602
		c0-1.67293,0.441549-3.316219,1.280029-4.763849v-0.00001L23.639473,10.72998 M22.907072,7.997991l-0.99979,1.73223
		l-9.75995,16.91003c-1.012079,1.747349-1.547839,3.741289-1.547839,5.763618l-0.00001,11.370602
		c0,3.374428,2.75347,6.225239,6.012681,6.225239c0.091139,0,0.18248-0.002159,0.274519-0.006557
		c1.47986-0.070671,2.881731-0.688351,3.947241-1.739243c1.145489-1.16116,1.76557-2.664948,1.76557-4.25391V33.530529
		c0-0.650719,0.171959-1.292557,0.497299-1.856108l9.20476-15.94451l1.000011-1.73221l-1.73229-0.99988l-6.929991-4
		L22.907072,7.997991L22.907072,7.997991z"/>
</g>
<g>
	<path d="M35.738281,23.093262c-0.671875,0-1.316406-0.26416-1.81543-0.743652l-7.963379-7.64209l-10.599609-3.074707
		c-1.140625-0.331055-1.889648-1.3125-1.907227-2.500488c-0.017578-1.1875,0.70166-2.190918,1.832031-2.555176l16.317871-5.262695
		c0.231445-0.083496,0.503906-0.130859,0.779297-0.130859c1.160156,0,2.15332,0.828613,2.361328,1.970703l3.594727,16.732422
		c0.171875,0.799805-0.009766,1.583496-0.512695,2.206055C37.318359,22.719238,36.539062,23.093262,35.738281,23.093262z"/>
	<path fill="#FFFFFF" d="M32.381962,2.183529c0.654259-0.00001,1.252487,0.463878,1.377327,1.150671l3.601299,16.76272
		c0.242512,1.128799-0.659931,1.995977-1.621864,1.995977c-0.388794,0-0.787117-0.141508-1.123787-0.464647l-8.140118-7.81304
		l-10.83635-3.143021c-1.55704-0.45161-1.589601-2.645849-0.04665-3.14346l16.31757-5.26257
		C32.066311,2.209981,32.225742,2.183531,32.381962,2.183529 M32.381977,0.18353c-0.377956,0-0.751242,0.062833-1.110098,0.186791
		L14.977939,5.62527c-1.53424,0.4948-2.54899,1.91023-2.52507,3.52211c0.02392,1.61189,1.08022,2.99658,2.62847,3.44565
		l10.363642,3.005914l7.785027,7.472216c0.68647,0.65888,1.577423,1.02174,2.50872,1.02174
		c1.099239,0,2.169891-0.512859,2.863979-1.371899c0.686413-0.849541,0.946381-1.959091,0.713261-3.04417L35.720013,2.938985
		C35.411049,1.340039,34.013325,0.18353,32.381977,0.18353L32.381977,0.18353z"/>
</g>
</svg>
