<?xml version="1.0" encoding="utf-8"?>
<!-- Generator: Adobe Illustrator 26.3.1, SVG Export Plug-In . SVG Version: 6.00 Build 0)  -->
<svg version="1.2" baseProfile="tiny" id="Layer_1" xmlns="http://www.w3.org/2000/svg" xmlns:xlink="http://www.w3.org/1999/xlink"
	 x="0px" y="0px" viewBox="0 0 50 50" overflow="visible" xml:space="preserve">
<path fill="#999999" d="M20.000038,7.5c8.559998,0,15.5,6.940002,15.5,15.5s-6.940002,15.5-15.5,15.5s-15.5-6.940002-15.5-15.5
	S11.440042,7.5,20.000038,7.5z M20.000038,31.5c4.690002,0,8.5-3.809998,8.5-8.5s-3.809998-8.5-8.5-8.5
	s-8.499999,3.809998-8.499999,8.5S15.310037,31.5,20.000038,31.5z"/>
<g>
	<path d="M20,49c-2.756836,0-5-2.243164-5-5v-9.054688C15,32.21875,17.218262,30,19.945312,30
		c1.29541,0,2.50293-0.325195,3.546387-0.941406c2.067383-1.1875,3.371582-3.312988,3.499512-5.692383
		C27.000977,23.233398,27,23.116699,27,23c0-0.161621-0.008789-0.322266-0.017578-0.483887
		c-0.009766-0.136719-0.017578-0.261719-0.033203-0.386719c-0.055664-0.441406-0.145508-0.847656-0.267578-1.211914
		c-0.037109-0.135254-0.056641-0.197754-0.083008-0.254395c-0.15625-0.444824-0.322266-0.802734-0.530273-1.154297
		c-1.289551-2.239746-0.532715-5.05957,1.663086-6.327637L34.375,9.342285L32.109375,6.98291
		c-0.642578-0.664062-0.819336-1.604492-0.458984-2.452637c0.355469-0.839844,1.164062-1.382324,2.05957-1.382324
		c0.167969,0,0.337891,0.018555,0.505859,0.055664l12.894531,2.769043c0.568359,0.104004,1.085938,0.468262,1.390625,0.993164
		c0.304688,0.526367,0.364258,1.158691,0.162109,1.734863L44.62207,21.227051
		c-0.304688,0.953125-1.150391,1.570801-2.154297,1.570801c-1.016602,0-1.891602-0.65332-2.176758-1.625977l-0.916992-3.16748
		l-2.724609,1.572754C36.881836,20.708496,37,21.856934,37,23c0,7.469727-4.896484,14.037109-12,16.235352V44
		C25,46.756836,22.756836,49,20,49z"/>
	<path fill="#FFFFFF" d="M33.710163,4.147589c0.09346,0.000009,0.190395,0.010391,0.289875,0.032409l12.899967,2.770011
		c0.650024,0.12,1.040035,0.789978,0.82,1.419989l-4.049988,12.549989c-0.187611,0.587519-0.694492,0.877634-1.20182,0.877634
		c-0.520248,0-1.04097-0.305153-1.218159-0.9076l-1.27002-4.390022l-4.469967,2.579956
		c0.32,1.270021,0.489986,2.590033,0.489986,3.920044c0,7.399967-5.130011,13.690001-11.999998,15.479979v5.520031
		c0,2.209133-1.790855,3.999989-4,3.999989s-4-1.790855-4-3.999989v-9.054455c0-2.172482,1.774359-3.945681,3.94557-3.945681
		c0.003452,0,0.007198,0.000006,0.010651,0.000015l0.043779,0.000111c1.460022,0,2.830011-0.390011,4-1.080011
		c2.280033-1.309999,3.840021-3.710022,3.989988-6.5c0.010012-0.140022,0.010012-0.279966,0.010012-0.419989
		c0-0.179989-0.010012-0.359978-0.020023-0.540033c-0.01001-0.159979-0.019955-0.309999-0.039978-0.459967
		c-0.059999-0.480045-0.159966-0.950012-0.309999-1.400023c-0.030022-0.120001-0.07-0.239988-0.119989-0.349977
		c-0.150023-0.440001-0.350044-0.859978-0.580021-1.25l-0.018978-0.032946c-0.988012-1.715399-0.39399-3.929221,1.320032-4.91961
		l7.748936-4.477433l-3.149967-3.280034C32.031002,5.463405,32.657463,4.147493,33.710163,4.147589 M33.710396,2.147587h-0.000069
		c-1.297443-0.000111-2.467487,0.781711-2.98081,1.991789c-0.5114,1.2055-0.25131,2.5953,0.662579,3.540667l1.377962,1.434864
		l-5.539574,3.200836c-2.671934,1.543888-3.59269,4.975445-2.052523,7.649511l0.0051,0.008856l0.024166,0.041744
		c0.172956,0.29331,0.310833,0.589243,0.409834,0.879578l0.031645,0.09281l0.040577,0.089279l0.018612,0.0744l0.024811,0.080622
		c0.101744,0.305155,0.176689,0.646822,0.222778,1.015501c0.016077,0.120989,0.021465,0.22551,0.028433,0.336832
		c0.007145,0.129301,0.016123,0.27219,0.016123,0.415123c0,0.092455,0.001688,0.1849-0.004923,0.277355
		c-0.111799,2.074278-1.229279,3.896032-2.991434,4.908489c-0.910099,0.536577-1.941956,0.814156-3.003643,0.814156
		l-0.054434-0.000122c-3.2784,0-5.945567,2.667221-5.945567,5.945677v9.054455c0,3.308403,2.691588,5.999989,6.000001,5.999989
		s6-2.691586,6-5.999989v-4.043774c7.138014-2.532372,11.999998-9.29665,11.999998-16.956236
		c0-0.970469-0.080162-1.944437-0.238998-2.910036l1.007332-0.581408l0.560444,1.937265
		c0.414722,1.41011,1.675335,2.351801,3.139378,2.351801c1.425003,0,2.673626-0.911945,3.107048-2.269245L49.623352,8.98422
		c0.282475-0.807077,0.193886-1.742455-0.258259-2.521055c-0.445282-0.766786-1.197037-1.302115-2.066502-1.473152
		L34.41993,2.224576C34.193607,2.174431,33.950706,2.14762,33.710396,2.147587L33.710396,2.147587z"/>
</g>
</svg>
