<?xml version="1.0" encoding="utf-8"?>
<!-- Generator: Adobe Illustrator 26.3.1, SVG Export Plug-In . SVG Version: 6.00 Build 0)  -->
<svg version="1.2" baseProfile="tiny" id="Layer_1" xmlns="http://www.w3.org/2000/svg" xmlns:xlink="http://www.w3.org/1999/xlink"
	 x="0px" y="0px" viewBox="0 0 50 50" overflow="visible" xml:space="preserve">
<g>
	<path d="M37.828125,48.994141c-1.233398-0.058594-2.402344-0.574219-3.292969-1.452148
		C33.584961,46.578125,33.067383,45.323242,33.067383,44V28.316406c0-1.053711-0.567383-2.037109-1.480469-2.564453
		L15.111816,16.23584l4.999512-8.662109l18.068359,10.436523c3.014648,1.740723,4.887695,4.984863,4.887695,8.466309v17.297852
		c0,2.832031-2.294922,5.224609-5.011719,5.224609C37.980469,48.999023,37.904297,48.998047,37.828125,48.994141z"/>
	<path fill="#FFFFFF" d="M20.477339,8.94l17.20249,9.935821c2.715088,1.56818,4.387539,4.465519,4.387539,7.60095v17.297701
		c0.000011,2.245102-1.792084,4.225235-4.012669,4.225235c-0.059422,0-0.118973-0.001411-0.178982-0.004276
		c-1.0242-0.048912-1.950958-0.487492-2.638371-1.16547c-0.719967-0.72998-1.169979-1.72998-1.169979-2.82996V28.316561
		c0-1.414991-0.754749-2.72253-1.980042-3.430262L16.477339,15.87L20.477339,8.94 M19.745268,6.20754l-1.00009,1.73265l-4,6.93
		l-0.99951,1.731649l1.73135,1.000021l15.609989,9.0163c0.60471,0.349289,0.98036,1.000069,0.98036,1.6984V44
		c0,1.588982,0.62009,3.09277,1.74604,4.234379c1.085041,1.070419,2.486912,1.688103,3.966911,1.75877
		c0.0919,0.004402,0.183239,0.006561,0.27438,0.006561c1.623859,0,3.150829-0.676342,4.299629-1.90443
		c1.104679-1.180908,1.713051-2.715408,1.713039-4.32082V26.47677c0-3.837421-2.06427-7.413551-5.387241-9.33283L21.477638,7.20812
		L19.745268,6.20754L19.745268,6.20754z"/>
</g>
<g>
	<path d="M14.841309,26.056641c-1.168945,0-2.15625-0.71875-2.515137-1.831543L7.063477,7.907227
		C6.835449,7.271973,6.901367,6.539551,7.254883,5.927734s0.955078-1.035156,1.650391-1.161133L25.63623,1.171387
		c0.191895-0.041504,0.38623-0.0625,0.577637-0.0625c1.046875,0,1.994141,0.635254,2.413086,1.618164
		c0.420898,0.986816,0.217773,2.08252-0.52832,2.860352l-7.64209,7.962402l-3.074707,10.600098
		C17.050781,25.290527,16.029785,26.056641,14.841309,26.056641L14.841309,26.056641z"/>
	<path fill="#FFFFFF" d="M26.214134,2.109047c1.373173,0,2.196358,1.709183,1.163214,2.78558l-7.813049,8.1401l-3.14303,10.836361
		c-0.228699,0.788492-0.904209,1.186005-1.580051,1.186005c-0.658736,0-1.317792-0.377773-1.563408-1.139366L8.015259,7.600147
		c-0.29146-0.81413,0.21725-1.69525,1.06804-1.8499l16.762722-3.60127C25.972366,2.121833,26.095194,2.109047,26.214134,2.109047
		 M26.214128,0.109047c-0.261829,0-0.527,0.02844-0.78813,0.08453L8.687884,3.789566
		c-0.96862,0.187309-1.805019,0.78274-2.298995,1.638321C5.894974,6.283363,5.79746,7.305222,6.119414,8.237638l5.254935,16.293968
		c0.487181,1.510571,1.880401,2.52549,3.46687,2.52549c1.637911,0,3.044809-1.056459,3.500879-2.62888l3.005938-10.363664
		l7.472214-7.784996c1.028648-1.07172,1.307089-2.58331,0.726679-3.94489C28.970598,0.982657,27.662399,0.109047,26.214128,0.109047
		L26.214128,0.109047z"/>
</g>
</svg>
