<?xml version="1.0" encoding="utf-8"?>
<!-- Generator: Adobe Illustrator 26.3.1, SVG Export Plug-In . SVG Version: 6.00 Build 0)  -->
<svg version="1.2" baseProfile="tiny" id="Layer_1" xmlns="http://www.w3.org/2000/svg" xmlns:xlink="http://www.w3.org/1999/xlink"
	 x="0px" y="0px" viewBox="0 0 50 50" overflow="visible" xml:space="preserve">
<path fill="#999999" d="M25.000006,13.253835c8.559996,0,15.499998,6.940003,15.499998,15.500001
	s-6.940002,15.499998-15.499998,15.499998s-15.5-6.940002-15.5-15.499998S16.440008,13.253835,25.000006,13.253835z
	 M25.000006,37.253834c4.690002,0,8.499998-3.809998,8.499998-8.499998s-3.809996-8.5-8.499998-8.5s-8.5,3.809998-8.5,8.5
	S20.310003,37.253834,25.000006,37.253834z"/>
<g>
	<path d="M25.012207,48.999023C22.29541,48.999023,20,46.606445,20,43.774414v-4.595703
		c0-1.97168,1.582031-3.516602,3.601074-3.516602c0.166016,0,0.333984,0.010742,0.503418,0.033203l0.101074,0.016602
		c0.048828,0.00293,0.174316,0.010742,0.307617,0.019531C24.676758,35.741211,24.838379,35.75,25,35.75
		s0.323242-0.008789,0.484863-0.017578c0.135254-0.009766,0.260742-0.017578,0.385742-0.033203
		c0.778809-0.094727,1.526855-0.321289,2.231934-0.673828c0.102539-0.047852,0.180664-0.092773,0.258789-0.135742l0.168945-0.092773
		C30.65918,33.567383,32,31.243164,32,28.75c0-3.718262-2.905273-6.789062-6.614746-6.991699
		C25.273926,21.750488,25.166992,21.75,25.061035,21.75c-0.020508,0-0.040527,0-0.061035,0
		c-0.161133,0-0.321777,0.009277-0.483398,0.018555c-0.130859,0.007812-0.257812,0.015625-0.384277,0.032715
		c-0.443848,0.055664-0.850098,0.14502-1.214844,0.26709c-0.146973,0.040039-0.210938,0.064941-0.28125,0.094238
		c-0.40625,0.143555-0.77002,0.3125-1.137695,0.523926l-0.083984,0.056641c-0.710449,0.421875-1.492676,0.637207-2.286133,0.637207
		c-1.58252,0-3.056641-0.850098-3.847168-2.21875l-3.299316-5.716309l-2.369141,2.275879
		c-0.425293,0.411133-0.97998,0.63916-1.55957,0.63916l0,0c-0.687988,0-1.357422-0.322266-1.789551-0.862305
		c-0.422852-0.527344-0.57959-1.214844-0.429688-1.885742l2.768555-12.89209C8.778809,1.763184,9.637695,1.04834,10.63916,1.04834
		c0.234863,0,0.466797,0.039551,0.69043,0.117188l12.527344,4.042969c0.964355,0.307617,1.582031,1.163574,1.570801,2.179688
		c-0.011719,1.003906-0.664551,1.868652-1.625488,2.151367l-3.157227,0.915527l0.949707,1.642578
		C22.699707,11.866699,23.841797,11.75,25,11.75c9.374023,0,17,7.625977,17,17c0,7.508789-4.946289,14.106445-12.109375,16.275391
		c-0.197266,0.939453-0.663086,1.810547-1.348633,2.506836c-0.899414,0.887695-2.069336,1.40332-3.302246,1.461914
		C25.163574,48.998047,25.087891,48.999023,25.012207,48.999023z"/>
	<path fill="#FFFFFF" d="M10.639192,2.048259c0.118979,0,0.240649,0.019773,0.360812,0.061728l12.54999,4.049989
		c1.189999,0.38,1.160032,2.07-0.029968,2.419978l-4.380011,1.270022l1.959967,3.390011
		c1.270023-0.33001,2.580023-0.489988,3.900023-0.489988c8.780033,0,16,7.229977,16,16
		c0,7.399965-5.140011,13.70001-12.010012,15.489988c-0.059988,1-0.489988,1.909977-1.159966,2.589966
		c-0.687412,0.67799-1.614166,1.11657-2.638367,1.165478c-0.060009,0.002865-0.119551,0.00428-0.178972,0.00428
		c-2.220592,0-4.012695-1.980133-4.012684-4.225235v-4.595879c0-1.447613,1.195396-2.517002,2.601204-2.516872
		c0.122272,0.000011,0.246393,0.008114,0.371197,0.024761c0.0093,0.001247,0.018499,0.002422,0.027599,0.003513
		c0.150023,0.019966,0.29999,0.029976,0.460022,0.039978c0.179989,0.01001,0.359989,0.02002,0.539978,0.02002
		c0.18,0,0.359989-0.01001,0.539978-0.02002c0.160032-0.010002,0.309999-0.020012,0.460022-0.039978
		c0.909977-0.110046,1.770021-0.380001,2.54999-0.770012c0.150021-0.070011,0.299988-0.159977,0.45001-0.23999
		c2.390011-1.380009,4-3.970032,4-6.929998c0-4.260012-3.340023-7.760012-7.559999-7.989988
		c-0.140011-0.010012-0.289978-0.010012-0.440001-0.010012c-0.179989,0-0.359989,0.010012-0.539978,0.019955
		c-0.160032,0.010012-0.309999,0.020023-0.460022,0.040045c-0.479979,0.059999-0.95001,0.159979-1.400023,0.309999
		c-0.119999,0.029968-0.229977,0.070002-0.349977,0.119989c-0.429989,0.150034-0.849977,0.349977-1.25,0.580023
		c-0.030022,0.019955-0.059999,0.039978-0.090023,0.059999l-0.031454,0.018667
		c-0.55003,0.326504-1.153883,0.481613-1.750128,0.481613c-1.187372,0-2.343939-0.615561-2.980772-1.718725l-2.0676-3.58161
		l-1.870001-3.239989l-3.290033,3.160033c-0.259322,0.250689-0.566674,0.360193-0.866576,0.360193
		c-0.740891,0-1.435628-0.66888-1.243412-1.530238L9.580027,2.929998C9.677129,2.403949,10.134379,2.048259,10.639192,2.048259
		 M10.639193,0.048253c-1.471999,0-2.736012,1.042153-3.019215,2.4834L4.854582,15.410065
		c-0.2128,0.953278,0.015056,1.948067,0.628578,2.713577c0.620544,0.774279,1.581389,1.236546,2.570256,1.236546
		c0.840022,0,1.641456-0.327522,2.256656-0.922245l1.444024-1.386959l0.593742,1.028725l2.067689,3.581768
		c0.9681,1.677021,2.773978,2.718811,4.712878,2.718811c0.973244,0,1.931444-0.263422,2.771011-0.761789l0.045132-0.026789
		l0.075123-0.047789l0.031044-0.020695c0.295912-0.166605,0.584368-0.299353,0.858179-0.394896l0.055721-0.019432l0.054478-0.022701
		c0.023901-0.009954,0.045811-0.019754,0.068977-0.026731l0.074812-0.018679l0.069622-0.023445
		c0.305189-0.101744,0.646877-0.176699,1.015577-0.222788c0.120922-0.016068,0.225422-0.021534,0.336811-0.0285
		c0.131056-0.007189,0.273067-0.016056,0.415112-0.016056c0.035765,0,0.071537-0.000229,0.107002-0.000229
		c0.065065,0,0.12912,0.000771,0.190353,0.005152c3.212601,0.175354,5.702644,2.807777,5.702644,5.995077
		c0,2.132383-1.143671,4.119432-2.98605,5.189863l-0.135105,0.073971c-0.058489,0.03249-0.116144,0.066498-0.174633,0.093788
		l-0.024511,0.011444l-0.024189,0.012089c-0.602222,0.301132-1.24,0.494022-1.895622,0.573311
		c-0.128357,0.016933-0.233057,0.022434-0.344645,0.0294c-0.129313,0.007156-0.272257,0.016132-0.415245,0.016132
		c-0.142977,0-0.285933-0.008976-0.428911-0.016933c-0.097921-0.006165-0.202621-0.011665-0.307234-0.025589
		c-0.237467-0.031498-0.451256-0.045731-0.662477-0.045753c-1.203011-0.000099-2.339922,0.447945-3.201323,1.261623
		c-0.902832,0.852821-1.400055,2.0089-1.400055,3.255253v4.595879c-0.000011,1.6054,0.608366,3.1399,1.713045,4.320812
		c1.1488,1.228088,2.675777,1.904423,4.299633,1.904423c0.091101,0,0.1824-0.002155,0.27441-0.006557
		c1.479967-0.070679,2.881845-0.688354,3.947355-1.739265c0.691608-0.701748,1.194519-1.538345,1.482103-2.443039
		c7.29315-2.456333,12.283453-9.299225,12.283453-17.06085c0-9.925234-8.074768-18-18-18
		c-0.769474,0-1.532454,0.048669-2.28348,0.145316l1.360479-0.394483c1.392134-0.409411,2.333755-1.65459,2.350422-3.100612
		c0.016634-1.4427-0.895222-2.706767-2.269043-3.145466L11.614226,0.206642
		C11.329504,0.106631,10.986304,0.048253,10.639193,0.048253L10.639193,0.048253z"/>
</g>
</svg>
