<?xml version="1.0" encoding="utf-8"?>
<!-- Generator: Adobe Illustrator 26.3.1, SVG Export Plug-In . SVG Version: 6.00 Build 0)  -->
<svg version="1.2" baseProfile="tiny" id="Layer_1" xmlns="http://www.w3.org/2000/svg" xmlns:xlink="http://www.w3.org/1999/xlink"
	 x="0px" y="0px" viewBox="0 0 50 50" overflow="visible" xml:space="preserve">
<g>
	<path d="M25,49c-2.756836,0-5-2.243164-5-5V13h10v31C30,46.756836,27.756836,49,25,49z"/>
	<path fill="#FFFFFF" d="M29,14v30c0,2.209141-1.790859,4-4,4s-4-1.790859-4-4V14H29 M31,12h-2h-8h-2v2v30
		c0,3.308411,2.691589,6,6,6s6-2.691589,6-6V14V12L31,12z"/>
</g>
<g>
	<path d="M36.371094,19.000977c-0.216797-0.000488-0.436523-0.027344-0.654297-0.080566L25,16.282715L14.282715,18.92041
		c-0.216797,0.053223-0.437012,0.080566-0.654297,0.080566c-1.029785,0-1.971191-0.621582-2.397949-1.583496
		c-0.428223-0.963867-0.251953-2.05127,0.459473-2.838379L23.19043,1.862793C23.626465,1.348145,24.293457,1.039551,25,1.039551
		s1.374023,0.308594,1.831055,0.847168L38.30957,14.579102c0.711914,0.787598,0.887695,1.875,0.459961,2.838867
		C38.342773,18.379395,37.401367,19.000977,36.371094,19.000977L36.371094,19.000977z"/>
	<path fill="#FFFFFF" d="M25,2.039271c0.394188,0,0.788376,0.16487,1.068041,0.49461l11.500158,12.71629
		c0.988937,1.093518,0.147999,2.750562-1.196537,2.750562c-0.133911,0-0.273003-0.016472-0.415592-0.051561L25,15.252931
		l-10.95607,2.69624c-0.142685,0.035114-0.281597,0.051561-0.415593,0.051561c-1.344377,0-2.185406-1.657116-1.196537-2.750562
		l11.500159-12.71629C24.211624,2.204141,24.605812,2.039271,25,2.039271 M25,0.039271
		c-0.987993,0-1.921803,0.426573-2.568338,1.171841L10.94844,13.90867c-0.98049,1.08417-1.222679,2.584129-0.63209,3.91452
		c0.58722,1.322809,1.88726,2.17754,3.31199,2.17754c0.29762,0,0.59823-0.03684,0.89348-0.109489L25,17.312607l10.478142,2.578625
		c0.295269,0.072659,0.59589,0.109499,0.893517,0.109499c1.424793,0,2.724854-0.85471,3.312061-2.17749
		c0.590591-1.330379,0.348362-2.83035-0.632149-3.914559L27.568216,1.210975C26.921698,0.465858,25.987892,0.039271,25,0.039271
		L25,0.039271z"/>
</g>
<g>
	<path d="M13.73877,37.386719c-0.315918,0-0.624512-0.094727-0.891602-0.273438l-3.364746-2.258789l-3.375,2.241211
		c-0.266602,0.176758-0.572754,0.270508-0.886719,0.270508c-0.500488,0-0.980957-0.241211-1.285645-0.643555
		c-0.303711-0.402344-0.398438-0.913086-0.259766-1.402344l1.107422-3.897461l-3.173828-2.517578
		c-0.532715-0.422852-0.739746-1.112305-0.527832-1.758789c0.211914-0.645508,0.787109-1.078125,1.46582-1.102539l4.047852-0.151367
		l1.413574-3.796875c0.23584-0.634277,0.826172-1.044922,1.503906-1.044922c0.681152,0,1.272949,0.413086,1.507324,1.053223
		l1.394531,3.803223l4.047363,0.170898c0.677734,0.02832,1.250977,0.463867,1.459961,1.110352
		c0.208496,0.646484-0.001465,1.335938-0.535645,1.755859l-3.187012,2.500977l1.088379,3.90332
		c0.13623,0.488281,0.040039,0.99707-0.26416,1.397461C14.71875,37.147461,14.238281,37.386719,13.73877,37.386719z"/>
	<path fill="#FFFFFF" d="M9.512292,22.050911c0.235655,0,0.471286,0.132397,0.568249,0.396851l1.62436,4.430271l4.71447,0.19906
		c0.5616,0.023708,0.7903,0.73353,0.348181,1.080639l-3.711481,2.913881l1.26753,4.545238
		c0.115961,0.415829-0.213716,0.77002-0.584314,0.77002c-0.111948,0-0.227554-0.032276-0.335835-0.104939l-3.91819-2.629391
		l-3.93108,2.61005c-0.107669,0.071487-0.22248,0.103298-0.333496,0.103298c-0.37183,0-0.701705-0.356522-0.583374-0.7729
		l1.28991-4.538939l-3.69708-2.932131c-0.44041-0.349289-0.20821-1.05797,0.3535-1.078909l4.71539-0.17584l1.64616-4.422211
		C9.043025,22.182152,9.27767,22.050913,9.512292,22.050911 M9.512291,20.050913c-1.09953,0-2.05786,0.66585-2.441451,1.696329
		l-1.180425,3.17107L2.50911,25.044403c-1.10167,0.041069-2.03533,0.744549-2.37859,1.7922
		c-0.34327,1.047649-0.00694,2.16725,0.85683,2.85232l2.651105,2.102568l-0.924965,3.25477
		c-0.22552,0.793533-0.07121,1.624161,0.42337,2.278881c0.49229,0.65168,1.27129,1.040749,2.08382,1.040749
		c0.51122,0,1.00909-0.151157,1.43979-0.43713l2.818863-1.871593l2.809657,1.885487
		c0.433089,0.290619,0.934589,0.444218,1.450299,0.444218c0.810081,0,1.58768-0.38715,2.08007-1.035641
		c0.49465-0.651459,0.65164-1.479427,0.43074-2.271606l-0.908927-3.259306l2.661416-2.089476
		c0.867151-0.680799,1.20899-1.798731,0.87089-2.848061c-0.338089-1.04933-1.26828-1.75741-2.369749-1.803909l-3.380638-0.142742
		l-1.164792-3.176847C11.577801,20.721493,10.617681,20.050913,9.512291,20.050913L9.512291,20.050913z"/>
</g>
</svg>
