<?xml version="1.0" encoding="utf-8"?>
<!-- Generator: Adobe Illustrator 26.3.1, SVG Export Plug-In . SVG Version: 6.00 Build 0)  -->
<svg version="1.2" baseProfile="tiny" id="Layer_1" xmlns="http://www.w3.org/2000/svg" xmlns:xlink="http://www.w3.org/1999/xlink"
	 x="0px" y="0px" viewBox="0 0 50 50" overflow="visible" xml:space="preserve">
<g>
	<path d="M33.161133,48.994141c-1.233398-0.058594-2.402344-0.574219-3.292969-1.452148
		C28.917969,46.578125,28.400391,45.323242,28.400391,44V33.530273c0-0.826172-0.217773-1.640625-0.630859-2.355469
		L18.064453,14.36377l8.662109-5l10.259766,17.775879c0.924805,1.59668,1.414062,3.417969,1.414062,5.264648v11.370117
		c0,2.832031-2.294922,5.224609-5.011719,5.224609C33.313477,48.999023,33.237305,48.998047,33.161133,48.994141z"/>
	<path fill="#FFFFFF" d="M26.360535,10.72998l9.759941,16.91003v0.00001c0.83849,1.44763,1.280029,3.090919,1.280029,4.763849
		l0.000011,11.370602c0,2.245113-1.792095,4.225239-4.01268,4.225239c-0.059422,0-0.118973-0.001415-0.178982-0.00428
		c-1.0242-0.048908-1.95096-0.487488-2.638359-1.16547C29.850525,46.099972,29.400505,45.099972,29.400505,44V33.530529
		c0-1.002666-0.26391-1.987679-0.765209-2.856039l-9.20476-15.94451L26.360535,10.72998 M27.092936,7.997991l-1.73221,0.99983
		l-6.93,4l-1.73229,0.99988l1.000011,1.73221l9.20476,15.94451c0.32534,0.563551,0.497299,1.205389,0.497299,1.856108V44
		c0,1.588951,0.62009,3.092751,1.74604,4.234371c1.08503,1.070431,2.4869,1.68811,3.966911,1.758781
		c0.0919,0.004398,0.183239,0.006557,0.27438,0.006557c3.259209,0,6.01268-2.850811,6.01268-6.225239L39.400505,32.40387
		c0-2.022348-0.53577-4.016298-1.549381-5.76627L28.092726,9.730221L27.092936,7.997991L27.092936,7.997991z"/>
</g>
<g>
	<path d="M14.26123,23.093262c-0.800293-0.000488-1.580078-0.374023-2.085938-1.000488
		c-0.50293-0.622559-0.685547-1.40625-0.513184-2.206055l3.601074-16.762695c0.20166-1.111328,1.194824-1.94043,2.35498-1.94043
		c0.275391,0,0.547852,0.047363,0.80957,0.141113l16.287109,5.252441c1.130859,0.364746,1.850586,1.367676,1.833008,2.555664
		c-0.018555,1.187988-0.766602,2.168945-1.908203,2.5L24.040527,14.70752l-7.962891,7.642578
		C15.578125,22.829102,14.933105,23.093262,14.26123,23.093262L14.26123,23.093262z"/>
	<path fill="#FFFFFF" d="M17.618038,2.183529c0.156218,0,0.315651,0.026453,0.472572,0.082631l16.31757,5.26257
		c1.542961,0.497611,1.510391,2.69185-0.04665,3.14346L23.525181,13.81521l-8.14012,7.81304
		c-0.336668,0.323139-0.734989,0.464647-1.123784,0.464647c-0.96193,0-1.864367-0.867178-1.621856-1.995977l3.60129-16.76272
		C16.365553,2.647407,16.963779,2.183529,17.618038,2.183529 M17.618042,0.18353c-1.631356,0-3.029092,1.156509-3.338055,2.755455
		L10.684041,19.67683c-0.23312,1.085079,0.026851,2.19463,0.713261,3.04417c0.69409,0.859039,1.76474,1.371899,2.863979,1.371899
		c0.931291,0,1.82224-0.36286,2.5087-1.02174l7.785038-7.472216l10.363644-3.005914
		c1.548248-0.44907,2.604557-1.83377,2.628468-3.44565c0.023922-1.61188-0.990829-3.02731-2.525078-3.52211l-16.29393-5.254949
		C18.369267,0.246363,17.995991,0.18353,17.618042,0.18353L17.618042,0.18353z"/>
</g>
</svg>
