<?xml version="1.0" encoding="utf-8"?>
<!-- Generator: Adobe Illustrator 26.3.1, SVG Export Plug-In . SVG Version: 6.00 Build 0)  -->
<svg version="1.2" baseProfile="tiny" id="Layer_1" xmlns="http://www.w3.org/2000/svg" xmlns:xlink="http://www.w3.org/1999/xlink"
	 x="0px" y="0px" viewBox="0 0 50 50" overflow="visible" xml:space="preserve">
<path fill="#999999" d="M25,0.5C16.440002,0.5,9.5,7.440002,9.5,16S16.440002,31.5,25,31.5S40.5,24.559998,40.5,16
	S33.559998,0.5,25,0.5z M25,24.5c-4.690002,0-8.5-3.809998-8.5-8.5s3.809998-8.5,8.5-8.5s8.5,3.809998,8.5,8.5
	S29.690002,24.5,25,24.5z"/>
<g>
	<path d="M25,49c-2.756836,0-5-2.243164-5-5v-1.787109L9.426758,45.62207c-0.212891,0.070312-0.440918,0.108398-0.666992,0.108398
		c-1.003906,0-1.867188-0.712891-2.052246-1.695312l-2.765137-12.875c-0.146973-0.664062,0.01123-1.349609,0.43457-1.876953
		c0.434082-0.540039,1.104492-0.863281,1.792969-0.863281c0.57959,0,1.134766,0.227539,1.563477,0.639648l2.359863,2.266602
		l4.339844-7.514648c0.255859-0.429688,0.528809-0.779297,0.843262-1.082031c0.23291-0.233398,0.506836-0.449219,0.823242-0.647461
		c0.785156-0.50293,1.71875-0.771973,2.69043-0.771973c0.910156,0,1.805664,0.235352,2.595215,0.680664l0.133789,0.044434
		l0.07959,0.075195c0.969727,0.543945,2.056641,0.847656,3.150879,0.880371C24.847656,22.999023,24.906738,23,24.953613,23
		C24.970215,23,24.985352,23,25,23c0.358887,0,0.657227,0.026367,1.007812,0.08252
		c0.22168,0.048828,0.361328,0.083984,0.515625,0.131348C28.59668,23.813477,30,25.650391,30,27.780273V44
		C30,46.756836,27.756836,49,25,49z M20,36.6875v-2.508789l-1.244141,2.147461L20,36.6875z"/>
	<path fill="#FFFFFF" d="M18.78998,22.309999c0.740049,0,1.490049,0.189999,2.17004,0.58996
		c0.009951,0.01001,0.02997,0.01001,0.03998,0.02002c1.099979,0.64002,2.369989,1.030029,3.719971,1.070009
		c0.090029,0.01001,0.189999,0.01001,0.280029,0.01001h0.070011c0.27002,0,0.529968,0.02997,0.779968,0.070011
		c0.130001,0.02997,0.25,0.059999,0.380001,0.09997C27.820011,24.630009,29,26.029968,29,27.779968v16.220039
		C29,46.209137,27.209141,48,25,48s-4-1.790863-4-3.999992V40.83997L9.11999,44.669979C9,44.709957,8.88,44.72998,8.76001,44.72998
		c-0.51001,0-0.970029-0.349972-1.07001-0.880001L4.91998,30.950008c-0.19-0.860039,0.51001-1.530029,1.25-1.530029
		c0.29999,0,0.61005,0.109989,0.87,0.359989l3.28003,3.150021l1.75-3.02002l1.53998-2.669981l1.46002-2.530029l0.22998-0.39996
		c0.19-0.320011,0.410029-0.609991,0.66998-0.859991c0.20001-0.20001,0.42004-0.37005,0.66003-0.52002
		C17.27002,22.519958,18.02002,22.309999,18.78998,22.309999 M21,38.019958v-5.59441
		c0-0.330292-0.266405-0.530754-0.535929-0.530724c-0.172682,0.000019-0.34668,0.08234-0.452591,0.265545L19,33.909969
		l-1.75,3.02002L21,38.019958 M18.78998,20.309999c-1.163139,0-2.283119,0.323639-3.23887,0.935949
		c-0.36217,0.22617-0.69398,0.48847-0.99535,0.78985c-0.34815,0.33429-0.68573,0.7651-0.975491,1.253149l-0.24407,0.424061
		l-1.458469,2.52734l-1.5402,2.67037l-0.47026,0.811535l-1.44195-1.384794c-0.61483-0.591301-1.416161-0.91748-2.255341-0.91748
		c-0.98879,0-1.95062,0.46253-2.57289,1.23728c-0.61398,0.76442-0.84361,1.757349-0.63002,2.72419l2.763647,12.870478
		c0.286577,1.437771,1.555445,2.478054,3.029293,2.478054c0.33465,0,0.66847-0.054691,0.992201-0.162552L19,43.586094v0.413914
		C19,47.308418,21.691589,50,25,50s6-2.691582,6-5.999992V27.779968c0-2.579109-1.69355-4.80192-4.21417-5.5312
		c-0.145519-0.045029-0.30912-0.086729-0.486559-0.12764l-0.066061-0.01523l-0.06694-0.010719
		c-0.405439-0.064939-0.753778-0.095181-1.096258-0.095181H25l-0.09334-0.00075l-0.080669-0.00897l-0.04682,0.000591
		c-0.885376-0.026228-1.76623-0.261415-2.562254-0.6824l-0.136328-0.136332l-0.285021-0.097132
		C20.875854,20.573935,19.841171,20.309999,18.78998,20.309999L18.78998,20.309999z"/>
</g>
<path fill="#FFFFFF" d="M24.549988,39.349976c0.02002,1.450012-0.880005,2.720032-2.25,3.169983l-0.690002,0.220032
	L9.780029,46.559998c-0.330017,0.109985-0.670044,0.169983-1.02002,0.169983c-1.47998,0-2.75-1.039978-3.030029-2.47998
	L2.960022,31.369995c-0.200012-0.970032,0.029968-1.960022,0.649963-2.720032c0.619995-0.769958,1.580017-1.22998,2.559998-1.22998
	c0.840027,0,1.640015,0.330017,2.26001,0.919983l1.440002,1.380005l0.470032-0.809998l1.72998,1l-1.75,3.02002l-3.280029-3.150024
	c-0.259949-0.25-0.570007-0.359985-0.869995-0.359985c-0.73999,0-1.440002,0.669983-1.25,1.530029l2.77002,12.899963
	C7.789978,44.380005,8.25,44.72998,8.76001,44.72998c0.119995,0,0.23999-0.02002,0.359985-0.059998L21,40.839966l0.679993-0.219971
	c1.179993-0.390015,1.150024-2.080017-0.049988-2.419983L21,38.019958l-3.75-1.089966l1.75-3.02002l1.72998,1l-0.469971,0.809998
	l1.289978,0.380005l0.630005,0.179993C23.570007,36.669983,24.52002,37.909973,24.549988,39.349976z"/>
</svg>
