<?xml version="1.0" encoding="utf-8"?>
<!-- Generator: Adobe Illustrator 26.3.1, SVG Export Plug-In . SVG Version: 6.00 Build 0)  -->
<svg version="1.2" baseProfile="tiny" id="Layer_1" xmlns="http://www.w3.org/2000/svg" xmlns:xlink="http://www.w3.org/1999/xlink"
	 x="0px" y="0px" viewBox="0 0 50 50" overflow="visible" xml:space="preserve">
<path fill="#999999" d="M49.919983,11.579956c0,1.02002-0.389954,2.040039-1.169983,2.830017l-16.75,16.75v-0.47998
	c0-2.660034-1.049988-5.200012-2.929993-7.080017l-0.419983-0.409973L43.090027,8.75
	c1.569946-1.559998,4.099976-1.559998,5.659973,0C49.530029,9.529968,49.919983,10.549988,49.919983,11.579956z"/>
<g>
	<path d="M28.000212,49c-2.756836,0-5-2.243164-5-5V31.957031c0-1.09082-0.425293-2.117188-1.197266-2.889648L6.954802,14.219238
		l7.075684-7.062988l15.745117,15.73584c2.079102,2.079102,3.224607,4.843262,3.224607,7.782715V44
		C33.00021,46.756836,30.757048,49,28.000212,49z"/>
	<path fill="#FFFFFF" d="M14.030029,8.570004l15.03813,15.02976c1.877171,1.87612,2.931839,4.42132,2.931839,7.075291v13.324949
		c0,2.209141-1.790859,4-3.999998,4s-4-1.790859-4-4v-12.04328c0-1.34893-0.53586-2.642611-1.4897-3.596441L8.37,14.219974
		L14.030029,8.570004 M14.03089,5.743224l-1.41382,1.41131l-5.66003,5.64997l-1.41673,1.41421l1.41548,1.41547l14.140301,14.14031
		C21.678989,30.357393,22,31.132383,22,31.956724v12.04328c0,3.308411,2.691589,6,6,6s5.999996-2.691589,5.999996-6V30.675055
		c0-3.207432-1.24939-6.222542-3.518017-8.489901L15.44385,7.155394L14.03089,5.743224L14.03089,5.743224z"/>
</g>
<g>
	<path d="M4.553711,23.271484c-1.442383,0-2.584961-1.080566-2.656738-2.513184L1.037109,3.634277
		C0.984375,2.999023,1.212402,2.334961,1.665527,1.843262c0.453125-0.492188,1.096191-0.774414,1.763184-0.774414
		c0.065918,0,17.291504,0.866211,17.291504,0.866211c1.186523,0.05957,2.140625,0.842285,2.430664,1.994629
		c0.290527,1.151855-0.178711,2.292969-1.194824,2.907715l-9.443359,5.713379l-5.713379,9.443359
		C6.31543,22.793945,5.476074,23.271484,4.553711,23.271484z"/>
	<path fill="#FFFFFF" d="M3.42902,2.06897c0.038691,0,0.077763,0.001587,0.117108,0.00482l17.123631,0.85994
		c1.619171,0.08131,2.155621,2.20921,0.76852,3.04842l-9.65364,5.84058l-5.84058,9.65364
		c-0.331146,0.547338-0.862925,0.79517-1.390459,0.79517c-0.809376,0-1.608735-0.583431-1.657961-1.56369L2.035698,3.58423
		C1.968112,2.761746,2.620242,2.06897,3.42902,2.06897 M3.429018,0.06897c-0.94589,0-1.85672,0.39985-2.49896,1.09703
		c-0.632937,0.687086-0.956329,1.612101-0.890593,2.54337l0.858693,17.098791c0.09753,1.942089,1.70319,3.463379,3.65544,3.463379
		c1.27544,0,2.43493-0.6579,3.10165-1.759871l5.585799-9.232532l9.232521-5.585798
		c1.379271-0.83447,2.041201-2.44538,1.64712-4.00853c-0.394079-1.56315-1.740589-2.66771-3.350618-2.74856L3.671613,0.077574
		C3.590167,0.0718,3.509249,0.06897,3.429018,0.06897L3.429018,0.06897z"/>
</g>
</svg>
