<?xml version="1.0" encoding="utf-8"?>
<!-- Generator: Adobe Illustrator 26.3.1, SVG Export Plug-In . SVG Version: 6.00 Build 0)  -->
<svg version="1.2" baseProfile="tiny" id="Layer_1" xmlns="http://www.w3.org/2000/svg" xmlns:xlink="http://www.w3.org/1999/xlink"
	 x="0px" y="0px" viewBox="0 0 50 50" overflow="visible" xml:space="preserve">
<g>
	<path d="M36.5,49c-0.160156,0-0.322266-0.007812-0.486328-0.023438C33.482422,48.737305,31.5,46.475586,31.5,43.829102v-9.325195
		C31.5,34.225586,31.274414,34,30.996094,34h-7.497559C19.087891,34,15.5,30.412109,15.5,26.001953V11h10v12.499512
		C25.5,23.775391,25.724121,24,26,24h7.503906C37.913086,24,41.5,27.586914,41.5,31.996094V44
		c0,1.335938-0.519531,2.591797-1.463867,3.536133C39.091797,48.479492,37.835938,49,36.5,49L36.5,49z"/>
	<path fill="#FFFFFF" d="M24.5,12v11.499611C24.5,24.328251,25.171749,25,26.000389,25h7.503983
		C37.36795,25,40.5,28.13205,40.5,31.99563V44c0,2.209972-1.789948,3.999992-3.999985,3.999992
		c-0.129063,0-0.259613-0.006107-0.391266-0.018593c-2.080158-0.197258-3.608761-2.06234-3.608749-4.151829V34.50388
		C32.5,33.673309,31.826691,33,30.99612,33h-7.497711C19.633301,33,16.5,29.866701,16.5,26.001591V12H24.5 M26.5,10h-2h-8h-2v2
		v14.001591C14.5,30.963331,18.536671,35,23.498409,35H30.5v8.829571c-0.000019,3.156399,2.380711,5.854691,5.419941,6.142899
		c0.195221,0.018501,0.388748,0.027519,0.58007,0.027519C39.808418,49.999989,42.5,47.308411,42.5,44V31.99563
		C42.5,27.035419,38.464581,23,33.504372,23H26.5V12V10L26.5,10z"/>
</g>
<g>
	<path d="M30.12207,16.552734c-0.196289,0-0.394531-0.024414-0.59082-0.072266L20.5,14.257812l-9.031738,2.222656
		c-0.195801,0.047852-0.394043,0.072266-0.590332,0.072266c-0.932129,0-1.783691-0.561523-2.169922-1.430664
		C8.320801,14.25,8.47998,13.266602,9.123535,12.555176l9.730957-10.760254C19.249512,1.328613,19.856934,1.047363,20.5,1.047363
		s1.250488,0.28125,1.666504,0.771973l9.709473,10.735352c0.643555,0.711914,0.802734,1.695312,0.416016,2.566895
		C31.90625,15.991211,31.054688,16.552734,30.12207,16.552734z"/>
	<path fill="#FFFFFF" d="M20.5,2.047073c0.333546,0,0.667089,0.139505,0.90373,0.418515l9.7309,10.75994
		c0.836731,0.925221,0.125095,2.327398-1.012453,2.327398c-0.113382,0-0.230925-0.013917-0.351658-0.043629L20.5,13.227868
		l-9.27052,2.28143c-0.120652,0.029692-0.238346,0.043629-0.351656,0.043629c-1.137683,0-1.849242-1.402115-1.012454-2.327398
		l9.7309-10.75994C19.832911,2.186578,20.166454,2.047073,20.5,2.047073 M20.5,0.047068
		c-0.924202,0-1.797838,0.398576-2.403316,1.094951L8.382,11.884028c-0.91243,1.00893-1.13771,2.40506-0.58792,3.64355
		c0.54618,1.23035,1.75662,2.025351,3.08374,2.025351c0.27659,0,0.5557-0.03417,0.82957-0.10157L20.5,15.287544l8.792589,2.163815
		c0.273891,0.0674,0.553001,0.10157,0.829592,0.10157c1.327068,0,2.537479-0.795012,3.083668-2.025381
		c0.549801-1.238509,0.324551-2.63462-0.587849-3.643519L22.903316,1.14202C22.297838,0.445645,21.424202,0.047068,20.5,0.047068
		L20.5,0.047068z"/>
</g>
</svg>
