<?xml version="1.0" encoding="utf-8"?>
<!-- Generator: Adobe Illustrator 26.3.1, SVG Export Plug-In . SVG Version: 6.00 Build 0)  -->
<svg version="1.2" baseProfile="tiny" id="Layer_1" xmlns="http://www.w3.org/2000/svg" xmlns:xlink="http://www.w3.org/1999/xlink"
	 x="0px" y="0px" viewBox="0 0 50 50" overflow="visible" xml:space="preserve">
<path fill="#999999" d="M0,24.999996v0.000008C0,26.932999,1.567002,28.5,3.499996,28.5H28.5v-7H3.499996
	C1.567002,21.5,0,23.067001,0,24.999996z"/>
<g>
	<path d="M25,49c-2.481445,0-4.5-2.018555-4.5-4.5V13.307617l-2.839844,0.703125
		c-0.174805,0.043457-0.352539,0.06543-0.528809,0.06543c-0.833984,0-1.596191-0.50293-1.941895-1.280762
		c-0.34668-0.780762-0.205566-1.660645,0.368164-2.295898l7.960449-8.800293C23.873535,1.279785,24.421387,1.025391,25,1.025391
		s1.126953,0.254395,1.50293,0.697754l7.938477,8.775879c0.575195,0.635742,0.71582,1.515625,0.369141,2.296387
		c-0.345703,0.777832-1.108398,1.280762-1.942383,1.280762c-0.175781,0-0.353516-0.021973-0.52832-0.06543L29.5,13.307617V44.5
		C29.5,46.981445,27.481445,49,25,49z"/>
	<path fill="#FFFFFF" d="M25,2.024981c0.272491,0,0.544983,0.115005,0.739988,0.345017l7.960024,8.799989
		c0.681839,0.754579,0.098942,1.906005-0.831585,1.906005c-0.093021,0-0.18935-0.011477-0.288406-0.036016L28.5,12.029964v32.470032
		c0,1.93-1.570011,3.5-3.5,3.5s-3.5-1.57-3.5-3.5V12.029964l-4.080023,1.010011
		c-0.098989,0.024524-0.195442,0.036016-0.288406,0.036016c-0.930634,0-1.513467-1.151376-0.831581-1.906005l7.960022-8.799989
		C24.455017,2.139987,24.727509,2.024981,25,2.024981 M25,0.024975c-0.859587,0-1.673191,0.371461-2.238909,1.02071
		l-7.944336,8.782646c-0.843544,0.933544-1.050589,2.225644-0.541033,3.372855
		c0.505866,1.138901,1.626855,1.874801,2.855844,1.874801c0.256844,0,0.515688-0.031856,0.769333-0.094689l1.5991-0.39586v29.914558
		c0,3.032711,2.467289,5.5,5.5,5.5s5.5-2.467289,5.5-5.5V14.585435l1.599434,0.395941
		c0.253212,0.062744,0.512089,0.094611,0.769001,0.094611c1.228954,0,2.349911-0.735923,2.855789-1.874845
		c0.509563-1.147223,0.302532-2.439311-0.540291-3.372045l-7.945103-8.7835C26.673141,0.396467,25.859512,0.024975,25,0.024975
		L25,0.024975z"/>
</g>
</svg>
