<?xml version="1.0" encoding="utf-8"?>
<!-- Generator: Adobe Illustrator 26.3.1, SVG Export Plug-In . SVG Version: 6.00 Build 0)  -->
<svg version="1.2" baseProfile="tiny" id="Layer_1" xmlns="http://www.w3.org/2000/svg" xmlns:xlink="http://www.w3.org/1999/xlink"
	 x="0px" y="0px" viewBox="0 0 50 50" overflow="visible" xml:space="preserve">
<path fill="#999999" d="M20.000025,7.499976c-8.559999,0-15.500001,6.940002-15.500001,15.5s6.940002,15.500002,15.500001,15.500002
	s15.499998-6.940004,15.499998-15.500002S28.560022,7.499976,20.000025,7.499976z M20.000025,31.499975
	c-4.690003,0-8.500001-3.809998-8.500001-8.5s3.809998-8.5,8.500001-8.5s8.5,3.809998,8.5,8.5
	S24.690027,31.499975,20.000025,31.499975z"/>
<g>
	<path d="M20,49c-2.756836,0-5-2.243164-5-5v-4.764648C6.802734,36.694336,1.697754,28.304688,3.302734,19.783203
		c1.124512-5.97168,5.392578-10.897461,11.138184-12.85498C16.249512,6.3125,18.119629,6,19.999512,6
		c4.415039,0,8.686035,1.745605,11.840332,4.814941l2.537109-1.471191l-2.268555-2.36084
		c-0.641602-0.664062-0.818359-1.604492-0.458008-2.452637c0.355469-0.839844,1.164062-1.382324,2.05957-1.382324
		c0.167969,0,0.337891,0.018555,0.505859,0.055664l12.894531,2.769043c0.568359,0.104004,1.085938,0.468262,1.390625,0.993164
		c0.304688,0.526367,0.364258,1.158691,0.162109,1.734863L44.62207,21.227051
		c-0.304688,0.953125-1.150391,1.570801-2.154297,1.570801c-1.016602,0-1.891602-0.65332-2.176758-1.625977l-0.916992-3.16748
		l-6.048828,3.491211c-0.801758,0.462402-1.712891,0.707031-2.636719,0.707031c-1.90332,0-3.668945-1.023926-4.607422-2.672363
		c-0.564453-0.98584-1.343262-1.803711-2.270508-2.398438C22.666504,16.390625,21.350098,16,20.000488,16
		c-0.293457,0-0.591797,0.018066-0.893555,0.055664c-3.007324,0.374023-5.536133,2.805664-6.013672,5.781738
		c-0.469238,2.928711,0.866699,5.760254,3.403809,7.215332C17.551758,29.674805,18.759277,30,20,30c2.781738,0,5,2.21875,5,4.945312
		V44C25,46.756836,22.756836,49,20,49z"/>
	<path fill="#FFFFFF" d="M33.710117,4.147589c0.093525-0.000007,0.190323,0.010374,0.289879,0.032409l12.900032,2.770011
		c0.649956,0.12,1.039978,0.789978,0.819942,1.419989l-4.049988,12.549989c-0.187588,0.587446-0.694557,0.877634-1.201824,0.877634
		c-0.520317,0-1.040955-0.30508-1.218163-0.9076l-1.270012-4.390022l-7.154701,4.129311
		c-0.673138,0.388502-1.409496,0.573046-2.136372,0.573046c-1.493732,0-2.948362-0.778717-3.738605-2.166679l-0.020311-0.035677
		c-0.630011-1.100033-1.520021-2.030024-2.580023-2.710022c-1.249916-0.809944-2.740068-1.289915-4.349937-1.289969
		c-0.334124-0.000011-0.67314,0.02065-1.016529,0.063324c-3.461233,0.430145-6.3251,3.171855-6.877388,6.615712
		c-0.560734,3.496532,1.154022,6.67041,3.893877,8.240944c1.169989,0.690001,2.539989,1.080011,4,1.080011l0.043777-0.000111
		c0.003454-0.00001,0.0072-0.000015,0.010651-0.000015c2.171213,0,3.945572,1.773199,3.945572,3.945681v9.054455
		c0,2.209133-1.790855,3.999989-3.999989,3.999989h-0.000011c-2.209133,0-4-1.790855-4-3.999989v-5.520031
		c-7.7922-2.030258-13.345922-9.849823-11.714455-18.511879c1.051489-5.582689,5.100111-10.2611,10.47751-12.092934
		c1.744627-0.594312,3.509848-0.875155,5.236977-0.875155c4.470257,0,8.68981,1.879814,11.669956,5.07l4.310001-2.5
		l-3.149967-3.280034C32.031013,5.46346,32.657543,4.147667,33.710117,4.147589 M33.710117,2.147587h-0.000145
		c-1.297401,0.0001-2.467333,0.782067-2.980556,1.992155c-0.511232,1.205411-0.251133,2.595067,0.662657,3.540311l1.380991,1.438019
		l-0.79356,0.460302c-3.276932-2.926493-7.559679-4.578366-11.979475-4.578366c-1.990145,0-3.969101,0.330389-5.881889,0.981989
		C8.032217,8.055186,3.511472,13.272498,2.320095,19.597908c-1.652649,8.774517,3.415688,17.416885,11.679899,20.357563v4.044537
		c0,3.308403,2.691589,5.999989,6,5.999989s6-2.691586,6-5.999989v-9.054455c0-3.278456-2.667166-5.945677-5.945566-5.945677
		l-0.054434,0.000122c-1.061689,0-2.093544-0.277578-2.984022-0.802734c-2.194555-1.258133-3.338255-3.68751-2.935089-6.201532
		c0.408434-2.546833,2.574022-4.627634,5.149279-4.947666c0.256634-0.0319,0.515633-0.048067,0.769812-0.048056
		c1.156677,0.000044,2.284788,0.3349,3.262377,0.968388c0.801088,0.513924,1.466545,1.212645,1.932123,2.025568
		c1.133566,1.990988,3.2321,3.208387,5.494444,3.208387c1.098543,0,2.182989-0.290754,3.136099-0.840832l4.943302-2.853018
		l0.560455,1.937317c0.414722,1.41011,1.675343,2.351801,3.139389,2.351801c1.424988,0,2.673611-0.911934,3.107044-2.269245
		L49.623318,8.98422c0.282478-0.807077,0.19389-1.742444-0.258255-2.521044C48.9198,5.69639,48.168179,5.16108,47.298759,4.990044
		L34.419884,2.224576C34.193329,2.174387,33.950394,2.147587,33.710117,2.147587L33.710117,2.147587z"/>
</g>
</svg>
