<?xml version="1.0" encoding="utf-8"?>
<!-- Generator: Adobe Illustrator 26.3.1, SVG Export Plug-In . SVG Version: 6.00 Build 0)  -->
<svg version="1.2" baseProfile="tiny" id="Layer_1" xmlns="http://www.w3.org/2000/svg" xmlns:xlink="http://www.w3.org/1999/xlink"
	 x="0px" y="0px" viewBox="0 0 50 50" overflow="visible" xml:space="preserve">
<g>
	<path d="M9.46875,49c-2.756836,0-5-2.243164-5-5V13.5c0-1.9375,0.753906-3.758301,2.122559-5.126953
		C7.960938,7.003906,9.781738,6.25,11.71875,6.25c1.273438,0,2.529297,0.336914,3.630859,0.974121l20.205078,11.669922l-5,8.662598
		L14.46875,18.262695V44C14.46875,46.756836,12.225586,49,9.46875,49z"/>
	<path fill="#FFFFFF" d="M11.718561,7.25c1.10003,0,2.18005,0.28998,3.13,0.83997l19.340031,11.17004l-4,6.929991l-16.72003-9.66003
		V44c0,2.209141-1.79086,4-4,4h-0.00001c-2.20914,0-3.99999-1.790859-3.99999-4V13.5c0-1.72003,0.70001-3.29004,1.83001-4.42004
		C8.428581,7.95001,9.998581,7.25,11.718561,7.25 M11.718561,5.25c-2.20434,0-4.27629,0.85792-5.83417,2.41571
		C4.326511,9.2236,3.468561,11.29557,3.468561,13.5V44c0,3.308411,2.69158,6,5.99999,6c3.308419,0,6.00001-2.691589,6.00001-6
		V19.995275l13.719511,7.926474l1.73246,1.000931l1.000219-1.73287l3.999998-6.929989l0.999542-1.731701l-1.73143-1
		L15.848831,6.35808C14.597391,5.63353,13.168531,5.25,11.718561,5.25L11.718561,5.25z"/>
</g>
<g>
	<path d="M25.024902,34.352539c-1.046875,0-1.994141-0.634766-2.413086-1.618164
		c-0.42041-0.986328-0.217773-2.082031,0.528809-2.859375l7.642578-7.963379l3.075195-10.600098
		c0.330078-1.140625,1.350586-1.906738,2.540039-1.906738c1.168945,0,2.15625,0.71875,2.514648,1.832031l6.470703,16.975098
		c0.245117,0.68457,0.178711,1.416992-0.174805,2.02832c-0.352539,0.612305-0.954102,1.035156-1.648438,1.162109
		l-18.008789,2.897461C25.411133,34.331055,25.216309,34.352539,25.024902,34.352539z"/>
	<path fill="#FFFFFF" d="M36.398117,10.404514c0.658821-0.00006,1.317764,0.37768,1.563412,1.139361l6.487278,17.0247
		c0.29147,0.814131-0.217251,1.695251-1.068039,1.849901l-17.987461,2.89415
		c-0.126249,0.027122-0.249262,0.039928-0.368116,0.039928c-1.373344,0-2.196424-1.70911-1.163214-2.785568l7.813051-8.14011
		l3.14303-10.83635C35.046734,10.802122,35.722355,10.404576,36.398117,10.404514 M36.398277,8.404515h-0.000179
		c-1.637939,0.00015-3.04483,1.056601-3.50087,2.62886l-3.005938,10.363675l-7.472214,7.785004
		c-1.02869,1.071751-1.307169,2.583351-0.72677,3.944921c0.576321,1.35199,1.88455,2.225578,3.33288,2.225578
		c0.24173,0,0.486294-0.024235,0.727892-0.072098l17.9454-2.887383c1.02462-0.185829,1.876328-0.785559,2.376709-1.652258
		c0.500389-0.866692,0.59391-1.904161,0.25658-2.846371l-6.48595-17.022358
		C39.33577,9.370925,37.989082,8.404515,36.398277,8.404515L36.398277,8.404515z"/>
</g>
</svg>
