<?xml version="1.0" encoding="utf-8"?>
<!-- Generator: Adobe Illustrator 26.3.1, SVG Export Plug-In . SVG Version: 6.00 Build 0)  -->
<svg version="1.2" baseProfile="tiny" id="Layer_1" xmlns="http://www.w3.org/2000/svg" xmlns:xlink="http://www.w3.org/1999/xlink"
	 x="0px" y="0px" viewBox="0 0 50 50" overflow="visible" xml:space="preserve">
<path fill="#999999" d="M24.999994,13.253835c8.559999,0,15.500002,6.940003,15.500002,15.500001
	s-6.940002,15.499998-15.500002,15.499998s-15.5-6.940002-15.5-15.499998S16.439997,13.253835,24.999994,13.253835z
	 M24.999994,37.253834c4.690002,0,8.500002-3.809998,8.500002-8.499998s-3.809999-8.5-8.500002-8.5s-8.5,3.809998-8.5,8.5
	S20.309992,37.253834,24.999994,37.253834z"/>
<g>
	<path d="M25.011719,48.999023C22.294922,48.999023,20,46.606445,20,43.774414v-3.241211
		C20,37.850586,22.166992,35.75,24.933105,35.75h0.000488c0.689941,0,1.311523-0.083008,1.916016-0.246094
		c0.308594-0.083984,0.584961-0.178711,0.84082-0.291016c0.262695-0.109375,0.52832-0.244141,0.803711-0.40625
		C30.660156,33.56543,32,31.246094,32,28.75c0-1.359375-0.392578-2.677734-1.135742-3.811523
		c-0.59375-0.924316-1.40918-1.700684-2.365234-2.25293c-1.264648-0.719727-2.150391-1.864746-2.523438-3.240723
		c-0.373047-1.376465-0.187012-2.812012,0.523438-4.04248l2.857422-4.947266l-3.155273-0.914551
		c-0.964355-0.283691-1.617188-1.148438-1.628906-2.152344c-0.01123-1.016113,0.606445-1.87207,1.574219-2.180664
		l12.545898-4.049316c0.201172-0.070312,0.433594-0.109863,0.667969-0.109863c1.001953,0,1.861328,0.714844,2.042969,1.700195
		l2.764648,12.871582c0.148438,0.663574-0.008789,1.351074-0.431641,1.878418
		c-0.432617,0.539551-1.101562,0.861816-1.790039,0.861816c-0.579102,0-1.133789-0.228027-1.561523-0.641602l-2.367188-2.273438
		l-0.842773,1.461426C40.250977,20.049316,42,24.320801,42,28.75c0,7.505859-4.944336,14.101562-12.104492,16.267578
		c-0.192383,0.936523-0.65918,1.810547-1.353516,2.514648c-0.899414,0.887695-2.069336,1.40332-3.302734,1.461914
		C25.163086,48.998047,25.087402,48.999023,25.011719,48.999023z"/>
	<path fill="#FFFFFF" d="M39.360809,2.048259c0.504768,0.000029,0.962067,0.355729,1.059174,0.881739l2.77002,12.899956
		c0.192226,0.861432-0.502453,1.530238-1.243412,1.530238c-0.299843,0-0.607307-0.109558-0.866577-0.360193l-3.290043-3.160033
		l-1.869987,3.239989c3.200008,2.970032,5.080009,7.189999,5.080009,11.670044c0,7.399965-5.130001,13.690001-12,15.479979
		h-0.010012c-0.049988,1.01001-0.489988,1.919987-1.159966,2.599976c-0.687412,0.67799-1.614168,1.11657-2.638367,1.165478
		c-0.060011,0.002865-0.119551,0.00428-0.178974,0.00428c-2.220591,0-4.012682-1.980133-4.012682-4.225235v-3.241398
		c0-2.15086,1.785242-3.783253,3.933561-3.783253c0.0075,0,0.015163,0.000023,0.022673,0.000061
		c0.014578,0.00008,0.029165,0.000111,0.043766,0.000111c0.729979,0,1.440001-0.100033,2.109989-0.280022
		c0.330011-0.089966,0.660032-0.20002,0.980043-0.339966c0.30999-0.130013,0.619989-0.290043,0.909967-0.460022
		c2.390022-1.369999,4-3.960022,4-6.919989c0-1.609978-0.479977-3.109978-1.29999-4.359978
		c-0.679989-1.060066-1.609978-1.940012-2.70001-2.570011l-0.035677-0.020311
		c-2.071602-1.179289-2.791256-3.833122-1.599234-5.897411l3.4949-6.052311l-4.380011-1.270022
		c-1.190001-0.349977-1.219967-2.039978-0.029968-2.419978l12.54999-4.049989
		C39.120197,2.068018,39.241791,2.048252,39.360809,2.048259 M39.360935,0.048253h-0.000134
		c-0.347099,0-0.6903,0.058378-1.020065,0.173511L25.835781,4.256631c-1.367989,0.436822-2.279844,1.700889-2.26321,3.143589
		c0.016666,1.446022,0.958288,2.6912,2.3431,3.098478l1.936037,0.561375l-2.218605,3.84208
		c-0.844822,1.463034-1.06591,3.169167-0.622555,4.804144c0.443367,1.634991,1.496111,2.995701,2.964323,3.831501
		c0.842411,0.486622,1.54001,1.149956,2.04171,1.932066c0.647211,0.98679,0.983412,2.115089,0.983412,3.280134
		c0,2.139311-1.147467,4.12602-2.994612,5.184843c-0.249033,0.145855-0.481443,0.263813-0.688889,0.350811
		c-0.234978,0.102512-0.4655,0.181934-0.732544,0.254745c-0.515356,0.138435-1.050678,0.209599-1.583956,0.209599
		l-0.066444-0.000164c-3.271778,0-5.933556,2.594353-5.933556,5.783245v3.241398c0,3.374424,2.753466,6.225235,6.012678,6.225235
		c0.091099,0,0.1824-0.002155,0.27441-0.006557c1.479967-0.070679,2.881845-0.688354,3.947355-1.739265
		c0.697985-0.708218,1.202803-1.547501,1.488314-2.451817c7.289278-2.453815,12.277243-9.293579,12.277243-17.052073
		c0-3.658014-1.127087-7.214857-3.169067-10.182863c0.591122,0.511473,1.336811,0.793053,2.115665,0.793053
		c0.988892,0,1.949745-0.462246,2.570278-1.236511c0.613503-0.76549,0.841358-1.760279,0.625122-2.7293L42.379948,2.53127
		C42.09655,1.090406,40.832687,0.048353,39.360935,0.048253L39.360935,0.048253z"/>
</g>
</svg>
