<?xml version="1.0" encoding="utf-8"?>
<!-- Generator: Adobe Illustrator 26.3.1, SVG Export Plug-In . SVG Version: 6.00 Build 0)  -->
<svg version="1.2" baseProfile="tiny" id="Layer_1" xmlns="http://www.w3.org/2000/svg" xmlns:xlink="http://www.w3.org/1999/xlink"
	 x="0px" y="0px" viewBox="0 0 50 50" overflow="visible" xml:space="preserve">
<path fill="#999999" d="M19.500034,3.499994c-8.559999,0-15.500001,6.940002-15.500001,15.5s6.940002,15.499998,15.500001,15.499998
	s15.5-6.940001,15.5-15.499998S28.060032,3.499994,19.500034,3.499994z M19.500034,27.499994
	c-4.690003,0-8.500001-3.809998-8.500001-8.5s3.809998-8.5,8.500001-8.5s8.5,3.809998,8.5,8.5
	S24.190037,27.499994,19.500034,27.499994z"/>
<g>
	<path d="M19.5,49c-2.756836,0-5-2.243164-5-5v-8.765625C6.362305,32.709961,1.247559,24.375977,2.779785,15.908691
		C4.035645,8.966309,9.550781,3.481934,16.50293,2.262695C17.49707,2.088379,18.505371,2,19.5,2c9.374023,0,17,7.625977,17,17
		c0,1.143066-0.118164,2.291016-0.350586,3.422852l2.724609,1.572754l0.915039-3.163574
		c0.287109-0.976562,1.162109-1.629883,2.178711-1.629883c1.003906,0,1.849609,0.617676,2.154297,1.57373l4.049805,12.547363
		c0.193359,0.551758,0.133789,1.183594-0.170898,1.709961c-0.304688,0.525391-0.821289,0.889648-1.418945,1l-12.87207,2.764648
		c-0.162109,0.036133-0.332031,0.054688-0.499023,0.054688c-0.895508,0-1.704102-0.542969-2.060547-1.382812
		c-0.360352-0.847656-0.183594-1.788086,0.460938-2.455078L33.875,32.657227l-6.643555-3.838867
		c-2.195801-1.268555-2.952637-4.087402-1.687012-6.284668C26.176758,21.446289,26.5,20.236816,26.5,19
		c0-0.116699,0.000977-0.233887-0.007812-0.350098C26.297852,14.913086,23.227539,12,19.5,12
		c-0.281738,0-0.567871,0.016602-0.856934,0.050781c-3.013184,0.354004-5.555176,2.775879-6.044922,5.758301
		c-0.48291,2.939941,0.851562,5.782715,3.398926,7.243164C17.051758,25.674316,18.259277,26,19.5,26
		c2.781738,0,5,2.21875,5,4.945312V44C24.5,46.756836,22.256836,49,19.5,49z"/>
	<path fill="#FFFFFF" d="M19.500067,3.00002c8.780537,0,15.999964,7.219581,15.999964,15.99998
		c0,1.329956-0.169975,2.649956-0.489986,3.919977L39.480019,25.5l1.270012-4.390022
		c0.177189-0.602482,0.697903-0.907616,1.218155-0.907633c0.507332-0.000015,1.014217,0.290119,1.201836,0.877611
		l4.049988,12.550045c0.220024,0.629997-0.169991,1.299988-0.819954,1.419975L33.500031,37.82
		c-0.09948,0.022015-0.196362,0.032394-0.289825,0.032394c-1.0527,0-1.679209-1.315807-0.88015-2.142441l3.149963-3.279964
		l-7.749043-4.477533c-1.714001-0.990389-2.307966-3.204166-1.319923-4.919512L26.430031,23c0.679989-1.170044,1.07-2.540045,1.07-4
		c0-0.140022,0-0.280033-0.01001-0.420044c-0.219965-4.229817-3.710157-7.579698-7.989971-7.579941
		c-0.320662-0.000018-0.645294,0.018767-0.973785,0.057396c-3.469266,0.407967-6.348844,3.142756-6.914955,6.589756
		c-0.5763,3.5091,1.140545,6.69751,3.888722,8.27281C16.670021,26.609978,18.040009,27,19.500031,27l0.043779-0.000122
		c0.003452-0.00001,0.007198-0.000015,0.010651-0.000015c2.171211,0,3.94557,1.773212,3.94557,3.945692V44
		c0,2.209133-1.790855,3.999989-3.999989,3.999989h-0.000011c-2.209133,0-3.999999-1.790855-3.999999-3.999989v-9.520023
		C7.743454,32.459,2.204931,24.701521,3.763643,16.086855C4.940631,9.581866,10.164331,4.389699,16.675564,3.247777
		C17.629606,3.080459,18.574085,3.00002,19.500067,3.00002 M19.500065,1.000022c-1.052322,0-2.118856,0.093478-3.169989,0.277822
		C8.967065,2.569144,3.126098,8.377333,1.795598,15.730766c-1.577209,8.716892,3.499659,17.30069,11.704433,20.224293V44
		c0,3.308399,2.691588,5.999989,5.999999,5.999989s6-2.691589,6-5.999989V30.945555c0-3.278465-2.667166-5.945688-5.945566-5.945688
		L19.500031,25c-1.061676,0-2.093533-0.27759-2.984022-0.802744c-2.203466-1.263245-3.345621-3.7022-2.931132-6.225967
		c0.4191-2.551889,2.595489-4.624233,5.174966-4.927567C19.006554,13.01471,19.255564,13,19.499987,13.00001
		c3.194656,0.000178,5.827,2.496811,5.992733,5.683812C25.50172,18.815044,25.500031,18.907534,25.500031,19
		c0,1.059755-0.276354,2.095432-0.799189,2.995056c-1.563099,2.713665-0.64241,6.145199,2.029522,7.689098l5.539671,3.20092
		l-1.382492,1.439548c-0.909311,0.940666-1.169378,2.33041-0.658056,3.535831
		c0.513288,1.210068,1.683289,1.991943,2.980722,1.991943c0.240211,0,0.483101-0.026787,0.721901-0.079632l12.866516-2.762791
		c0.869431-0.171024,1.621166-0.706345,2.066448-1.473122c0.452156-0.778599,0.540756-1.713978,0.243103-2.566277
		l-4.034813-12.504845c-0.431568-1.351467-1.680187-2.263388-3.105145-2.263388
		c-1.464134,0.000067-2.724731,0.941776-3.136932,2.343332l-0.562904,1.945745l-1.007355-0.581436
		c0.15884-0.965582,0.239002-1.93952,0.239002-2.909986C37.500031,9.074778,29.425276,1.000022,19.500065,1.000022
		L19.500065,1.000022z"/>
</g>
</svg>
