<?xml version="1.0" encoding="utf-8"?>
<!-- Generator: Adobe Illustrator 26.3.1, SVG Export Plug-In . SVG Version: 6.00 Build 0)  -->
<svg version="1.2" baseProfile="tiny" id="Layer_1" xmlns="http://www.w3.org/2000/svg" xmlns:xlink="http://www.w3.org/1999/xlink"
	 x="0px" y="0px" viewBox="0 0 50 50" overflow="visible" xml:space="preserve">
<path fill="#999999" d="M34.321236,3.5c-8.559998,0-15.5,6.940002-15.5,15.5s6.940002,15.5,15.5,15.5s15.5-6.940002,15.5-15.5
	S42.881233,3.5,34.321236,3.5z M34.321236,27.5c-4.690002,0-8.5-3.809998-8.5-8.5s3.809998-8.5,8.5-8.5s8.5,3.809998,8.5,8.5
	S39.011238,27.5,34.321236,27.5z"/>
<g>
	<path d="M34.321289,49c-2.756836,0-5-2.243164-5-5v-8.753906c-2.642578-0.816406-5.055664-2.268555-7.01709-4.229492
		C20.343262,29.055664,18.891113,26.642578,18.075684,24h-3.46875l0.785645,3.19043
		c0.168457,0.680664,0.021973,1.382812-0.402344,1.924805c-0.433105,0.553711-1.109375,0.883789-1.808594,0.883789
		c-0.549805,0-1.084961-0.207031-1.506348-0.583008l-9.785156-8.854492C1.447754,20.188965,1.178711,19.611816,1.178711,19
		s0.269043-1.188965,0.737793-1.584473l9.753906-8.827148c0.42627-0.380371,0.961426-0.587402,1.51123-0.587402
		c0.699707,0,1.375488,0.330078,1.808594,0.883789c0.424316,0.541992,0.570801,1.243652,0.401855,1.925781L14.606934,14h7.714355
		c2.756836,0,5,2.243164,5,5c0,3.859863,3.140625,7,7,7c2.756836,0,5,2.243164,5,5v13
		C39.321289,46.756836,37.078125,49,34.321289,49z"/>
	<path fill="#FFFFFF" d="M13.181424,9.000782c0.756377,0,1.457129,0.692732,1.239782,1.569228L13.331246,15h8.990001
		c2.209129,0,3.999989,1.790859,3.999989,3.99999V19c0,4.41828,3.58172,8,8,8h0.000011
		c2.209129,0,3.999989,1.790859,3.999989,3.99999V44c0,2.209141-1.790859,4-4,4s-4-1.790859-4-4v-9.51001
		c-2.739988-0.710022-5.27002-2.140011-7.309999-4.179991C20.971256,28.26996,19.541206,25.73999,18.831247,23h-5.500001
		l1.08996,4.429991c0.217309,0.876348-0.483514,1.569204-1.239745,1.569204c-0.287936,0-0.583754-0.100332-0.840205-0.329216
		l-9.780029-8.84997c-0.50995-0.429998-0.50995-1.21002,0-1.640018l9.780029-8.850031
		C12.597594,9.101194,12.893608,9.000782,13.181424,9.000782 M13.181426,7.00078c-0.79575,0-1.56707,0.29725-2.17186,0.837
		l-9.770931,8.841732C0.56451,17.264408,0.178766,18.107615,0.178766,19s0.385719,1.735569,1.059844,2.320467l9.760706,8.832483
		c0.61502,0.54896,1.38636,0.846239,2.18214,0.846239c1.00473,0,1.97536-0.473969,2.59644-1.267879
		c0.61504-0.78618,0.828089-1.80043,0.58452-2.782681L15.882974,25h1.470965c0.894159,2.522432,2.342888,4.823959,4.243067,6.72419
		c1.900105,1.900112,4.20171,3.348869,6.72423,4.243088V44c0,3.308411,2.691591,6,6,6s6-2.691589,6-6V30.99999
		c0-3.308411-2.691578-5.99999-5.999989-5.99999c-3.30842,0-6.000011-2.691589-6.000011-6s-2.69158-6-5.999989-6h-6.438272
		l0.480312-1.95216c0.24272-0.97878,0.02969-1.99306-0.585331-2.779221C15.156886,7.47474,14.186227,7.00078,13.181426,7.00078
		L13.181426,7.00078z"/>
</g>
</svg>
