<?xml version="1.0" encoding="utf-8"?>
<!-- Generator: Adobe Illustrator 26.3.1, SVG Export Plug-In . SVG Version: 6.00 Build 0)  -->
<svg version="1.2" baseProfile="tiny" id="Layer_1" xmlns="http://www.w3.org/2000/svg" xmlns:xlink="http://www.w3.org/1999/xlink"
	 x="0px" y="0px" viewBox="0 0 50 50" overflow="visible" xml:space="preserve">
<path fill="#999999" d="M30,7.5c-8.559998,0-15.5,6.940002-15.5,15.5S21.440002,38.5,30,38.5S45.5,31.559998,45.5,23
	S38.559998,7.5,30,7.5z M30,31.5c-4.690002,0-8.5-3.809998-8.5-8.5s3.809998-8.5,8.5-8.5s8.5,3.809998,8.5,8.5
	S34.690002,31.5,30,31.5z"/>
<g>
	<path d="M30,49c-2.756836,0-5-2.243164-5-5v-4.764648C17.896484,37.037109,13,30.469727,13,23
		c0-1.143066,0.117676-2.291016,0.350586-3.422852l-2.724609-1.572754l-0.915527,3.163574
		c-0.287109,0.976562-1.162109,1.629395-2.178223,1.629883c-1.003906,0-1.849609-0.617676-2.154785-1.57373L1.328613,8.677246
		C1.134766,8.123535,1.194336,7.491211,1.5,6.965332C1.804688,6.44043,2.321777,6.07666,2.918945,5.966797l12.871094-2.76416
		c0.161621-0.036133,0.332031-0.054688,0.5-0.054688c0.89502,0,1.703613,0.54248,2.060059,1.382324
		c0.359375,0.848145,0.182617,1.788574-0.461426,2.455078L15.625,9.342285l6.644531,3.839355
		c2.194824,1.268066,2.951172,4.087402,1.686035,6.284668c-0.231445,0.393066-0.397949,0.750977-0.518555,1.106445
		l-0.037598,0.093262c-0.024902,0.054688-0.043945,0.115234-0.058594,0.174805
		c-0.144531,0.441406-0.233887,0.847656-0.288574,1.283203c-0.018066,0.135742-0.025391,0.263672-0.03418,0.399902
		C23.009277,22.678223,23,22.838867,23,23c0,0.117188-0.000977,0.233398,0.007324,0.350586
		c0.129395,2.39502,1.433594,4.520508,3.490723,5.702148C27.551758,29.674805,28.758789,30,30,30c2.78125,0,5,2.21875,5,4.945312V44
		C35,46.756836,32.756836,49,30,49z"/>
	<path fill="#FFFFFF" d="M16.289875,4.147589c1.0527,0,1.679159,1.315816,0.880112,2.142387l-3.149965,3.280034l7.748934,4.477433
		c1.714022,0.990389,2.308044,3.204211,1.320032,4.91961l-0.018978,0.032946c-0.229977,0.390022-0.429998,0.809999-0.580021,1.25
		c-0.04999,0.109989-0.089968,0.229977-0.119989,0.349977c-0.150034,0.45001-0.25,0.919977-0.309999,1.400023
		c-0.020023,0.149967-0.029968,0.299988-0.039978,0.459967c-0.010012,0.180056-0.020023,0.360044-0.020023,0.540033
		c0,0.140022,0,0.279966,0.010012,0.419989c0.149967,2.789978,1.709955,5.190001,3.989988,6.5
		c1.169989,0.690001,2.539978,1.080011,4,1.080011l0.043779-0.000111c0.003452-0.00001,0.007198-0.000015,0.010651-0.000015
		C32.225639,30.999712,34,32.773071,34,34.945553v9.054455c0,2.209133-1.790855,3.999989-4.000002,3.999989s-4-1.790855-4-3.999989
		v-5.520031c-6.869987-1.789978-11.999999-8.080011-11.999999-15.479979c0-1.330011,0.169989-2.650023,0.489988-3.920044
		l-4.469966-2.579956L8.749999,20.89002c-0.177189,0.602448-0.697907,0.9076-1.218157,0.9076
		c-0.507329,0-1.01421-0.290115-1.201821-0.877634L2.280032,8.369998c-0.220033-0.630012,0.169978-1.299989,0.82-1.419989
		l12.899967-2.770011C16.099478,4.157979,16.196415,4.147589,16.289875,4.147589 M16.289877,2.147587
		c-0.240345,0-0.483312,0.026811-0.722167,0.079689L2.701449,4.990012C1.831986,5.161048,1.080227,5.696378,0.634943,6.463164
		c-0.452144,0.7786-0.540733,1.713978-0.243067,2.566278l4.0348,12.504766c0.431544,1.351467,1.680166,2.263412,3.105166,2.263412
		c1.464045,0,2.724655-0.94169,3.136889-2.343267l0.562925-1.945805l1.007342,0.581413
		c-0.158838,0.965599-0.239,1.939568-0.239,2.910036c0,7.659586,4.861985,14.423864,11.999999,16.956236v4.043774
		c0,3.308403,2.691589,5.999989,6,5.999989S36,47.308411,36,44.000008v-9.054455c0-3.278456-2.667034-5.945677-5.945257-5.945677
		l-0.054745,0.000122c-1.061687,0-2.093544-0.277578-2.984022-0.802734c-1.781776-1.023878-2.899256-2.845633-3.008844-4.884621
		c-0.008821-0.127745-0.007133-0.22019-0.007133-0.312645c0-0.142933,0.008978-0.285822,0.016922-0.428801
		c0.006168-0.097645,0.011557-0.202166,0.02549-0.306522c0.048233-0.385311,0.123178-0.726978,0.224922-1.032133l0.024256-0.072756
		l0.01861-0.0744l0.040579-0.089277l0.0322-0.100677c0.099001-0.290335,0.236877-0.586267,0.409834-0.879578l0.005156-0.008745
		l0.024044-0.041744c1.540234-2.674177,0.619478-6.105734-2.052456-7.649622l-5.539568-3.200834l1.382524-1.43961
		c0.909277-0.940578,1.169376-2.3303,0.658077-3.535745C18.757309,2.929476,17.58732,2.147587,16.289877,2.147587
		L16.289877,2.147587z"/>
</g>
</svg>
