<?xml version="1.0" encoding="UTF-8"?>
<!-- Generated by Pixelmator Pro 3.6.12 -->
<svg width="46" height="56" viewBox="0 0 46 56" xmlns="http://www.w3.org/2000/svg">
    <linearGradient id="linearGradient1" x1="0.9674" y1="28.000013" x2="45.032601" y2="28.000013" gradientUnits="userSpaceOnUse">
        <stop offset="0" stop-color="#00b80d" stop-opacity="1"/>
        <stop offset="1" stop-color="#00dd52" stop-opacity="1"/>
    </linearGradient>
    <path id="Path" fill="url(#linearGradient1)" fill-rule="evenodd" stroke="none" d="M 24.981199 55.0741 C 30.212601 46.355099 39.437698 39.938999 43.3475 30.552601 C 44.433201 27.946199 45.0326 25.0865 45.0326 22.0868 C 45.0326 9.918541 35.168301 0.054199 23 0.054199 C 10.83174 0.054199 0.9674 9.918541 0.9674 22.0868 C 0.9674 25.8104 1.89111 29.3183 3.5219 32.393799 C 8.05645 40.9454 16.9219 46.773998 21.902 55.0741 C 22.5994 56.236401 24.2838 56.236401 24.981199 55.0741 Z"/>
    <path id="path1" fill="#ffffff" stroke="none" d="M 29.5 22.7915 C 29.5 26.381351 26.589851 29.2915 23 29.2915 C 19.410149 29.2915 16.5 26.381351 16.5 22.7915 C 16.5 19.201649 19.410149 16.2915 23 16.2915 C 26.589851 16.2915 29.5 19.201649 29.5 22.7915 Z"/>
    <path id="path2" fill="#5a47ae" fill-rule="evenodd" stroke="none" d="M 23 0.049992 C 10.83002 0.049992 0.96997 9.919991 0.96997 22.090031 C 0.96997 25.809999 1.89001 29.320009 3.52002 32.390018 C 8.06 40.95002 16.919979 46.77002 21.900021 55.070011 C 22.59997 56.23999 24.28002 56.23999 24.97998 55.070011 C 30.21002 46.359989 39.439999 39.94001 43.349979 30.54999 C 44.43 27.95001 45.030029 25.090031 45.030029 22.090031 C 45.030029 9.919979 35.169979 0.049992 23 0.049992 Z M 41.960018 29.97998 C 40.109982 34.409969 36.98999 38.200008 33.539982 42.070011 C 30.150021 45.869999 26.400021 49.789982 23.690001 54.299992 L 23.190001 54.299992 C 20.590019 49.97998 17 46.320011 13.63 42.789982 C 10.21002 39.210018 7 35.76001 4.84998 31.690001 C 3.33002 28.830009 2.46998 25.559999 2.46998 22.090019 C 2.46997 10.75 11.65997 1.549992 23 1.549992 C 34.340031 1.549992 43.530029 10.75 43.530029 22.090031 C 43.530029 24.890011 42.969971 27.54999 41.960018 29.97998 Z"/>
</svg>
