<?xml version="1.0" encoding="utf-8"?>
<!-- Generator: Adobe Illustrator 26.3.1, SVG Export Plug-In . SVG Version: 6.00 Build 0)  -->
<svg version="1.2" baseProfile="tiny" id="Layer_1" xmlns="http://www.w3.org/2000/svg" xmlns:xlink="http://www.w3.org/1999/xlink"
	 x="0px" y="0px" viewBox="0 0 50 50" overflow="visible" xml:space="preserve">
<g>
	<path d="M7,28V13.240234C7,9.248047,10.248047,6,14.240234,6H19.5V3.689941C19.5,2.206543,20.706543,1,22.189941,1h5.619629
		C29.292969,1,30.5,2.206543,30.5,3.689941V6h5.259766C39.751953,6,43,9.248047,43,13.240234V28H7z M37,22v-9.200195
		C37,12.358887,36.641602,12,36.200195,12H13.799805C13.358887,12,13,12.358887,13,12.799805V22H37z"/>
	<path fill="#FFFFFF" d="M27.809999,2C28.73999,2,29.5,2.76001,29.5,3.69V7h6.26001C39.210018,7,42,9.78998,42,13.23999V27H8
		V13.23999C8,9.78998,10.78998,7,14.23999,7H20.5V3.69C20.5,2.76001,21.26001,2,22.190001,2H27.809999 M12,23h26V12.79999
		C38,11.81,37.189999,11,36.200008,11H13.79999C12.81,11,12,11.81,12,12.79999V23 M27.809999,0h-5.619999
		C20.155331,0,18.5,1.65533,18.5,3.69V5h-4.26001C9.69644,5,6,8.69644,6,13.23999V27v2h2h34h2v-2V13.23999
		C44,8.69644,40.303558,5,35.76001,5H31.5V3.69C31.5,1.65533,29.844669,0,27.809999,0L27.809999,0z M14,13h22v8H14V13L14,13z"/>
</g>
<g>
	<path d="M47.5,22.959961L42.413033,41H7.586968L2.5,22.959961l22.117216-8.866506c0.246067-0.098644,0.519501-0.098644,0.765568,0
		L47.5,22.959961z"/>
	<path fill="#FFFFFF" d="M25,14.019467c0.129877,0,0.259756,0.024661,0.38279,0.073983L47.5,22.959961l-5.086967,18.040035H7.586967
		L2.5,22.959961l22.11721-8.86651C24.740244,14.044128,24.870123,14.019467,25,14.019467L25,14.019467z M25,12.019462
		c-0.387634,0-0.766811,0.073211-1.126989,0.2176L1.7558,21.103573l-1.668633,0.668934l0.4879,1.730255l5.086967,18.040031
		l0.4109,1.457203h1.514033h34.826065h1.514034l0.4109-1.457203l5.086967-18.040031l0.4879-1.730255l-1.668633-0.668934
		l-22.117212-8.866511C25.766811,12.092672,25.387634,12.019462,25,12.019462L25,12.019462z"/>
</g>
<g>
	<path d="M47,41v6.01001c-4.284725,0-8.171417-1.530029-11-4.01001c-2.828583,2.47998-6.71521,4.01001-11,4.01001
		c-4.284725,0-8.171415-1.530029-11-4.01001c-2.828585,2.47998-6.71521,4.01001-11,4.01001V41
		c4.28479,0,8.171415-1.640015,11-4.299988C16.828585,39.359985,20.715275,41,25,41c4.28479,0,8.171417-1.640015,11-4.299988
		C38.828583,39.359985,42.715275,41,47,41z"/>
	<path fill="#FFFFFF" d="M36,36.700012c2.828587,2.659973,6.715279,4.299984,11,4.299984v6.010014
		c-4.284721,0-8.171413-1.530025-11-4.010014c-2.828587,2.479988-6.715214,4.010014-11,4.010014
		c-4.284719,0-8.171413-1.530025-11-4.010014c-2.828587,2.479988-6.715213,4.010014-11,4.010014v-6.010014
		c4.284787,0,8.171413-1.640011,11-4.299984c2.828587,2.659973,6.715281,4.299984,11,4.299984
		C29.284786,40.999996,33.171413,39.359985,36,36.700012L36,36.700012z M36,32.581879l-2.055187,1.932678
		C31.55472,36.762173,28.378054,37.999996,25,37.999996s-6.55472-1.237823-8.944813-3.485439L14,32.581879l-2.055186,1.932678
		C9.55472,36.762173,6.378053,37.999996,3,37.999996H0v3v6.010014v3h3c4.00078,0,7.824221-1.138599,11-3.243439
		c3.175779,2.104839,6.99922,3.243439,11,3.243439s7.824219-1.138599,11-3.243439c3.175781,2.104839,6.999218,3.243439,11,3.243439
		h3v-3v-6.010014v-3h-3c-3.378052,0-6.554722-1.237823-8.944813-3.485439L36,32.581879L36,32.581879z"/>
</g>
</svg>
