<?xml version="1.0" encoding="utf-8"?>
<!-- Generator: Adobe Illustrator 26.3.1, SVG Export Plug-In . SVG Version: 6.00 Build 0)  -->
<svg version="1.2" baseProfile="tiny" id="Layer_1" xmlns="http://www.w3.org/2000/svg" xmlns:xlink="http://www.w3.org/1999/xlink"
	 x="0px" y="0px" viewBox="0 0 50 50" overflow="visible" xml:space="preserve">
<path fill="#999999" d="M25,0.5c8.559998,0,15.5,6.940002,15.5,15.5S33.559998,31.5,25,31.5S9.5,24.559998,9.5,16
	S16.440002,0.5,25,0.5z M25,24.5c4.690002,0,8.5-3.809998,8.5-8.5S29.690002,7.5,25,7.5s-8.5,3.809998-8.5,8.5
	S20.309998,24.5,25,24.5z"/>
<g>
	<path d="M24.999914,49c-2.756836,0-5-2.243164-5-5V27.780273c0-2.129883,1.40332-3.966797,3.492188-4.570801
		c0.13623-0.04248,0.277832-0.077637,0.430664-0.11377C24.342688,23.026367,24.641027,23,24.93009,23
		c0.050781,0,0.209473-0.000488,0.242676-0.003906c1.167969-0.037598,2.256348-0.341309,3.225586-0.884277l0.073242-0.069824
		l0.136719-0.047363c0.791504-0.448242,1.688965-0.68457,2.601562-0.68457c0.97217,0,1.906252,0.269043,2.700197,0.77832
		c0.305664,0.19043,0.579102,0.406738,0.827148,0.654785c0.300781,0.289062,0.574219,0.638672,0.822266,1.055176l3.236328,5.611816
		l1.110352,1.916016l2.361328-2.267578c0.427734-0.411133,0.983398-0.638672,1.5625-0.638672
		c0.688477,0,1.359375,0.323242,1.793945,0.864258c0.422852,0.526367,0.581055,1.212891,0.432617,1.881836L43.288002,44.05957
		c-0.181641,0.958008-1.044922,1.670898-2.047852,1.670898c-0.226562,0-0.454102-0.038086-0.676758-0.112305l-10.563478-3.405273V44
		C29.999914,46.756836,27.75675,49,24.999914,49z M29.999914,36.6875l1.244141-0.361328l-1.244141-2.147461V36.6875z"/>
	<path fill="#FFFFFF" d="M31.210018,22.309999c0.76996,0,1.519962,0.209959,2.159981,0.619989
		c0.23999,0.149969,0.460018,0.320009,0.66003,0.52002c0.259949,0.25,0.47998,0.53998,0.669979,0.859991l0.22998,0.39996
		l1.46003,2.530029l1.53997,2.669981l1.75,3.02002l3.280029-3.150021c0.259953-0.25,0.570011-0.359989,0.870003-0.359989
		c0.73999,0,1.439999,0.669991,1.25,1.530029l-2.77002,12.899971C42.210018,44.380009,41.75,44.72998,41.23999,44.72998
		c-0.119991,0-0.23999-0.020023-0.359982-0.060001L28.999998,40.83997v3.160038c0,2.209129-1.790861,3.999992-3.99999,3.999992
		h-0.00001c-2.209141,0-4-1.790863-4-3.999992V27.779968c0-1.75,1.179991-3.14996,2.77002-3.609989
		c0.130011-0.03997,0.25-0.07,0.380011-0.09997c0.25-0.040041,0.509949-0.070011,0.779959-0.070011h0.070011
		c0.090031,0,0.190001,0,0.280029-0.01001c1.349981-0.03998,2.620001-0.429989,3.719971-1.070009
		c0.01001-0.01001,0.030029-0.01001,0.03998-0.02002C29.719969,22.499998,30.469969,22.309999,31.210018,22.309999
		 M28.999998,38.019958L32.75,36.929989l-1.750002-3.02002l-1.01148-1.749599
		c-0.105911-0.183205-0.279909-0.265545-0.452591-0.265545c-0.269524,0-0.535929,0.200432-0.535929,0.530724V38.019958
		 M31.210018,20.309999c-1.048868,0-2.081295,0.262766-2.999481,0.761684l-0.270859,0.090405l-0.143677,0.13953
		c-0.799421,0.425308-1.684961,0.66288-2.575174,0.689251l-0.081139,0.002399l-0.080671,0.00897l-0.059019-0.002241h-0.070011
		c-0.342468,0-0.690809,0.030241-1.096249,0.095181l-0.066921,0.010719l-0.06605,0.015221
		c-0.17745,0.040911-0.34103,0.082611-0.51848,0.137171c-2.488739,0.719759-4.182289,2.94257-4.182289,5.521679v16.220039
		c0,3.308411,2.691589,5.999992,6,5.999992s6-2.691582,6-5.999992v-0.413891l9.266333,2.987381
		c0.305187,0.101791,0.639008,0.156483,0.97366,0.156483c1.473846,0,2.742714-1.040279,3.029293-2.47805l2.766167-12.882032
		c0.211071-0.95529-0.018559-1.948219-0.632542-2.712639c-0.622269-0.77475-1.584099-1.23728-2.572887-1.23728
		c-0.83918,0-1.640511,0.32618-2.256363,0.918459l-1.440926,1.383814l-0.472282-0.815033l-1.537952-2.666481l-1.460258-2.53043
		l-0.22842-0.397259c-0.303848-0.51215-0.64143-0.942961-1.017429-1.304571c-0.273521-0.274059-0.605331-0.53636-0.986511-0.774559
		C33.493137,20.633638,32.373158,20.309999,31.210018,20.309999L31.210018,20.309999z"/>
</g>
<path fill="#FFFFFF" d="M25.450012,39.349976c-0.02002,1.450012,0.880005,2.720032,2.25,3.169983l0.690002,0.220032
	l11.829956,3.820007c0.330017,0.109985,0.670044,0.169983,1.02002,0.169983c1.47998,0,2.75-1.039978,3.030029-2.47998
	l2.769958-12.880005c0.200012-0.970032-0.029968-1.960022-0.649963-2.720032c-0.619995-0.769958-1.580017-1.22998-2.559998-1.22998
	c-0.840027,0-1.640015,0.330017-2.26001,0.919983l-1.440002,1.380005l-0.470032-0.809998l-1.72998,1l1.75,3.02002l3.280029-3.150024
	c0.259949-0.25,0.570007-0.359985,0.869995-0.359985c0.73999,0,1.440002,0.669983,1.25,1.530029l-2.77002,12.899963
	C42.210022,44.380005,41.75,44.72998,41.23999,44.72998c-0.119995,0-0.23999-0.02002-0.359985-0.059998L29,40.839966
	l-0.679993-0.219971c-1.179993-0.390015-1.150024-2.080017,0.049988-2.419983L29,38.019958l3.75-1.089966L31,33.909973l-1.72998,1
	l0.469971,0.809998l-1.289978,0.380005l-0.630005,0.179993C26.429993,36.669983,25.47998,37.909973,25.450012,39.349976z"/>
</svg>
