<?xml version="1.0" encoding="utf-8"?>
<!-- Generator: Adobe Illustrator 26.3.1, SVG Export Plug-In . SVG Version: 6.00 Build 0)  -->
<svg version="1.2" baseProfile="tiny" id="Layer_1" xmlns="http://www.w3.org/2000/svg" xmlns:xlink="http://www.w3.org/1999/xlink"
	 x="0px" y="0px" viewBox="0 0 50 50" overflow="visible" xml:space="preserve">
<path fill="#999999" d="M15.678764,3.5c8.559998,0,15.5,6.940002,15.5,15.5s-6.940002,15.5-15.5,15.5s-15.5-6.940002-15.5-15.5
	S7.118767,3.5,15.678764,3.5z M15.678764,27.5c4.690002,0,8.5-3.809998,8.5-8.5s-3.809998-8.5-8.5-8.5s-8.5,3.809998-8.5,8.5
	S10.988762,27.5,15.678764,27.5z"/>
<g>
	<path d="M15.678711,49c-2.756836,0-5-2.243164-5-5V31c0-2.756836,2.243164-5,5-5c3.859863,0,7-3.140137,7-7
		c0-2.756836,2.243164-5,5-5h7.714844l-0.785156-3.191406c-0.168945-0.679199-0.023438-1.381348,0.400391-1.92334
		c0.433594-0.553711,1.109375-0.884277,1.80957-0.884277c0.549805,0,1.084961,0.207031,1.506836,0.583008l9.78418,8.85498
		c0.442383,0.37207,0.711914,0.949219,0.711914,1.561035s-0.269531,1.188965-0.738281,1.584473l-9.75293,8.82666
		c-0.432617,0.386719-0.954102,0.587891-1.511719,0.587891c-0.699219,0-1.375977-0.331055-1.808594-0.884766
		c-0.424805-0.541992-0.570312-1.244141-0.401367-1.925781L35.393555,24h-3.46875
		c-0.816406,2.642578-2.268555,5.055664-4.229492,7.016602c-1.960449,1.960938-4.373535,3.413086-7.016602,4.229492V44
		C20.678711,46.756836,18.435547,49,15.678711,49z"/>
	<path fill="#FFFFFF" d="M36.818577,9.000782c0.287815,0,0.583828,0.100412,0.840168,0.329178l9.780029,8.850031
		c0.509949,0.429998,0.509949,1.21002,0,1.640018l-9.780029,8.84997c-0.256451,0.228884-0.552269,0.329216-0.840206,0.329216
		c-0.756229,0-1.457054-0.692856-1.239746-1.569204L36.668755,23h-5.500002c-0.709959,2.73999-2.140009,5.26996-4.179989,7.309999
		c-2.03998,2.03998-4.570011,3.469969-7.309999,4.179991V44c0,2.209141-1.790861,4-4.000001,4s-4-1.790859-4-4V30.99999
		c0-2.209131,1.79086-3.99999,3.99999-3.99999h0.00001c4.418281,0,8.000001-3.58172,8.000001-8v-0.00001
		c0-2.209131,1.790859-3.99999,3.999989-3.99999h8.990002l-1.089962-4.42999
		C35.361446,9.693514,36.062199,9.000782,36.818577,9.000782 M36.818573,7.00078c-1.004799,0-1.97546,0.47396-2.596531,1.267839
		c-0.615017,0.78616-0.828049,1.800441-0.584457,2.782761L34.117023,13h-6.438271c-3.308409,0-5.999989,2.69158-5.999989,5.99999
		c0,3.30842-2.691591,6.00001-6.000001,6.00001s-6,2.69158-6,5.99999V44c0,3.308411,2.69159,6,6,6s6.000001-2.691589,6.000001-6
		v-8.032722c2.52252-0.894218,4.824121-2.342972,6.724209-4.243067C30.303171,29.823963,31.751902,27.522432,32.646061,25h1.470963
		l-0.480309,1.95216c-0.242702,0.97872-0.029652,1.99297,0.585388,2.77915c0.621082,0.793911,1.591709,1.267879,2.596439,1.267879
		c0.79578,0,1.56712-0.297279,2.171932-0.837069l9.770912-8.841652C49.435509,20.735573,49.821232,19.892385,49.821232,19
		s-0.385738-1.735588-1.059864-2.320484L39.000694,7.847C38.385643,7.29803,37.614323,7.00078,36.818573,7.00078L36.818573,7.00078z
		"/>
</g>
</svg>
