<?xml version="1.0" encoding="utf-8"?>
<!-- Generator: Adobe Illustrator 26.3.1, SVG Export Plug-In . SVG Version: 6.00 Build 0)  -->
<svg version="1.2" baseProfile="tiny" id="Layer_1" xmlns="http://www.w3.org/2000/svg" xmlns:xlink="http://www.w3.org/1999/xlink"
	 x="0px" y="0px" viewBox="0 0 50 50" overflow="visible" xml:space="preserve">
<g>
	<path d="M18,49c-2.756836,0-5-2.243164-5-5v-9.904297l-4.871582,1.195312c-0.207031,0.051758-0.41748,0.077148-0.625,0.077148
		c-0.984375,0-1.882812-0.592773-2.288086-1.509766c-0.40625-0.917969-0.23584-1.953125,0.444824-2.701172l10.60791-11.737793
		C16.6875,18.927246,17.325684,18.632324,18,18.632324s1.3125,0.294922,1.750977,0.808105l10.59082,11.71875
		c0.678711,0.746094,0.849609,1.78125,0.443359,2.699219c-0.405273,0.916992-1.303711,1.509766-2.288086,1.509766
		c-0.208008,0-0.417969-0.025391-0.625977-0.077148L23,34.095703V44C23,46.756836,20.756836,49,18,49z"/>
	<path fill="#FFFFFF" d="M18,19.632477c0.36499,0,0.72998,0.152498,0.98999,0.457493l10.609989,11.73999
		c0.918036,1.008957,0.142611,2.538212-1.102633,2.538212c-0.124758,0-0.2544-0.015381-0.387358-0.048161L22,32.820011V44
		c0,2.209141-1.790859,4-4,4s-4-1.790859-4-4V32.820011l-6.10999,1.5c-0.133045,0.032803-0.262521,0.048161-0.387357,0.048161
		c-1.245097,0-2.020605-1.529324-1.102633-2.538212L17.01001,20.08997C17.27002,19.784975,17.63501,19.632477,18,19.632477
		 M18,17.632481c-0.956203,0-1.861298,0.412588-2.488971,1.133265L4.9162,30.48896
		c-0.94648,1.040211-1.18417,2.48814-0.61579,3.77375c0.56547,1.279018,1.82242,2.105461,3.20224,2.105461
		c0.28857,0,0.57996-0.035763,0.86608-0.1063L12,35.370396V44c0,3.308411,2.69159,6,6,6s6-2.691589,6-6v-8.629608l3.63315,0.891937
		c0.28421,0.070072,0.575609,0.105843,0.864201,0.105843c1.379869,0,2.63686-0.826431,3.202309-2.105423
		c0.56838-1.285599,0.33066-2.733538-0.62039-3.778778L20.488972,18.765747C19.861298,18.045071,18.956203,17.632481,18,17.632481
		L18,17.632481z"/>
</g>
<g>
	<path d="M5.589844,29.624023C2.629883,26.464844,1,22.336426,1,18C1,8.625977,8.625977,1,18,1s17,7.625977,17,17
		c0,4.337402-1.629883,8.46582-4.59082,11.624023l-0.742188,0.791992l-3.730957-4.121094l0.598145-0.67041
		C28.408203,23.521484,29.44043,20.813965,29.44043,18c0-6.308105-5.132324-11.439941-11.44043-11.439941
		S6.560059,11.691895,6.560059,18c0,2.813965,1.032227,5.521973,2.90625,7.624512l0.597656,0.67041L6.33252,30.416016
		L5.589844,29.624023z"/>
	<path fill="#FFFFFF" d="M18,2.000001c8.83997,0,16,7.15997,16,16c0,4.229979-1.640011,8.080019-4.320009,10.939999
		l-2.400021-2.650019c1.97003-2.209961,3.16003-5.099981,3.16003-8.28998c0-6.870001-5.57-12.440001-12.440001-12.440001
		S5.56,11.130001,5.56,18.000002c0,3.189999,1.19,6.080019,3.15997,8.28998l-2.39996,2.650019
		C3.64001,26.080021,2,22.22998,2,18.000002C2,9.159971,9.15997,2.000001,18,2.000001 M18,0.000001c-9.92523,0-18,8.07477-18,18
		c0,4.59173,1.7262,8.962629,4.86062,12.307549l1.48448,1.584171l1.45733-1.60918l2.39996-2.650021l1.20627-1.331949
		l-1.19574-1.341421C8.50216,23.039982,7.56,20.568501,7.56,18.000002C7.56,12.243361,12.24336,7.560001,18,7.560001
		s10.440001,4.68336,10.440001,10.440001c0,2.56852-0.942171,5.039989-2.65296,6.959129l-1.195801,1.341431l1.20632,1.33198
		l2.400021,2.650019l1.45734,1.60914l1.484459-1.58415C34.2738,26.962631,36,22.591732,36,18.000002
		C36,8.074771,27.92523,0.000001,18,0.000001L18,0.000001z"/>
</g>
<g>
	<path d="M10.278809,24.34668C8.809082,22.567383,8,20.313477,8,18c0-5.51416,4.48584-10,10-10s10,4.48584,10,10
		c0,2.313965-0.80957,4.567871-2.278809,6.34668l-0.737305,0.892578l-5.23584-5.799316
		C19.619141,19.291016,18.99707,18.629883,18,18.629883s-1.619141,0.661133-1.733398,0.793945l-5.250488,5.815918
		L10.278809,24.34668z"/>
	<path fill="#FFFFFF" d="M18,9.000001c4.969971,0,9,4.03003,9,9.000001c0,2.169979-0.77002,4.159969-2.04999,5.710018
		l-4.46002-4.939999c-0.126659-0.14674-1.014141-1.14002-2.48999-1.14002s-2.36333,0.99328-2.48999,1.14002l-4.46002,4.939999
		C9.76996,22.159971,9,20.169981,9,18.000002C9,13.030031,13.02997,9.000001,18,9.000001 M18,7.000001
		c-6.06542,0-11,4.93458-11,11.000001c0,2.545029,0.89064,5.02516,2.50785,6.983519l1.47466,1.78574l1.55197-1.718979
		l4.460019-4.940001c0.045261-0.05168,0.421921-0.48028,1.005501-0.48028s0.960239,0.4286,0.97599,0.44685l4.489531,4.973431
		l1.552,1.719019l1.474659-1.78582C28.109369,23.025061,29,20.544941,29,18.000002C29,11.934581,24.06542,7.000001,18,7.000001
		L18,7.000001z"/>
</g>
<g>
	<path d="M42,34.879883c-0.521484,0-1.004883-0.283203-1.261719-0.739258c-3.264648-5.773438-4.984375-8.845215-5.111328-9.128906
		c-0.476562-1.029785-0.689453-2.202637-0.610352-3.379883c0.233398-3.460938,3.131836-6.316406,6.598633-6.500488
		c0.12793-0.006836,0.257812-0.010254,0.385742-0.010254c3.859375,0,6.999023,3.13916,6.999023,6.998047
		c0,1.005371-0.209961,1.97998-0.625,2.896484c-0.170898,0.376953-3.277344,5.879883-5.114258,9.125977
		C43.004883,34.59668,42.521484,34.879883,42,34.879883z M42,19.942383c-0.439453,0-0.852539,0.194336-1.132812,0.532227
		c-0.285156,0.34375-0.394531,0.782715-0.30957,1.236816c0.107422,0.566406,0.578125,1.037109,1.144531,1.144043
		c0.100586,0.018555,0.200195,0.02832,0.297852,0.02832c0.44043,0,0.853516-0.194336,1.133789-0.532227
		c0.28418-0.34375,0.394531-0.782715,0.308594-1.236328c-0.107422-0.566895-0.578125-1.037598-1.144531-1.144531
		C42.197266,19.952148,42.097656,19.942383,42,19.942383z"/>
	<path fill="#FFFFFF" d="M42.001362,16.120745c3.314693-0.000254,5.998642,2.684944,5.998642,5.998268
		c0,0.88586-0.194111,1.729351-0.536469,2.48464c-0.158833,0.35004-3.848003,6.88061-5.072441,9.0462
		c-0.086472,0.152931-0.238716,0.229401-0.390953,0.229401s-0.304466-0.076462-0.390938-0.229389
		c-1.223888-2.1646-4.91008-8.690311-5.068901-9.046211c-0.40588-0.875271-0.596458-1.86701-0.52589-2.904631
		c0.201183-2.985809,2.664661-5.41045,5.65398-5.569279C41.779873,16.123726,41.891197,16.120752,42.001362,16.120745
		 M42.000153,23.883657c1.523914,0,2.722622-1.375023,2.424843-2.953745c-0.18251-0.967609-0.973991-1.75909-1.941601-1.94161
		c-0.16367-0.03087-0.325253-0.045662-0.483238-0.045662c-1.523914,0-2.72263,1.375021-2.424843,2.953743
		c0.18251,0.967619,0.973991,1.7591,1.941601,1.94161C41.680584,23.868864,41.842167,23.883657,42.000153,23.883657
		 M42.001823,14.120743h-0.000179c-0.146351,0.00001-0.293621,0.00395-0.44109,0.01191
		c-4.02763,0.214-7.270561,3.40907-7.541622,7.43192c-0.091377,1.343689,0.153053,2.685959,0.706963,3.880459
		c0.05106,0.114941,0.198708,0.44581,5.14233,9.189199c0.434219,0.76796,1.251118,1.245022,2.13192,1.245022
		c0.880798,0,1.697708-0.477062,2.13192-1.245022c4.944019-8.744169,5.09029-9.066528,5.152748-9.204178
		c0.47467-1.047192,0.715191-2.160952,0.715191-3.311041C50.000004,17.708754,46.412033,14.120743,42.001823,14.120743
		L42.001823,14.120743z M42.000153,21.883654c-0.035957,0-0.07383-0.0037-0.112549-0.011011
		c-0.158211-0.029839-0.317101-0.18873-0.346939-0.34696c-0.03027-0.160429,0.00206-0.299259,0.096081-0.41267
		c0.052738-0.063629,0.170097-0.17037,0.363407-0.17037c0.035961,0,0.07383,0.0037,0.112553,0.011011
		c0.158199,0.02984,0.317097,0.18873,0.346947,0.34696c0.030251,0.160419-0.002068,0.299259-0.096088,0.41267
		C42.310814,21.776913,42.193462,21.883654,42.000153,21.883654L42.000153,21.883654z"/>
</g>
</svg>
