<?xml version="1.0" encoding="utf-8"?>
<!-- Generator: Adobe Illustrator 26.3.1, SVG Export Plug-In . SVG Version: 6.00 Build 0)  -->
<svg version="1.2" baseProfile="tiny" id="Layer_1" xmlns="http://www.w3.org/2000/svg" xmlns:xlink="http://www.w3.org/1999/xlink"
	 x="0px" y="0px" viewBox="0 0 50 50" overflow="visible" xml:space="preserve">
<g>
	<path d="M7.725586,49c-2.756836,0-5-2.243164-5-5V21.354492c0-6.227539,5.066406-11.294434,11.293945-11.294434h20.706055v10
		H15.136719c-1.32959,0-2.411133,1.081543-2.411133,2.411133V44C12.725586,46.756836,10.482422,49,7.725586,49z"/>
	<path fill="#FFFFFF" d="M33.725483,11.059999v8.000001h-18.58894c-1.883881,0-3.41106,1.52718-3.41106,3.411058v21.52895
		c0,2.209129-1.79086,3.999992-4,3.999992s-4-1.790863-4-3.999992V21.354259c0-5.685361,4.6089-10.294261,10.29426-10.294261
		H33.725483 M35.725483,9.059999h-2h-19.70574c-6.77908,0-12.29426,5.515181-12.29426,12.294261v22.645748
		c0,3.308411,2.69159,5.999992,6,5.999992s6-2.691582,6-5.999992v-21.52895c0-0.778059,0.633-1.411058,1.41106-1.411058h18.58894h2
		v-2v-8.000001V9.059999L35.725483,9.059999z"/>
</g>
<g>
	<path d="M31.974609,29c-0.814453,0-1.602539-0.385742-2.109375-1.03125c-0.496094-0.632812-0.667969-1.453125-0.47168-2.251465
		L32.030273,15L29.393555,4.282715c-0.196289-0.797852-0.024414-1.618164,0.47168-2.250977
		C30.37207,1.385742,31.160156,1,31.973633,1c0.65332,0,1.261719,0.23877,1.760742,0.689941L46.451172,13.19043
		C46.96582,13.626465,47.274414,14.293457,47.274414,15s-0.308594,1.373535-0.847656,1.830566L33.734375,28.30957
		C33.235352,28.761719,32.625977,29,31.974609,29z"/>
	<path fill="#FFFFFF" d="M31.973917,2c0.373777-0.00002,0.757673,0.131536,1.089689,0.4318l12.716301,11.50016
		c0.659481,0.559319,0.659481,1.57676,0,2.136081L33.063606,27.568199C32.731667,27.868399,32.347618,28,31.973917,28
		c-0.97998,0-1.889761-0.904278-1.609299-2.04393L33.060856,15L30.364618,4.04393C30.084181,2.904374,30.99403,2.000051,31.973917,2
		 M31.974009,0h-0.000111c-1.11883,0.00006-2.20137,0.52909-2.895781,1.41517c-0.686819,0.87637-0.92576,2.00872-0.65556,3.10669
		L31.001181,15l-2.578623,10.47814c-0.27022,1.098061-0.031271,2.230471,0.6556,3.106859
		C29.772577,29.471029,30.855097,30,31.973917,30c0.891512,0,1.754919-0.33683,2.431211-0.94845l12.69796-11.483574
		C47.848034,16.921467,48.274517,15.987769,48.274517,15s-0.426483-1.921468-1.171429-2.567977L34.405109,0.94843
		C33.728809,0.33682,32.865429,0,31.974009,0L31.974009,0z"/>
</g>
</svg>
