<?xml version="1.0" encoding="utf-8"?>
<!-- Generator: Adobe Illustrator 26.3.1, SVG Export Plug-In . SVG Version: 6.00 Build 0)  -->
<svg version="1.2" baseProfile="tiny" id="Layer_1" xmlns="http://www.w3.org/2000/svg" xmlns:xlink="http://www.w3.org/1999/xlink"
	 x="0px" y="0px" viewBox="0 0 50 50" overflow="visible" xml:space="preserve">
<g>
	<path d="M16,30c-2.481445,0-4.5-2.018555-4.5-4.5v-1c0-2.481445,2.018555-4.5,4.5-4.5h18c2.481445,0,4.5,2.018555,4.5,4.5v1
		c0,2.481445-2.018555,4.5-4.5,4.5H16z"/>
	<path fill="#FFFFFF" d="M34,21c1.932999,0,3.5,1.566999,3.5,3.5v1c0,1.933001-1.567001,3.5-3.5,3.5H16
		c-1.933,0-3.5-1.566999-3.5-3.5v-1c0-1.933001,1.567-3.5,3.5-3.5H34 M34,19H16c-3.03271,0-5.5,2.467291-5.5,5.5v1
		c0,3.032709,2.46729,5.5,5.5,5.5h18c3.032711,0,5.5-2.467291,5.5-5.5v-1C39.5,21.467291,37.032711,19,34,19L34,19z"/>
</g>
<g>
	<path d="M25,49C11.766602,49,1,38.233398,1,25S11.766602,1,25,1s24,10.766602,24,24S38.233398,49,25,49z M25,7.791504
		C15.51123,7.791504,7.791504,15.51123,7.791504,25c0,9.488281,7.719727,17.208008,17.208496,17.208008
		c9.488281,0,17.208008-7.719727,17.208008-17.208008C42.208008,15.51123,34.488281,7.791504,25,7.791504z"/>
	<path fill="#FFFFFF" d="M25,2c12.697922,0,23,10.302078,23,23S37.697922,48,25,48S2,37.697922,2,25S12.302078,2,25,2 M25,43.208332
		c10.05291,0,18.208332-8.155422,18.208332-18.208332S35.05291,6.791667,25,6.791667S6.791667,14.947089,6.791667,25
		S14.947089,43.208332,25,43.208332 M25,0C11.214955,0,0,11.214955,0,25s11.214955,25,25,25s25-11.214954,25-25S38.785046,0,25,0
		L25,0z M25,41.208332c-8.9373,0-16.208332-7.27103-16.208332-16.208332S16.0627,8.791667,25,8.791667
		S41.208332,16.0627,41.208332,25S33.937302,41.208332,25,41.208332L25,41.208332z"/>
</g>
</svg>
