<?xml version="1.0" encoding="utf-8"?>
<!-- Generator: Adobe Illustrator 26.3.1, SVG Export Plug-In . SVG Version: 6.00 Build 0)  -->
<svg version="1.2" baseProfile="tiny" id="Layer_1" xmlns="http://www.w3.org/2000/svg" xmlns:xlink="http://www.w3.org/1999/xlink"
	 x="0px" y="0px" viewBox="0 0 50 50" overflow="visible" xml:space="preserve">
<g>
	<path d="M13.499512,49c-1.335938,0-2.591309-0.519531-3.535645-1.463867C9.02002,46.591797,8.5,45.335938,8.5,44V31.996094
		C8.5,27.586914,12.086914,24,16.495605,24h7.503906C24.275391,24,24.5,23.775391,24.5,23.499512V11h10v15.001953
		C34.5,30.412109,30.912109,34,26.501953,34h-7.498047C18.726074,34,18.5,34.225586,18.5,34.503906v9.325195
		c0,2.646484-1.98291,4.908203-4.514648,5.147461C13.822266,48.992188,13.659668,49,13.499512,49z"/>
	<path fill="#FFFFFF" d="M33.5,12v14.001591C33.5,29.866701,30.366699,33,26.501591,33H19.00388
		C18.173309,33,17.5,33.673309,17.5,34.50388l0.00001,9.325691c0,2.089489-1.5286,3.954571-3.60876,4.151829
		c-0.131654,0.012486-0.262202,0.018593-0.391264,0.018593C11.289947,47.999992,9.5,46.209972,9.5,44V31.99563
		C9.5,28.13205,12.63205,25,16.49563,25h7.503981C24.828251,25,25.5,24.328251,25.5,23.499611V12H33.5 M35.5,10h-2h-8h-2v2v11
		h-7.00437C11.53542,23,7.5,27.035419,7.5,31.99563V44c0,3.308411,2.69158,5.999989,5.99999,5.999989
		c0.191319,0,0.38485-0.009018,0.580009-0.027519c3.03928-0.288208,5.42001-2.986488,5.42001-6.142899L19.5,35h7.001591
		C31.463329,35,35.5,30.963331,35.5,26.001591V12V10L35.5,10z"/>
</g>
<g>
	<path d="M39.12207,16.552734c-0.196289,0-0.394531-0.024414-0.59082-0.072266L29.5,14.257812l-9.031738,2.222656
		c-0.195801,0.047852-0.394043,0.072266-0.590332,0.072266c-0.932129,0-1.783691-0.561523-2.169922-1.430664
		c-0.386719-0.87207-0.228027-1.855469,0.415527-2.566895l9.731934-10.760254C28.249023,1.328613,28.856445,1.047363,29.5,1.047363
		s1.250977,0.28125,1.666016,0.771973l9.709961,10.735352c0.643555,0.711914,0.802734,1.695312,0.416016,2.567383
		C40.90625,15.991211,40.053711,16.552734,39.12207,16.552734L39.12207,16.552734z"/>
	<path fill="#FFFFFF" d="M29.5,2.047073c0.333546,0,0.667089,0.139505,0.90373,0.418515l9.730898,10.75994
		c0.836788,0.925283,0.125233,2.327398-1.012451,2.327398c-0.113312,0-0.231007-0.013937-0.351658-0.043629L29.5,13.227868
		l-9.270519,2.28143c-0.120733,0.029712-0.238276,0.043629-0.351658,0.043629c-1.137548,0-1.849184-1.402177-1.012453-2.327398
		l9.7309-10.75994C28.832911,2.186578,29.166454,2.047073,29.5,2.047073 M29.5,0.047068
		c-0.924202,0-1.797838,0.398576-2.403316,1.094951L17.382,11.884028c-0.912399,1.0089-1.13765,2.40501-0.587851,3.643519
		c0.54619,1.23037,1.756601,2.025381,3.08367,2.025381c0.27659,0,0.5557-0.03417,0.829571-0.10157L29.5,15.287544l8.792591,2.163815
		c0.273888,0.0674,0.552998,0.10157,0.82959,0.10157c1.327118,0,2.53756-0.795,3.08374-2.025351
		c0.549789-1.23849,0.324509-2.63462-0.587921-3.64355L31.903316,1.14202C31.297838,0.445645,30.424202,0.047068,29.5,0.047068
		L29.5,0.047068z"/>
</g>
</svg>
