<?xml version="1.0" encoding="utf-8"?>
<!-- Generator: Adobe Illustrator 26.3.1, SVG Export Plug-In . SVG Version: 6.00 Build 0)  -->
<svg version="1.2" baseProfile="tiny" id="Layer_1" xmlns="http://www.w3.org/2000/svg" xmlns:xlink="http://www.w3.org/1999/xlink"
	 x="0px" y="0px" viewBox="0 0 50 50" overflow="visible" xml:space="preserve">
<g>
	<path d="M32,49c-2.756836,0-5-2.243164-5-5v-9.904297l-4.871582,1.195312c-0.206543,0.051758-0.41748,0.077148-0.625,0.077148
		c-0.984375,0-1.882324-0.591797-2.288086-1.508789c-0.40625-0.918945-0.23584-1.954102,0.444824-2.702148l10.607422-11.737793
		C30.6875,18.927246,31.325195,18.632324,32,18.632324s1.3125,0.294922,1.750977,0.808105l10.59082,11.71875
		c0.678711,0.746094,0.849609,1.78125,0.443359,2.699219c-0.405273,0.916992-1.303711,1.509766-2.288086,1.509766
		c-0.208008,0-0.417969-0.025391-0.625977-0.077148L37,34.095703V44C37,46.756836,34.756836,49,32,49z"/>
	<path fill="#FFFFFF" d="M32,19.632477c0.36499,0,0.72998,0.152498,0.98999,0.457493l10.609989,11.73999
		c0.917973,1.008888,0.142464,2.538212-1.102631,2.538212c-0.124836,0-0.254314-0.015358-0.38736-0.048161L36,32.820011V44
		c0,2.209141-1.790859,4-4,4s-4-1.790859-4-4V32.820011l-6.109989,1.5c-0.132957,0.03278-0.2626,0.048161-0.387358,0.048161
		c-1.245243,0-2.020668-1.529255-1.102633-2.538212L31.01001,20.08997C31.27002,19.784975,31.63501,19.632477,32,19.632477
		 M32,17.632481c-0.956203,0-1.861298,0.412588-2.48897,1.133265L18.916201,30.48896
		c-0.94652,1.040251-1.18424,2.48819-0.61586,3.773788c0.565449,1.278992,1.822439,2.105423,3.202309,2.105423
		c0.288591,0,0.57999-0.03577,0.86611-0.1063L26,35.370396V44c0,3.308411,2.691589,6,6,6s6-2.691589,6-6v-8.629608
		l3.633148,0.891937c0.284241,0.07008,0.57563,0.105843,0.864201,0.105843c1.379822,0,2.636772-0.826443,3.20224-2.105461
		c0.568382-1.28561,0.330692-2.73354-0.620308-3.77874L34.488972,18.765745C33.861298,18.045071,32.956203,17.632481,32,17.632481
		L32,17.632481z"/>
</g>
<g>
	<path d="M39.936523,26.294922L40.53418,25.625c1.874023-2.103516,2.90625-4.811523,2.90625-7.625
		c0-6.308105-5.131836-11.439941-11.44043-11.439941c-6.308105,0-11.439941,5.131836-11.439941,11.439941
		c0,2.814453,1.032227,5.522461,2.906738,7.625l0.597656,0.669922l-3.732422,4.121094l-0.742188-0.791992
		C16.629883,26.464844,15,22.335938,15,18c0-9.374023,7.625977-17,17-17s17,7.625977,17,17
		c0,4.336914-1.629883,8.46582-4.59082,11.624023l-0.742188,0.791992L39.936523,26.294922z"/>
	<path fill="#FFFFFF" d="M32,2.000001c8.840031,0,16,7.15997,16,16c0,4.229979-1.640011,8.080019-4.320011,10.940001
		l-2.39996-2.650021c1.969971-2.209961,3.159969-5.099981,3.159969-8.28998c0-6.870001-5.57-12.440001-12.439999-12.440001
		s-12.440001,5.57-12.440001,12.440001c0,3.189999,1.190001,6.080019,3.16003,8.28998l-2.400021,2.650021
		C17.640011,26.080021,16,22.22998,16,18.000002C16,9.159971,23.16003,2.000001,32,2.000001 M32,0.000001
		c-9.92523,0-18,8.07477-18,18c0,4.59173,1.7262,8.962629,4.86062,12.30755l1.484459,1.584148l1.45734-1.609138l2.400021-2.650021
		l1.20632-1.331982l-1.195801-1.341429c-1.710789-1.91914-2.65296-4.39061-2.65296-6.959129
		c0-5.756641,4.683361-10.440001,10.440001-10.440001s10.439999,4.683359,10.439999,10.440001
		c0,2.568499-0.942158,5.03998-2.65292,6.959148l-1.19574,1.341421l1.206272,1.331951l2.39996,2.650017l1.457329,1.60918
		l1.484482-1.584167C48.2738,26.962631,50,22.591732,50,18.000002C50,8.074771,41.925228,0.000001,32,0.000001L32,0.000001z"/>
</g>
<g>
	<path d="M24.278809,24.34668C22.809082,22.567383,22,20.313477,22,18c0-5.51416,4.486328-10,10-10s10,4.48584,10,10
		c0,2.313477-0.80957,4.568359-2.279297,6.34668l-0.737305,0.892578l-5.235352-5.798828
		C33.619141,19.291016,32.99707,18.629883,32,18.629883s-1.619141,0.661133-1.733398,0.793945l-5.250488,5.81543L24.278809,24.34668
		z"/>
	<path fill="#FFFFFF" d="M32,9.000002c4.970032,0,9,4.030029,9,9c0,2.169979-0.769958,4.159969-2.049992,5.710018
		l-4.460018-4.939999c-0.126659-0.14674-1.014141-1.14002-2.48999-1.14002s-2.363331,0.99328-2.48999,1.14002l-4.46002,4.939999
		C23.77002,22.159971,23,20.169981,23,18.000002C23,13.030031,27.030029,9.000002,32,9.000002 M32,7.000001
		c-6.06542,0-11,4.934581-11,11.000001c0,2.544939,0.890631,5.025059,2.50782,6.983479l1.474659,1.785822l1.552-1.719021
		l4.46002-4.940001c0.045261-0.05168,0.421921-0.48028,1.005501-0.48028s0.960239,0.4286,0.97599,0.44685l4.489529,4.973431
		l1.551971,1.718979l1.474659-1.78574C42.10936,23.025162,43,20.545031,43,18.000002C43,11.934582,38.065418,7.000001,32,7.000001
		L32,7.000001z"/>
</g>
<g>
	<path d="M8,34.879883c-0.521973,0-1.005371-0.283203-1.262207-0.739258c-1.834961-3.244141-4.94043-8.745605-5.111816-9.124023
		C1.210449,24.100098,1,23.125,1,22.119141c0-3.858887,3.139648-6.998047,6.998535-6.998047
		c0.12793,0,0.257324,0.003418,0.386719,0.010254c3.466309,0.184082,6.364746,3.039551,6.597656,6.500488
		c0.080566,1.177246-0.132812,2.351074-0.616211,3.392578c-0.166504,0.373047-3.270508,5.873047-5.105469,9.117188
		C9.004883,34.59668,8.521484,34.879883,8,34.879883z M8,19.942383c-0.097656,0-0.197266,0.009766-0.297852,0.028809
		c-0.566895,0.106934-1.037598,0.577148-1.144043,1.143555c-0.085938,0.454102,0.023926,0.893066,0.308594,1.236816
		c0.280273,0.337891,0.693359,0.532227,1.132812,0.532227c0.097656,0,0.197266-0.009766,0.297852-0.028809
		c0.566895-0.106934,1.037598-0.577148,1.14502-1.144043c0.085449-0.453613-0.024414-0.892578-0.309082-1.236328
		C8.852539,20.136719,8.439453,19.942383,8,19.942383z"/>
	<path fill="#FFFFFF" d="M7.99864,16.120745c0.110162,0,0.221488,0.002981,0.332966,0.008999
		c2.98932,0.158829,5.4528,2.583469,5.65398,5.569279c0.07057,1.037621-0.12001,2.02936-0.52589,2.904631
		c-0.158819,0.3559-3.84501,6.881611-5.0689,9.046211c-0.08647,0.152927-0.2387,0.229389-0.390937,0.229389
		c-0.152238,0-0.304482-0.076469-0.390953-0.229401c-1.22444-2.16559-4.91361-8.696159-5.07244-9.0462
		c-0.34236-0.755289-0.53647-1.59878-0.53647-2.48464C1.999996,18.805689,4.683944,16.120745,7.99864,16.120745 M7.999848,23.883657
		c0.157986,0,0.319569-0.014793,0.483238-0.045664c0.967609-0.18251,1.759089-0.973991,1.9416-1.94161
		c0.297779-1.578722-0.900928-2.953806-2.424842-2.953743c-0.157986,0.000006-0.319569,0.014791-0.483238,0.045662
		c-0.96761,0.18252-1.75909,0.974001-1.9416,1.94161C5.277227,22.508635,6.475935,23.883657,7.999848,23.883657 M7.998636,14.120743
		c-4.41047,0-7.99864,3.588011-7.99864,7.99827c0,1.150089,0.24052,2.263849,0.71487,3.310341
		c0.06278,0.13835,0.20905,0.460709,5.15306,9.204859c0.43422,0.767979,1.25113,1.245041,2.13193,1.245041
		s1.697701-0.477062,2.13191-1.24501c4.94363-8.743401,5.09128-9.07427,5.15433-9.215561
		c0.54192-1.16815,0.78635-2.51042,0.69488-3.85537c-0.27097-4.021589-3.5139-7.21666-7.54325-7.43075
		C8.291866,14.124683,8.144486,14.120743,7.998636,14.120743L7.998636,14.120743z M7.999846,21.883654
		c-0.19331,0-0.31066-0.106741-0.36341-0.17037c-0.09402-0.113411-0.12634-0.252251-0.09609-0.412661
		c0.02985-0.158239,0.18875-0.317129,0.34698-0.346979c0.03869-0.007301,0.07656-0.011002,0.11252-0.011002
		c0.19333-0.00001,0.31065,0.10671,0.36339,0.170321c0.094029,0.11342,0.126369,0.252281,0.096109,0.41271
		c-0.02985,0.158239-0.18874,0.317131-0.34696,0.346981C8.073676,21.879953,8.035806,21.883654,7.999846,21.883654
		L7.999846,21.883654z"/>
</g>
</svg>
