<?xml version="1.0" encoding="utf-8"?>
<!-- Generator: Adobe Illustrator 26.3.1, SVG Export Plug-In . SVG Version: 6.00 Build 0)  -->
<svg version="1.2" baseProfile="tiny" id="Layer_1" xmlns="http://www.w3.org/2000/svg" xmlns:xlink="http://www.w3.org/1999/xlink"
	 x="0px" y="0px" viewBox="0 0 50 50" overflow="visible" xml:space="preserve">
<path fill="#999999" d="M30.500011,3.5c-8.559998,0-15.5,6.940002-15.5,15.5s6.940002,15.5,15.5,15.5s15.5-6.940002,15.5-15.5
	S39.060009,3.5,30.500011,3.5z M30.500011,27.5c-4.690002,0-8.5-3.809998-8.5-8.5s3.809998-8.5,8.5-8.5s8.5,3.809998,8.5,8.5
	S35.190014,27.5,30.500011,27.5z"/>
<g>
	<path d="M30.5,49c-2.756836,0-5-2.243164-5-5v-8.75293c-1.207031-0.371094-2.379883-0.880859-3.496094-1.518555
		c-1.022949-0.594727-1.977539-1.291992-2.850098-2.080078l-3.268555,1.881836l2.276855,2.37793
		c0.638184,0.667969,0.80957,1.606445,0.44873,2.450195c-0.359375,0.839844-1.171387,1.381836-2.068848,1.381836
		c-0.162109,0-0.327148-0.017578-0.490234-0.051758L3.160156,36.917969c-0.577148-0.104492-1.100586-0.474609-1.405273-1.009766
		c-0.302734-0.53125-0.35498-1.164062-0.142578-1.736328l4.036133-12.519043c0.306152-0.950684,1.150879-1.56543,2.152344-1.56543
		c1.020508,0,1.893555,0.658691,2.171387,1.639648l0.912598,3.139648l7.134766-4.119141
		c0.708008-0.408691,1.513672-0.624512,2.330566-0.624512c1.677246,0,3.23584,0.898926,4.067871,2.346191
		c0.632812,1.100586,1.515625,1.981445,2.574219,2.580078c0.097656,0.062012,0.133789,0.087402,0.170898,0.103027l0.095703,0.044434
		C28.262695,25.72998,29.352539,26,30.5,26l0.201172-0.000977c2.652344,0,4.798828,2.146484,4.798828,4.78418V44
		C35.5,46.756836,33.256836,49,30.5,49z"/>
	<path fill="#FFFFFF" d="M7.800597,21.087339c0.519086,0,1.037254,0.30504,1.209428,0.912663l1.27002,4.369989l8.239409-4.756359
		c0.5763-0.33268,1.207296-0.490673,1.830679-0.490673c1.276804,0,2.521875,0.662653,3.201061,1.844294l0.01882,0.032749
		c0.70002,1.219971,1.71003,2.22998,2.93,2.919979c0.090019,0.060001,0.190001,0.120001,0.28997,0.159971
		c1.11005,0.590029,2.369999,0.92005,3.71003,0.92005l0.20649-0.000549c0.003323-0.00001,0.007019-0.000013,0.010342-0.000015
		c2.088886-0.000204,3.783169,1.693256,3.783169,3.783394V44c0,2.209141-1.790859,4-4,4h-0.000011
		c-2.209129,0-3.999989-1.790859-3.999989-4v-9.51001c-1.40003-0.359989-2.73999-0.910038-4-1.630009
		c-1.169991-0.679989-2.23999-1.5-3.20002-2.45001l-5.019951,2.89002l3.159971,3.29998
		c0.791744,0.828617,0.159481,2.140358-0.897835,2.140358c-0.091124,0-0.185356-0.009739-0.282156-0.030369l-12.89002-2.769958
		c-0.65997-0.119991-1.04999-0.799992-0.82001-1.42004l4.04999-12.560001C6.787578,21.377457,7.294526,21.087339,7.800597,21.087339
		 M7.800595,19.087341c-1.42155,0-2.66908,0.908041-3.10433,2.259541L0.65637,33.875591
		c-0.293558,0.836376-0.210857,1.754471,0.229566,2.52747c0.445079,0.781166,1.204186,1.325123,2.087167,1.497307
		l12.866732,2.764954c0.23464,0.050011,0.469831,0.075012,0.702351,0.075012c1.298571,0,2.471491-0.780724,2.988161-1.988991
		c0.520889-1.21817,0.27401-2.571953-0.6443-3.533039l-1.396444-1.458321l1.546877-0.890549
		c0.76989,0.640736,1.592638,1.216446,2.458557,1.719719c0.970808,0.554756,1.975409,1.01569,3.00498,1.379852V44
		c0,3.308411,2.69158,6,5.999989,6c3.308422,0,6.000011-2.691589,6.000011-6V30.782831c0-3.188969-2.594139-5.78339-5.78278-5.78339
		l-0.222549,0.00057c-0.977119-0.00001-1.909531-0.230839-2.766001-0.686079l-0.09564-0.05084l-0.030603-0.012236
		l-0.035486-0.023655l-0.08234-0.048069c-0.902811-0.51062-1.65661-1.26256-2.17989-2.174511
		c-1.029161-1.79051-2.920151-2.88166-4.95459-2.88166c-0.992121,0-1.970921,0.26231-2.83057,0.75856l-6.03071,3.48134
		l-0.55829-1.921009C10.533035,20.038733,9.273705,19.087341,7.800595,19.087341L7.800595,19.087341z"/>
</g>
</svg>
