<?xml version="1.0" encoding="utf-8"?>
<!-- Generator: Adobe Illustrator 26.3.1, SVG Export Plug-In . SVG Version: 6.00 Build 0)  -->
<svg version="1.2" baseProfile="tiny" id="Layer_1" xmlns="http://www.w3.org/2000/svg" xmlns:xlink="http://www.w3.org/1999/xlink"
	 x="0px" y="0px" viewBox="0 0 50 50" overflow="visible" xml:space="preserve">
<g>
	<path d="M13.419434,49c-2.756836,0-5-2.243164-5-5V6.490234c0-1.472656,0.574219-2.851562,1.617188-3.881836
		C11.058105,1.574219,12.437012,1,13.909668,1c1.941406,0,3.762207,1.047852,4.751953,2.733887L34.786133,31.65625l-8.663086,5
		l-7.703613-13.336426V44C18.419434,46.756836,16.17627,49,13.419434,49z"/>
	<path fill="#FFFFFF" d="M13.909492,2c1.599967,0,3.079956,0.859989,3.889944,2.239989l15.620001,27.04999l-6.929989,4
		l-9.070011-15.700012V44c0,2.209145-1.790855,4-4,4s-4-1.790855-4-4V6.489989c0-1.239989,0.5-2.359989,1.320011-3.169978
		C11.549438,2.5,12.669437,2,13.909492,2 M13.909492,0c-1.742289,0-3.373422,0.679922-4.592922,1.914522
		C8.09936,3.116633,7.419437,4.747745,7.419437,6.489989V44c0,3.308411,2.691589,6,6,6s6-2.691589,6-6V27.050068l5.338234,9.240376
		l1.000076,1.731125l1.731512-0.999424l6.929987-4l1.732479-1l-1.000309-1.7323L19.531416,3.239856
		C18.355749,1.236744,16.204283,0,13.909492,0L13.909492,0z"/>
</g>
<g>
	<path d="M36.269531,46.635742c-0.275391,0-0.548828-0.047852-0.810547-0.141602L18.416016,40
		c-1.081055-0.34668-1.800781-1.349609-1.783203-2.537109c0.01709-1.188477,0.765625-2.169922,1.906738-2.500977l10.601074-3.074219
		l7.961914-7.642578c0.499023-0.479492,1.144531-0.743652,1.816406-0.743652c0.799805,0,1.580078,0.374023,2.085938,1
		c0.50293,0.622559,0.685547,1.405273,0.513672,2.205566l-2.884766,17.936523
		C38.422852,45.805664,37.430664,46.635742,36.269531,46.635742z"/>
	<path fill="#FFFFFF" d="M38.918774,24.501421c0.962025-0.00001,1.864391,0.867083,1.621861,1.995977l-2.894199,17.987461
		c-0.124832,0.686749-0.723122,1.150673-1.377323,1.150673c-0.156265,0-0.315605-0.026436-0.472576-0.082634l-17.024681-6.48732
		c-1.54295-0.49762-1.51038-2.691849,0.046659-3.143459l10.836351-3.143009l8.140129-7.813042
		C38.131588,24.642998,38.53006,24.501425,38.918774,24.501421 M38.918797,22.501419h-0.000053
		c-0.93132,0.000019-1.82225,0.36289-2.50869,1.021749l-7.785025,7.472206l-10.363644,3.005903
		c-1.54825,0.44907-2.60455,1.833759-2.62848,3.445641c-0.023615,1.591309,0.964986,2.991119,2.466487,3.502697l16.984982,6.472195
		c0.40807,0.146538,0.793892,0.213718,1.184742,0.213718c1.6441,0,3.050911-1.174622,3.345078-2.792992l2.894302-17.98554
		c0.210857-1.065762-0.052067-2.149931-0.725731-2.983698C41.088684,23.014269,40.018044,22.501419,38.918797,22.501419
		L38.918797,22.501419z"/>
</g>
</svg>
