<?xml version="1.0" encoding="utf-8"?>
<!-- Generator: Adobe Illustrator 26.3.1, SVG Export Plug-In . SVG Version: 6.00 Build 0)  -->
<svg version="1.2" baseProfile="tiny" id="Layer_1" xmlns="http://www.w3.org/2000/svg" xmlns:xlink="http://www.w3.org/1999/xlink"
	 x="0px" y="0px" viewBox="0 0 50 50" overflow="visible" xml:space="preserve">
<g>
	<path d="M36.581055,49c-2.757812,0-5.000977-2.243164-5.000977-5V23.320312L23.876465,36.65625l-8.662109-5L31.333984,3.740234
		C32.328125,2.047363,34.149414,1,36.09082,1c1.47168,0,2.850586,0.574219,3.880859,1.616699
		c1.03418,1.022461,1.608398,2.400879,1.608398,3.873535V44C41.580078,46.756836,39.337891,49,36.581055,49z"/>
	<path fill="#FFFFFF" d="M36.090508,2c1.240055,0,2.360054,0.5,3.170044,1.320011C40.080563,4.13,40.580563,5.25,40.580563,6.489989
		V44c0,2.209145-1.790855,4-4,4s-4-1.790855-4-4V19.589966l-9.070011,15.700012l-6.929989-4l15.619999-27.04999
		C33.010551,2.859989,34.49054,2,36.090508,2 M36.090508,0c-2.294788,0-4.446257,1.236744-5.614779,3.2276L14.848585,30.289845
		l-1.000312,1.7323l1.732478,1l6.929989,4l1.731512,0.999424l1.000076-1.731125l5.338234-9.240376V44c0,3.308411,2.691589,6,6,6
		s6-2.691589,6-6V6.489989c0-1.742244-0.679924-3.373355-1.914524-4.592855C39.463928,0.679922,37.832794,0,36.090508,0L36.090508,0
		z"/>
</g>
<g>
	<path d="M13.730469,46.635742c-1.160156,0-2.15332-0.830078-2.36084-1.972656L8.472168,26.65625
		c-0.162598-0.748535,0.02002-1.531738,0.522461-2.154297c0.506348-0.626465,1.286133-1.000488,2.086426-1.000488
		c0.671875,0,1.316895,0.26416,1.816406,0.743652l7.962891,7.642578l10.599609,3.074219
		c1.141602,0.331055,1.890625,1.313477,1.907227,2.500977c0.017578,1.1875-0.702148,2.19043-1.832031,2.554688L14.55957,46.487305
		C14.279297,46.587891,14.006348,46.635742,13.730469,46.635742L13.730469,46.635742z"/>
	<path fill="#FFFFFF" d="M11.081229,24.501421c0.388718,0,0.787189,0.141577,1.123786,0.464647l8.14012,7.813042l10.836351,3.143009
		c1.557039,0.451611,1.589609,2.64584,0.046659,3.143459l-17.024681,6.48732
		c-0.156973,0.056198-0.316313,0.082634-0.472579,0.082634c-0.654199,0-1.252489-0.463924-1.377321-1.150673l-2.8942-17.987461
		C9.216833,25.368504,10.119204,24.501421,11.081229,24.501421 M11.081225,22.501419c-1.09929,0-2.16995,0.51285-2.86402,1.371861
		c-0.673654,0.833757-0.936573,1.917917-0.725705,2.983698l2.887465,17.945601c0.30101,1.658329,1.70782,2.832951,3.35192,2.832951
		c0.39085,0,0.77667-0.067181,1.146729-0.19968l17.022968-6.486225c1.501501-0.511578,2.490126-1.911396,2.466513-3.502705
		c-0.02393-1.611881-1.080231-2.996571-2.628481-3.445641l-10.363642-3.005903l-7.785028-7.472216
		C12.903465,22.864279,12.012526,22.501419,11.081225,22.501419L11.081225,22.501419z"/>
</g>
</svg>
