<?xml version="1.0" encoding="utf-8"?>
<!-- Generator: Adobe Illustrator 26.3.1, SVG Export Plug-In . SVG Version: 6.00 Build 0)  -->
<svg version="1.2" baseProfile="tiny" id="Layer_1" xmlns="http://www.w3.org/2000/svg" xmlns:xlink="http://www.w3.org/1999/xlink"
	 x="0px" y="0px" viewBox="0 0 50 50" overflow="visible" xml:space="preserve">
<path fill="#999999" d="M28.5,28.5h-7V3.499996C21.5,1.567002,23.067001,0,24.999996,0h0.000008
	C26.932999,0,28.5,1.567002,28.5,3.499996V28.5z"/>
<g>
	<path d="M25.000488,49C22.519043,49,20.5,46.981445,20.5,44.5V30.499023C20.5,29.948242,20.051758,29.5,19.500488,29.5h-6.192383
		l0.702637,2.839844c0.159668,0.645508,0.020508,1.310547-0.381836,1.825195c-0.40918,0.521484-1.045898,0.833984-1.704102,0.833984
		c-0.522461,0-1.028809-0.198242-1.426758-0.558594l-8.798828-7.958984C1.279785,26.126953,1.025391,25.578613,1.025391,25
		s0.254395-1.126465,0.697754-1.50293l8.775879-7.938965c0.397949-0.359375,0.904297-0.557617,1.42627-0.557617
		c0.658203,0,1.29541,0.312012,1.704102,0.833984c0.402344,0.51416,0.541504,1.179199,0.381836,1.824707L13.308105,20.5h8.188965
		c4.412598,0,8.00293,3.590332,8.00293,8.00293v15.897461c0,2.1875-1.499023,4.081055-3.564453,4.503906
		C25.625488,48.967773,25.311035,49,25.000488,49z"/>
	<path fill="#FFFFFF" d="M11.92529,16.00062c0.679688,0,1.310631,0.627779,1.114998,1.418114l-1.010261,4.08127h9.46694
		c3.86767,0,7.003031,3.135359,7.003031,7.003029v15.89711c0,1.6702-1.129051,3.189869-2.76536,3.524632
		c-0.248812,0.050903-0.494658,0.075218-0.734661,0.075218c-1.930111,0-3.499979-1.569912-3.499979-3.499989v-14.00066
		c0-1.104212-0.89513-1.99934-1.99934-1.99934h-7.470631l1.00995,4.079948c0.19569,0.790558-0.435534,1.418636-1.115407,1.418636
		c-0.25918,0-0.525334-0.091206-0.755583-0.299477l-8.79899-7.95912c-0.46002-0.390018-0.46002-1.090029,0-1.479979
		l8.79999-7.960032C11.4001,16.091837,11.66626,16.00062,11.92529,16.00062 M11.925287,14.000623
		c-0.77043,0-1.51514,0.28985-2.09697,0.81614L1.045762,22.76103c-0.64922,0.565643-1.020745,1.379242-1.020774,2.238813
		c-0.000039,0.859758,0.371539,1.673555,1.020971,2.239309l8.781379,7.94319c0.58191,0.52636,1.32672,0.816242,2.09723,0.816242
		c0.96346,0,1.89496-0.455261,2.491771-1.217823c0.593269-0.758018,0.799219-1.735348,0.565049-2.68137l-0.395915-1.599388h4.915186
		l-0.00066,14c0,3.0327,2.467279,5.499989,5.499979,5.499989c0.377861,0,0.759901-0.03896,1.135509-0.115799
		c2.528971-0.51738,4.364511-2.823761,4.364511-5.484051v-15.89711c0-4.964291-4.03874-9.003029-9.003031-9.003029h-6.9115
		l0.39623-1.6007c0.23414-0.94594,0.028231-1.92315-0.56495-2.681061C13.820027,14.455813,12.888638,14.000623,11.925287,14.000623
		L11.925287,14.000623z"/>
</g>
</svg>
