<?xml version="1.0" encoding="utf-8"?>
<!-- Generator: Adobe Illustrator 26.3.1, SVG Export Plug-In . SVG Version: 6.00 Build 0)  -->
<svg version="1.2" baseProfile="tiny" id="Layer_1" xmlns="http://www.w3.org/2000/svg" xmlns:xlink="http://www.w3.org/1999/xlink"
	 x="0px" y="0px" viewBox="0 0 50 50" overflow="visible" xml:space="preserve">
<g>
	<path d="M25,49c-2.756836,0-5-2.243164-5-5V13h10v31C30,46.756836,27.756836,49,25,49z"/>
	<path fill="#FFFFFF" d="M29,14v30c0,2.209141-1.790859,4-4,4s-4-1.790859-4-4V14H29 M31,12h-2h-8h-2v2v30
		c0,3.308411,2.691589,6,6,6s6-2.691589,6-6V14V12L31,12z"/>
</g>
<g>
	<path d="M36.371094,19.000977c-0.216797-0.000488-0.436523-0.027344-0.654297-0.080566L25,16.282715L14.282715,18.92041
		c-0.216797,0.053223-0.437012,0.080566-0.654297,0.080566c-1.029785,0-1.971191-0.621582-2.397949-1.583496
		c-0.428223-0.963867-0.251953-2.05127,0.459473-2.838379L23.19043,1.862793C23.626465,1.348145,24.293457,1.039551,25,1.039551
		s1.374023,0.308594,1.831055,0.847168L38.30957,14.579102c0.711914,0.787598,0.887695,1.875,0.459961,2.838867
		C38.342773,18.379395,37.401367,19.000977,36.371094,19.000977L36.371094,19.000977z"/>
	<path fill="#FFFFFF" d="M25,2.039271c0.394188,0,0.788376,0.16487,1.068041,0.49461l11.500158,12.71629
		c0.988937,1.093518,0.147999,2.750562-1.196537,2.750562c-0.133911,0-0.273003-0.016472-0.415592-0.051561L25,15.252931
		l-10.95607,2.69624c-0.142685,0.035114-0.281597,0.051561-0.415593,0.051561c-1.344377,0-2.185406-1.657116-1.196537-2.750562
		l11.500159-12.71629C24.211624,2.204141,24.605812,2.039271,25,2.039271 M25,0.039271
		c-0.987993,0-1.921803,0.426573-2.568338,1.171841L10.94844,13.90867c-0.98049,1.08417-1.222679,2.584129-0.63209,3.91452
		c0.58722,1.322809,1.88726,2.17754,3.31199,2.17754c0.29762,0,0.59823-0.03684,0.89348-0.109489L25,17.312607l10.478142,2.578625
		c0.295269,0.072659,0.59589,0.109499,0.893517,0.109499c1.424793,0,2.724854-0.85471,3.312061-2.17749
		c0.590591-1.330379,0.348362-2.83035-0.632149-3.914559L27.568216,1.210975C26.921698,0.465858,25.987892,0.039271,25,0.039271
		L25,0.039271z"/>
</g>
<g>
	<path d="M44.739258,37.386719c-0.316406,0-0.625-0.094727-0.892578-0.273438l-3.364258-2.258789l-3.375977,2.241211
		c-0.265625,0.176758-0.572266,0.270508-0.885742,0.270508c-0.500977,0-0.981445-0.241211-1.286133-0.644531
		c-0.303711-0.402344-0.398438-0.914062-0.258789-1.40332l1.106445-3.895508l-3.172852-2.517578
		c-0.533203-0.422852-0.740234-1.113281-0.52832-1.758789s0.787109-1.078125,1.466797-1.102539l4.046875-0.151367l1.413086-3.796875
		c0.237305-0.634766,0.827148-1.044922,1.503906-1.044922c0.681641,0,1.273438,0.413086,1.507812,1.053223l1.394531,3.803223
		l4.046875,0.170898c0.678711,0.02832,1.251953,0.463867,1.460938,1.110352c0.208008,0.646484-0.001953,1.335938-0.536133,1.755859
		l-3.1875,2.500977l1.087891,3.90332c0.136719,0.487305,0.041016,0.99707-0.262695,1.397461
		C45.71875,37.147461,45.238281,37.386719,44.739258,37.386719z"/>
	<path fill="#FFFFFF" d="M40.512295,22.050911c0.235653,0,0.471287,0.132397,0.568249,0.396851l1.624359,4.430271l4.714458,0.19906
		c0.5616,0.023708,0.790302,0.73353,0.34819,1.080639l-3.711479,2.913881l1.267529,4.545238
		c0.115963,0.415829-0.213715,0.77002-0.584316,0.77002c-0.11195,0-0.227558-0.032276-0.335842-0.104939l-3.918179-2.629391
		l-3.931091,2.61005c-0.107666,0.071487-0.222477,0.103298-0.333492,0.103298c-0.371822,0-0.701698-0.356522-0.583366-0.7729
		l1.289909-4.538939l-3.69709-2.932131c-0.440399-0.349289-0.20821-1.05797,0.3535-1.078909l4.715389-0.17584l1.646172-4.422211
		C40.043026,22.182152,40.277672,22.050913,40.512295,22.050911 M40.512291,20.050913
		c-1.099529,0-2.057858,0.66585-2.441448,1.696329l-1.180435,3.17107l-3.381306,0.126091
		c-1.101658,0.041069-2.03532,0.744539-2.37859,1.792179c-0.343269,1.047649-0.00695,2.16725,0.85681,2.85232l2.651136,2.102591
		l-0.924965,3.254768c-0.225521,0.793533-0.071213,1.624161,0.42337,2.278881c0.49229,0.65168,1.27129,1.040749,2.08382,1.040749
		c0.511208,0,1.009079-0.151157,1.439777-0.43713l2.818886-1.871593l2.809635,1.885475
		c0.43309,0.29063,0.934589,0.444229,1.450298,0.444229c0.810093,0,1.587692-0.387157,2.080082-1.035641
		c0.494648-0.651466,0.651638-1.479427,0.43074-2.271606l-0.908928-3.259306l2.661419-2.089476
		c0.867149-0.68082,1.208977-1.79874,0.87088-2.84807c-0.3381-1.04933-1.26828-1.757401-2.369751-1.8039l-3.380627-0.142742
		l-1.164795-3.176847C42.577801,20.721493,41.617683,20.050913,40.512291,20.050913L40.512291,20.050913z"/>
</g>
</svg>
